{
 "cells": [
  {
   "cell_type": "code",
   "execution_count": 1,
   "metadata": {},
   "outputs": [],
   "source": [
    "import mido"
   ]
  },
  {
   "cell_type": "code",
   "execution_count": 2,
   "metadata": {},
   "outputs": [],
   "source": [
    "def load_midi_file(filename):\n",
    "  \"\"\"\n",
    "  Load a MIDI file using mido\n",
    "  \"\"\"\n",
    "  mid = mido.MidiFile(filename)\n",
    "  return mid\n",
    "\n",
    "midi = load_midi_file(\"test_pieces_Clair_de_Lune__Debussy_by_isgn.mid\")"
   ]
  },
  {
   "cell_type": "code",
   "execution_count": 17,
   "metadata": {},
   "outputs": [
    {
     "data": {
      "text/plain": [
       "220"
      ]
     },
     "execution_count": 17,
     "metadata": {},
     "output_type": "execute_result"
    }
   ],
   "source": [
    "midi.ticks_per_beat"
   ]
  },
  {
   "cell_type": "code",
   "execution_count": 19,
   "metadata": {},
   "outputs": [
    {
     "data": {
      "text/plain": [
       "0.4659090909090909"
      ]
     },
     "execution_count": 19,
     "metadata": {},
     "output_type": "execute_result"
    }
   ],
   "source": [
    "mido.tick2second(205, 220, 500000)"
   ]
  },
  {
   "cell_type": "code",
   "execution_count": 4,
   "metadata": {},
   "outputs": [
    {
     "name": "stdout",
     "output_type": "stream",
     "text": [
      "program_change channel=0 program=0 time=0\n",
      "control_change channel=0 control=64 value=77 time=205\n",
      "control_change channel=0 control=67 value=48 time=0\n",
      "control_change channel=0 control=64 value=80 time=168\n",
      "control_change channel=0 control=64 value=96 time=83\n",
      "control_change channel=0 control=67 value=52 time=0\n",
      "note_on channel=0 note=80 velocity=44 time=13\n",
      "note_on channel=0 note=77 velocity=40 time=2\n",
      "control_change channel=0 control=64 value=104 time=724\n",
      "note_on channel=0 note=80 velocity=0 time=13\n",
      "note_on channel=0 note=77 velocity=0 time=1\n",
      "control_change channel=0 control=64 value=114 time=332\n",
      "control_change channel=0 control=67 value=68 time=0\n",
      "note_on channel=0 note=77 velocity=39 time=13\n",
      "note_on channel=0 note=73 velocity=35 time=5\n",
      "control_change channel=0 control=64 value=114 time=771\n",
      "note_on channel=0 note=77 velocity=0 time=13\n",
      "control_change channel=0 control=64 value=68 time=26\n",
      "control_change channel=0 control=67 value=70 time=0\n",
      "note_on channel=0 note=73 velocity=0 time=5\n",
      "control_change channel=0 control=64 value=20 time=8\n",
      "note_on channel=0 note=66 velocity=33 time=0\n",
      "note_on channel=0 note=69 velocity=31 time=32\n",
      "control_change channel=0 control=64 value=108 time=242\n",
      "control_change channel=0 control=67 value=88 time=0\n",
      "note_on channel=0 note=72 velocity=45 time=14\n",
      "note_on channel=0 note=75 velocity=51 time=6\n",
      "control_change channel=0 control=64 value=98 time=222\n",
      "control_change channel=0 control=67 value=94 time=0\n",
      "note_on channel=0 note=72 velocity=0 time=13\n",
      "note_on channel=0 note=73 velocity=42 time=0\n",
      "note_on channel=0 note=77 velocity=46 time=7\n",
      "note_on channel=0 note=75 velocity=0 time=55\n",
      "control_change channel=0 control=64 value=95 time=151\n",
      "note_on channel=0 note=73 velocity=0 time=13\n",
      "note_on channel=0 note=77 velocity=0 time=28\n",
      "control_change channel=0 control=64 value=121 time=20\n",
      "control_change channel=0 control=67 value=82 time=0\n",
      "note_on channel=0 note=75 velocity=44 time=13\n",
      "note_on channel=0 note=72 velocity=32 time=19\n",
      "control_change channel=0 control=64 value=116 time=1125\n",
      "note_on channel=0 note=69 velocity=0 time=14\n",
      "note_on channel=0 note=66 velocity=0 time=40\n",
      "control_change channel=0 control=64 value=68 time=192\n",
      "control_change channel=0 control=67 value=78 time=0\n",
      "control_change channel=0 control=64 value=20 time=13\n",
      "note_on channel=0 note=65 velocity=32 time=0\n",
      "note_on channel=0 note=68 velocity=28 time=31\n",
      "control_change channel=0 control=64 value=111 time=50\n",
      "note_on channel=0 note=75 velocity=0 time=13\n",
      "note_on channel=0 note=72 velocity=0 time=161\n",
      "control_change channel=0 control=64 value=110 time=38\n",
      "control_change channel=0 control=67 value=88 time=0\n",
      "note_on channel=0 note=70 velocity=45 time=13\n",
      "note_on channel=0 note=73 velocity=51 time=9\n",
      "control_change channel=0 control=64 value=104 time=184\n",
      "control_change channel=0 control=67 value=89 time=3\n",
      "note_on channel=0 note=70 velocity=0 time=10\n",
      "note_on channel=0 note=72 velocity=48 time=3\n",
      "note_on channel=0 note=75 velocity=50 time=12\n",
      "note_on channel=0 note=73 velocity=0 time=19\n",
      "control_change channel=0 control=64 value=98 time=166\n",
      "note_on channel=0 note=72 velocity=0 time=13\n",
      "note_on channel=0 note=75 velocity=0 time=20\n",
      "control_change channel=0 control=64 value=98 time=3\n",
      "control_change channel=0 control=67 value=87 time=0\n",
      "note_on channel=0 note=70 velocity=34 time=13\n",
      "note_on channel=0 note=73 velocity=45 time=3\n",
      "control_change channel=0 control=64 value=93 time=209\n",
      "note_on channel=0 note=73 velocity=0 time=13\n",
      "control_change channel=0 control=64 value=97 time=94\n",
      "control_change channel=0 control=67 value=86 time=0\n",
      "note_on channel=0 note=77 velocity=51 time=14\n",
      "control_change channel=0 control=64 value=99 time=429\n",
      "note_on channel=0 note=77 velocity=0 time=13\n",
      "control_change channel=0 control=64 value=103 time=236\n",
      "control_change channel=0 control=67 value=87 time=0\n",
      "note_on channel=0 note=73 velocity=38 time=13\n",
      "control_change channel=0 control=64 value=105 time=2\n",
      "note_on channel=0 note=65 velocity=0 time=13\n",
      "control_change channel=0 control=64 value=107 time=110\n",
      "note_on channel=0 note=70 velocity=0 time=13\n",
      "note_on channel=0 note=68 velocity=0 time=87\n",
      "control_change channel=0 control=64 value=68 time=76\n",
      "control_change channel=0 control=67 value=88 time=0\n",
      "control_change channel=0 control=64 value=20 time=13\n",
      "note_on channel=0 note=63 velocity=28 time=0\n",
      "note_on channel=0 note=66 velocity=29 time=6\n",
      "note_on channel=0 note=73 velocity=0 time=46\n",
      "control_change channel=0 control=64 value=100 time=199\n",
      "control_change channel=0 control=67 value=93 time=0\n",
      "note_on channel=0 note=68 velocity=41 time=13\n",
      "note_on channel=0 note=72 velocity=51 time=0\n",
      "control_change channel=0 control=64 value=103 time=188\n",
      "note_on channel=0 note=68 velocity=0 time=13\n",
      "control_change channel=0 control=64 value=104 time=5\n",
      "control_change channel=0 control=67 value=90 time=0\n",
      "note_on channel=0 note=70 velocity=40 time=13\n",
      "note_on channel=0 note=73 velocity=44 time=3\n",
      "note_on channel=0 note=72 velocity=0 time=20\n",
      "control_change channel=0 control=64 value=100 time=199\n",
      "note_on channel=0 note=73 velocity=0 time=13\n",
      "note_on channel=0 note=70 velocity=0 time=1\n",
      "control_change channel=0 control=64 value=114 time=32\n",
      "control_change channel=0 control=67 value=80 time=0\n",
      "note_on channel=0 note=72 velocity=39 time=13\n",
      "note_on channel=0 note=68 velocity=28 time=13\n",
      "control_change channel=0 control=64 value=108 time=649\n",
      "note_on channel=0 note=66 velocity=0 time=14\n",
      "note_on channel=0 note=63 velocity=0 time=138\n",
      "note_on channel=0 note=68 velocity=0 time=192\n",
      "control_change channel=0 control=64 value=109 time=176\n",
      "note_on channel=0 note=72 velocity=0 time=13\n",
      "control_change channel=0 control=64 value=68 time=125\n",
      "control_change channel=0 control=67 value=66 time=0\n",
      "control_change channel=0 control=64 value=20 time=14\n",
      "note_on channel=0 note=61 velocity=38 time=0\n",
      "note_on channel=0 note=63 velocity=32 time=3\n",
      "note_on channel=0 note=66 velocity=30 time=15\n",
      "control_change channel=0 control=64 value=106 time=202\n",
      "control_change channel=0 control=67 value=76 time=0\n",
      "note_on channel=0 note=70 velocity=48 time=13\n",
      "control_change channel=0 control=64 value=108 time=215\n",
      "control_change channel=0 control=67 value=71 time=0\n",
      "note_on channel=0 note=72 velocity=45 time=13\n",
      "control_change channel=0 control=64 value=104 time=16\n",
      "note_on channel=0 note=70 velocity=0 time=13\n",
      "control_change channel=0 control=67 value=63 time=191\n",
      "control_change channel=0 control=64 value=101 time=11\n",
      "note_on channel=0 note=70 velocity=46 time=2\n",
      "note_on channel=0 note=72 velocity=0 time=11\n",
      "control_change channel=0 control=67 value=61 time=168\n",
      "control_change channel=0 control=64 value=100 time=2\n",
      "note_on channel=0 note=75 velocity=51 time=11\n",
      "note_on channel=0 note=70 velocity=0 time=2\n",
      "control_change channel=0 control=64 value=112 time=171\n",
      "control_change channel=0 control=67 value=60 time=13\n",
      "note_on channel=0 note=66 velocity=0 time=0\n",
      "control_change channel=0 control=64 value=95 time=10\n",
      "note_on channel=0 note=70 velocity=49 time=4\n",
      "note_on channel=0 note=75 velocity=0 time=10\n",
      "note_on channel=0 note=61 velocity=0 time=36\n",
      "note_on channel=0 note=63 velocity=0 time=98\n",
      "control_change channel=0 control=64 value=68 time=45\n",
      "control_change channel=0 control=67 value=59 time=0\n",
      "note_on channel=0 note=70 velocity=0 time=1\n",
      "note_on channel=0 note=63 velocity=40 time=12\n",
      "note_on channel=0 note=60 velocity=42 time=2\n",
      "note_on channel=0 note=68 velocity=49 time=0\n",
      "note_on channel=0 note=66 velocity=41 time=1\n",
      "control_change channel=0 control=64 value=20 time=11\n",
      "control_change channel=0 control=64 value=87 time=131\n",
      "note_on channel=0 note=68 velocity=0 time=13\n",
      "control_change channel=0 control=64 value=94 time=9\n",
      "control_change channel=0 control=67 value=58 time=0\n",
      "note_on channel=0 note=70 velocity=55 time=13\n",
      "control_change channel=0 control=64 value=96 time=189\n",
      "control_change channel=0 control=67 value=56 time=0\n",
      "control_change channel=0 control=64 value=68 time=13\n",
      "control_change channel=0 control=64 value=98 time=0\n",
      "note_on channel=0 note=68 velocity=46 time=0\n",
      "note_on channel=0 note=60 velocity=0 time=13\n",
      "control_change channel=0 control=64 value=20 time=1\n",
      "note_on channel=0 note=70 velocity=0 time=0\n",
      "note_on channel=0 note=66 velocity=0 time=6\n",
      "note_on channel=0 note=63 velocity=0 time=67\n",
      "control_change channel=0 control=64 value=68 time=92\n",
      "control_change channel=0 control=67 value=52 time=0\n",
      "control_change channel=0 control=64 value=20 time=13\n",
      "note_on channel=0 note=58 velocity=39 time=0\n",
      "note_on channel=0 note=63 velocity=39 time=8\n",
      "note_on channel=0 note=61 velocity=35 time=13\n",
      "control_change channel=0 control=64 value=89 time=85\n",
      "note_on channel=0 note=68 velocity=0 time=13\n",
      "control_change channel=0 control=64 value=83 time=60\n",
      "control_change channel=0 control=67 value=55 time=0\n",
      "note_on channel=0 note=66 velocity=57 time=14\n",
      "control_change channel=0 control=64 value=81 time=175\n",
      "control_change channel=0 control=67 value=52 time=0\n",
      "note_on channel=0 note=68 velocity=51 time=14\n",
      "control_change channel=0 control=64 value=87 time=16\n",
      "note_on channel=0 note=66 velocity=0 time=14\n",
      "control_change channel=0 control=64 value=84 time=142\n",
      "note_on channel=0 note=68 velocity=0 time=14\n",
      "control_change channel=0 control=64 value=78 time=5\n",
      "control_change channel=0 control=67 value=53 time=0\n",
      "note_on channel=0 note=66 velocity=42 time=13\n",
      "control_change channel=0 control=64 value=99 time=268\n",
      "note_on channel=0 note=63 velocity=0 time=14\n",
      "note_on channel=0 note=58 velocity=0 time=115\n",
      "note_on channel=0 note=66 velocity=0 time=13\n",
      "note_on channel=0 note=61 velocity=0 time=60\n",
      "control_change channel=0 control=64 value=103 time=137\n",
      "control_change channel=0 control=67 value=51 time=0\n",
      "note_on channel=0 note=57 velocity=37 time=13\n",
      "note_on channel=0 note=60 velocity=38 time=29\n",
      "note_on channel=0 note=65 velocity=36 time=5\n",
      "note_on channel=0 note=63 velocity=37 time=5\n",
      "control_change channel=0 control=64 value=109 time=430\n",
      "note_on channel=0 note=63 velocity=0 time=14\n",
      "control_change channel=0 control=64 value=109 time=20\n",
      "note_on channel=0 note=65 velocity=0 time=13\n",
      "note_on channel=0 note=57 velocity=0 time=9\n",
      "note_on channel=0 note=60 velocity=0 time=58\n",
      "control_change channel=0 control=64 value=68 time=167\n",
      "control_change channel=0 control=67 value=51 time=0\n",
      "control_change channel=0 control=64 value=20 time=13\n",
      "note_on channel=0 note=61 velocity=45 time=0\n",
      "note_on channel=0 note=58 velocity=42 time=27\n",
      "note_on channel=0 note=56 velocity=46 time=28\n",
      "control_change channel=0 control=64 value=96 time=167\n",
      "control_change channel=0 control=67 value=65 time=0\n",
      "note_on channel=0 note=65 velocity=50 time=14\n",
      "control_change channel=0 control=67 value=61 time=180\n",
      "control_change channel=0 control=64 value=100 time=7\n",
      "note_on channel=0 note=66 velocity=49 time=6\n",
      "note_on channel=0 note=65 velocity=0 time=8\n",
      "control_change channel=0 control=64 value=91 time=199\n",
      "control_change channel=0 control=67 value=57 time=3\n",
      "note_on channel=0 note=66 velocity=0 time=10\n",
      "note_on channel=0 note=65 velocity=48 time=3\n",
      "control_change channel=0 control=64 value=90 time=171\n",
      "note_on channel=0 note=65 velocity=0 time=14\n",
      "control_change channel=0 control=64 value=80 time=1\n",
      "control_change channel=0 control=67 value=57 time=0\n",
      "note_on channel=0 note=70 velocity=49 time=13\n",
      "control_change channel=0 control=64 value=83 time=165\n",
      "note_on channel=0 note=70 velocity=0 time=13\n",
      "control_change channel=0 control=64 value=74 time=8\n",
      "control_change channel=0 control=67 value=58 time=0\n",
      "note_on channel=0 note=65 velocity=49 time=13\n",
      "control_change channel=0 control=64 value=80 time=160\n",
      "note_on channel=0 note=65 velocity=0 time=13\n",
      "control_change channel=0 control=64 value=68 time=17\n",
      "control_change channel=0 control=67 value=59 time=0\n",
      "note_on channel=0 note=54 velocity=38 time=13\n",
      "note_on channel=0 note=63 velocity=45 time=2\n",
      "control_change channel=0 control=64 value=20 time=11\n",
      "control_change channel=0 control=64 value=86 time=127\n",
      "note_on channel=0 note=63 velocity=0 time=13\n",
      "control_change channel=0 control=64 value=84 time=23\n",
      "control_change channel=0 control=67 value=63 time=0\n",
      "note_on channel=0 note=65 velocity=54 time=14\n",
      "note_on channel=0 note=56 velocity=0 time=59\n",
      "control_change channel=0 control=64 value=68 time=138\n",
      "control_change channel=0 control=67 value=64 time=3\n",
      "control_change channel=0 control=64 value=20 time=10\n",
      "note_on channel=0 note=65 velocity=0 time=0\n",
      "note_on channel=0 note=63 velocity=41 time=3\n",
      "control_change channel=0 control=64 value=100 time=14\n",
      "note_on channel=0 note=54 velocity=0 time=13\n",
      "control_change channel=0 control=64 value=68 time=161\n",
      "control_change channel=0 control=67 value=57 time=0\n",
      "control_change channel=0 control=64 value=20 time=13\n",
      "note_on channel=0 note=53 velocity=39 time=0\n",
      "note_on channel=0 note=58 velocity=37 time=5\n",
      "note_on channel=0 note=56 velocity=34 time=1\n",
      "control_change channel=0 control=64 value=98 time=80\n",
      "note_on channel=0 note=63 velocity=0 time=13\n",
      "control_change channel=0 control=64 value=93 time=87\n",
      "control_change channel=0 control=67 value=57 time=0\n",
      "note_on channel=0 note=61 velocity=51 time=13\n",
      "control_change channel=0 control=64 value=85 time=206\n",
      "control_change channel=0 control=67 value=57 time=0\n",
      "note_on channel=0 note=63 velocity=42 time=13\n",
      "control_change channel=0 control=64 value=96 time=35\n",
      "note_on channel=0 note=61 velocity=0 time=14\n",
      "note_on channel=0 note=61 velocity=0 time=33\n",
      "note_on channel=0 note=58 velocity=0 time=107\n",
      "control_change channel=0 control=64 value=90 time=23\n",
      "control_change channel=0 control=67 value=57 time=7\n",
      "note_on channel=0 note=63 velocity=0 time=6\n",
      "note_on channel=0 note=61 velocity=37 time=7\n",
      "control_change channel=0 control=64 value=105 time=355\n",
      "note_on channel=0 note=58 velocity=0 time=13\n",
      "note_on channel=0 note=61 velocity=0 time=135\n",
      "note_on channel=0 note=56 velocity=0 time=12\n",
      "note_on channel=0 note=53 velocity=0 time=23\n",
      "control_change channel=0 control=64 value=97 time=67\n",
      "control_change channel=0 control=67 value=66 time=0\n",
      "note_on channel=0 note=54 velocity=33 time=13\n",
      "note_on channel=0 note=51 velocity=36 time=2\n",
      "note_on channel=0 note=56 velocity=34 time=4\n",
      "note_on channel=0 note=60 velocity=36 time=13\n",
      "control_change channel=0 control=64 value=99 time=226\n",
      "note_on channel=0 note=51 velocity=0 time=13\n",
      "control_change channel=0 control=64 value=68 time=69\n",
      "control_change channel=0 control=67 value=70 time=0\n",
      "control_change channel=0 control=64 value=20 time=13\n",
      "note_on channel=0 note=44 velocity=36 time=0\n",
      "control_change channel=0 control=64 value=110 time=68\n",
      "note_on channel=0 note=60 velocity=0 time=13\n",
      "note_on channel=0 note=56 velocity=0 time=5\n",
      "note_on channel=0 note=54 velocity=0 time=79\n",
      "control_change channel=0 control=64 value=68 time=143\n",
      "control_change channel=0 control=67 value=67 time=0\n",
      "control_change channel=0 control=64 value=20 time=13\n",
      "note_on channel=0 note=37 velocity=40 time=0\n",
      "control_change channel=0 control=64 value=99 time=62\n",
      "note_on channel=0 note=44 velocity=0 time=13\n",
      "control_change channel=0 control=64 value=92 time=124\n",
      "control_change channel=0 control=67 value=54 time=0\n",
      "note_on channel=0 note=53 velocity=45 time=14\n",
      "note_on channel=0 note=56 velocity=47 time=6\n",
      "note_on channel=0 note=37 velocity=0 time=27\n",
      "control_change channel=0 control=67 value=45 time=170\n",
      "control_change channel=0 control=64 value=68 time=5\n",
      "note_on channel=0 note=68 velocity=49 time=8\n",
      "control_change channel=0 control=64 value=20 time=5\n",
      "note_on channel=0 note=53 velocity=0 time=0\n",
      "note_on channel=0 note=65 velocity=43 time=8\n",
      "note_on channel=0 note=56 velocity=0 time=3\n",
      "control_change channel=0 control=64 value=98 time=215\n",
      "control_change channel=0 control=67 value=34 time=0\n",
      "note_on channel=0 note=80 velocity=57 time=14\n",
      "note_on channel=0 note=77 velocity=48 time=4\n",
      "control_change channel=0 control=64 value=108 time=539\n",
      "note_on channel=0 note=77 velocity=0 time=13\n",
      "note_on channel=0 note=80 velocity=0 time=124\n",
      "control_change channel=0 control=64 value=108 time=46\n",
      "control_change channel=0 control=67 value=47 time=0\n",
      "note_on channel=0 note=73 velocity=41 time=13\n",
      "note_on channel=0 note=77 velocity=45 time=5\n",
      "control_change channel=0 control=64 value=118 time=573\n",
      "note_on channel=0 note=73 velocity=0 time=13\n",
      "note_on channel=0 note=77 velocity=0 time=13\n",
      "control_change channel=0 control=64 value=112 time=67\n",
      "control_change channel=0 control=67 value=54 time=0\n",
      "note_on channel=0 note=49 velocity=38 time=13\n",
      "note_on channel=0 note=42 velocity=37 time=12\n",
      "control_change channel=0 control=64 value=68 time=158\n",
      "control_change channel=0 control=64 value=20 time=14\n",
      "note_on channel=0 note=68 velocity=0 time=0\n",
      "note_on channel=0 note=65 velocity=0 time=21\n",
      "control_change channel=0 control=64 value=68 time=44\n",
      "control_change channel=0 control=67 value=63 time=0\n",
      "control_change channel=0 control=64 value=20 time=14\n",
      "note_on channel=0 note=75 velocity=49 time=0\n",
      "note_on channel=0 note=58 velocity=32 time=7\n",
      "note_on channel=0 note=54 velocity=31 time=2\n",
      "note_on channel=0 note=61 velocity=32 time=3\n",
      "note_on channel=0 note=70 velocity=33 time=3\n",
      "note_on channel=0 note=66 velocity=29 time=2\n",
      "note_on channel=0 note=49 velocity=31 time=5\n",
      "control_change channel=0 control=64 value=122 time=208\n",
      "control_change channel=0 control=67 value=75 time=0\n",
      "note_on channel=0 note=77 velocity=53 time=13\n",
      "control_change channel=0 control=64 value=106 time=58\n",
      "note_on channel=0 note=75 velocity=0 time=13\n",
      "control_change channel=0 control=64 value=125 time=5\n",
      "note_on channel=0 note=42 velocity=0 time=14\n",
      "note_on channel=0 note=49 velocity=0 time=42\n",
      "control_change channel=0 control=64 value=112 time=226\n",
      "control_change channel=0 control=67 value=71 time=0\n",
      "note_on channel=0 note=75 velocity=40 time=13\n",
      "control_change channel=0 control=64 value=68 time=106\n",
      "control_change channel=0 control=64 value=20 time=13\n",
      "note_on channel=0 note=77 velocity=0 time=0\n",
      "control_change channel=0 control=64 value=118 time=94\n",
      "note_on channel=0 note=54 velocity=0 time=13\n",
      "note_on channel=0 note=58 velocity=0 time=25\n",
      "note_on channel=0 note=49 velocity=0 time=42\n",
      "note_on channel=0 note=61 velocity=0 time=21\n",
      "note_on channel=0 note=70 velocity=0 time=19\n",
      "note_on channel=0 note=66 velocity=0 time=73\n",
      "control_change channel=0 control=64 value=109 time=698\n",
      "note_on channel=0 note=75 velocity=0 time=14\n",
      "control_change channel=0 control=64 value=68 time=90\n",
      "control_change channel=0 control=67 value=75 time=0\n",
      "control_change channel=0 control=64 value=20 time=13\n",
      "note_on channel=0 note=49 velocity=33 time=0\n",
      "note_on channel=0 note=41 velocity=33 time=2\n",
      "control_change channel=0 control=64 value=120 time=198\n",
      "control_change channel=0 control=67 value=70 time=0\n",
      "note_on channel=0 note=73 velocity=49 time=13\n",
      "note_on channel=0 note=61 velocity=47 time=6\n",
      "note_on channel=0 note=53 velocity=34 time=10\n",
      "note_on channel=0 note=56 velocity=32 time=1\n",
      "note_on channel=0 note=68 velocity=37 time=3\n",
      "control_change channel=0 control=64 value=110 time=167\n",
      "control_change channel=0 control=67 value=54 time=0\n",
      "note_on channel=0 note=75 velocity=58 time=13\n",
      "note_on channel=0 note=63 velocity=49 time=5\n",
      "control_change channel=0 control=64 value=112 time=21\n",
      "note_on channel=0 note=61 velocity=0 time=13\n",
      "note_on channel=0 note=73 velocity=0 time=13\n",
      "control_change channel=0 control=64 value=111 time=106\n",
      "note_on channel=0 note=56 velocity=0 time=13\n",
      "note_on channel=0 note=53 velocity=0 time=8\n",
      "note_on channel=0 note=63 velocity=0 time=3\n",
      "note_on channel=0 note=68 velocity=0 time=0\n",
      "control_change channel=0 control=64 value=68 time=3\n",
      "control_change channel=0 control=67 value=48 time=0\n",
      "control_change channel=0 control=64 value=114 time=10\n",
      "control_change channel=0 control=64 value=20 time=4\n",
      "note_on channel=0 note=61 velocity=37 time=0\n",
      "note_on channel=0 note=65 velocity=37 time=0\n",
      "note_on channel=0 note=68 velocity=38 time=0\n",
      "note_on channel=0 note=80 velocity=53 time=0\n",
      "note_on channel=0 note=73 velocity=39 time=5\n",
      "note_on channel=0 note=41 velocity=0 time=4\n",
      "note_on channel=0 note=75 velocity=0 time=2\n",
      "note_on channel=0 note=49 velocity=0 time=96\n",
      "note_on channel=0 note=68 velocity=0 time=298\n",
      "note_on channel=0 note=65 velocity=0 time=12\n",
      "note_on channel=0 note=73 velocity=0 time=50\n",
      "note_on channel=0 note=61 velocity=0 time=5\n",
      "control_change channel=0 control=64 value=103 time=84\n",
      "control_change channel=0 control=67 value=43 time=0\n",
      "note_on channel=0 note=77 velocity=53 time=13\n",
      "note_on channel=0 note=56 velocity=34 time=14\n",
      "note_on channel=0 note=61 velocity=33 time=0\n",
      "note_on channel=0 note=65 velocity=34 time=8\n",
      "note_on channel=0 note=73 velocity=37 time=4\n",
      "note_on channel=0 note=80 velocity=0 time=30\n",
      "control_change channel=0 control=64 value=114 time=295\n",
      "note_on channel=0 note=65 velocity=0 time=14\n",
      "note_on channel=0 note=61 velocity=0 time=22\n",
      "note_on channel=0 note=56 velocity=0 time=2\n",
      "note_on channel=0 note=73 velocity=0 time=38\n",
      "control_change channel=0 control=64 value=68 time=230\n",
      "control_change channel=0 control=67 value=62 time=0\n",
      "control_change channel=0 control=64 value=20 time=13\n",
      "note_on channel=0 note=49 velocity=35 time=0\n",
      "note_on channel=0 note=42 velocity=35 time=12\n",
      "control_change channel=0 control=64 value=106 time=147\n",
      "note_on channel=0 note=77 velocity=0 time=13\n",
      "control_change channel=0 control=64 value=68 time=34\n",
      "control_change channel=0 control=67 value=51 time=0\n",
      "control_change channel=0 control=64 value=20 time=13\n",
      "note_on channel=0 note=54 velocity=34 time=0\n",
      "note_on channel=0 note=58 velocity=34 time=8\n",
      "note_on channel=0 note=49 velocity=35 time=4\n",
      "note_on channel=0 note=75 velocity=49 time=2\n",
      "note_on channel=0 note=70 velocity=35 time=3\n",
      "note_on channel=0 note=61 velocity=33 time=4\n",
      "note_on channel=0 note=66 velocity=31 time=0\n",
      "control_change channel=0 control=64 value=123 time=211\n",
      "control_change channel=0 control=67 value=62 time=0\n",
      "note_on channel=0 note=77 velocity=50 time=14\n",
      "control_change channel=0 control=64 value=108 time=13\n",
      "note_on channel=0 note=75 velocity=0 time=13\n",
      "control_change channel=0 control=64 value=118 time=135\n",
      "note_on channel=0 note=42 velocity=0 time=13\n",
      "note_on channel=0 note=49 velocity=0 time=17\n",
      "control_change channel=0 control=64 value=98 time=79\n",
      "control_change channel=0 control=67 value=57 time=0\n",
      "note_on channel=0 note=75 velocity=41 time=14\n",
      "control_change channel=0 control=64 value=68 time=12\n",
      "control_change channel=0 control=64 value=20 time=14\n",
      "note_on channel=0 note=77 velocity=0 time=0\n",
      "control_change channel=0 control=64 value=115 time=181\n",
      "note_on channel=0 note=54 velocity=0 time=13\n",
      "note_on channel=0 note=49 velocity=0 time=15\n",
      "note_on channel=0 note=58 velocity=0 time=113\n",
      "note_on channel=0 note=70 velocity=0 time=7\n",
      "note_on channel=0 note=75 velocity=0 time=130\n",
      "note_on channel=0 note=61 velocity=0 time=8\n",
      "note_on channel=0 note=66 velocity=0 time=40\n",
      "control_change channel=0 control=64 value=68 time=99\n",
      "control_change channel=0 control=67 value=56 time=0\n",
      "control_change channel=0 control=64 value=20 time=13\n",
      "note_on channel=0 note=73 velocity=36 time=0\n",
      "control_change channel=0 control=64 value=118 time=513\n",
      "note_on channel=0 note=73 velocity=0 time=14\n",
      "control_change channel=0 control=64 value=68 time=67\n",
      "control_change channel=0 control=67 value=62 time=0\n",
      "control_change channel=0 control=64 value=20 time=13\n",
      "note_on channel=0 note=44 velocity=37 time=0\n",
      "control_change channel=0 control=64 value=114 time=247\n",
      "control_change channel=0 control=67 value=65 time=0\n",
      "note_on channel=0 note=73 velocity=47 time=13\n",
      "note_on channel=0 note=61 velocity=44 time=10\n",
      "note_on channel=0 note=59 velocity=33 time=6\n",
      "note_on channel=0 note=53 velocity=37 time=2\n",
      "note_on channel=0 note=68 velocity=41 time=9\n",
      "control_change channel=0 control=64 value=105 time=215\n",
      "control_change channel=0 control=67 value=55 time=2\n",
      "note_on channel=0 note=61 velocity=0 time=11\n",
      "note_on channel=0 note=75 velocity=59 time=2\n",
      "note_on channel=0 note=63 velocity=48 time=3\n",
      "note_on channel=0 note=73 velocity=0 time=36\n",
      "control_change channel=0 control=64 value=106 time=139\n",
      "note_on channel=0 note=53 velocity=0 time=13\n",
      "note_on channel=0 note=63 velocity=0 time=5\n",
      "note_on channel=0 note=59 velocity=0 time=3\n",
      "note_on channel=0 note=68 velocity=0 time=22\n",
      "note_on channel=0 note=75 velocity=0 time=4\n",
      "control_change channel=0 control=64 value=117 time=10\n",
      "control_change channel=0 control=67 value=70 time=0\n",
      "note_on channel=0 note=59 velocity=35 time=13\n",
      "note_on channel=0 note=61 velocity=32 time=7\n",
      "note_on channel=0 note=77 velocity=37 time=4\n",
      "note_on channel=0 note=82 velocity=51 time=3\n",
      "note_on channel=0 note=65 velocity=32 time=2\n",
      "note_on channel=0 note=70 velocity=38 time=16\n",
      "control_change channel=0 control=64 value=102 time=229\n",
      "note_on channel=0 note=70 velocity=0 time=13\n",
      "note_on channel=0 note=82 velocity=0 time=10\n",
      "control_change channel=0 control=64 value=116 time=41\n",
      "note_on channel=0 note=44 velocity=0 time=13\n",
      "control_change channel=0 control=64 value=87 time=15\n",
      "control_change channel=0 control=67 value=64 time=0\n",
      "note_on channel=0 note=80 velocity=51 time=14\n",
      "note_on channel=0 note=68 velocity=36 time=5\n",
      "control_change channel=0 control=64 value=111 time=317\n",
      "note_on channel=0 note=65 velocity=0 time=13\n",
      "control_change channel=0 control=64 value=102 time=71\n",
      "note_on channel=0 note=68 velocity=0 time=13\n",
      "note_on channel=0 note=61 velocity=0 time=43\n",
      "note_on channel=0 note=80 velocity=0 time=50\n",
      "control_change channel=0 control=64 value=68 time=145\n",
      "control_change channel=0 control=67 value=86 time=0\n",
      "note_on channel=0 note=77 velocity=0 time=9\n",
      "control_change channel=0 control=64 value=20 time=4\n",
      "note_on channel=0 note=65 velocity=34 time=0\n",
      "note_on channel=0 note=77 velocity=38 time=11\n",
      "note_on channel=0 note=65 velocity=0 time=166\n",
      "control_change channel=0 control=64 value=68 time=175\n",
      "control_change channel=0 control=67 value=106 time=0\n",
      "control_change channel=0 control=64 value=20 time=13\n",
      "note_on channel=0 note=46 velocity=22 time=0\n",
      "control_change channel=0 control=64 value=99 time=35\n",
      "note_on channel=0 note=77 velocity=0 time=13\n",
      "control_change channel=0 control=64 value=92 time=222\n",
      "control_change channel=0 control=67 value=107 time=0\n",
      "note_on channel=0 note=75 velocity=46 time=14\n",
      "note_on channel=0 note=65 velocity=27 time=25\n",
      "note_on channel=0 note=58 velocity=26 time=2\n",
      "note_on channel=0 note=70 velocity=34 time=0\n",
      "note_on channel=0 note=53 velocity=25 time=19\n",
      "note_on channel=0 note=63 velocity=32 time=9\n",
      "note_on channel=0 note=59 velocity=0 time=9\n",
      "control_change channel=0 control=64 value=85 time=255\n",
      "control_change channel=0 control=67 value=106 time=8\n",
      "note_on channel=0 note=75 velocity=0 time=5\n",
      "note_on channel=0 note=77 velocity=50 time=8\n",
      "control_change channel=0 control=64 value=111 time=341\n",
      "note_on channel=0 note=46 velocity=0 time=13\n",
      "control_change channel=0 control=64 value=87 time=12\n",
      "control_change channel=0 control=67 value=105 time=0\n",
      "note_on channel=0 note=75 velocity=33 time=13\n",
      "control_change channel=0 control=64 value=95 time=1\n",
      "note_on channel=0 note=77 velocity=0 time=14\n",
      "control_change channel=0 control=64 value=100 time=275\n",
      "note_on channel=0 note=75 velocity=0 time=13\n",
      "note_on channel=0 note=63 velocity=0 time=61\n",
      "control_change channel=0 control=64 value=68 time=139\n",
      "control_change channel=0 control=67 value=112 time=0\n",
      "control_change channel=0 control=64 value=20 time=14\n",
      "note_on channel=0 note=61 velocity=22 time=0\n",
      "note_on channel=0 note=73 velocity=28 time=2\n",
      "control_change channel=0 control=64 value=107 time=250\n",
      "note_on channel=0 note=70 velocity=0 time=13\n",
      "control_change channel=0 control=64 value=108 time=161\n",
      "note_on channel=0 note=73 velocity=0 time=13\n",
      "note_on channel=0 note=58 velocity=0 time=154\n",
      "note_on channel=0 note=61 velocity=0 time=59\n",
      "note_on channel=0 note=53 velocity=0 time=169\n",
      "note_on channel=0 note=65 velocity=0 time=136\n",
      "control_change channel=0 control=64 value=68 time=25\n",
      "control_change channel=0 control=67 value=119 time=0\n",
      "control_change channel=0 control=64 value=20 time=13\n",
      "note_on channel=0 note=70 velocity=26 time=0\n",
      "note_on channel=0 note=70 velocity=0 time=241\n",
      "control_change channel=0 control=64 value=92 time=291\n",
      "control_change channel=0 control=67 value=122 time=0\n",
      "note_on channel=0 note=39 velocity=27 time=13\n",
      "note_on channel=0 note=27 velocity=26 time=22\n",
      "control_change channel=0 control=64 value=119 time=340\n",
      "note_on channel=0 note=27 velocity=0 time=14\n",
      "control_change channel=0 control=64 value=123 time=75\n",
      "control_change channel=0 control=67 value=103 time=0\n",
      "note_on channel=0 note=89 velocity=41 time=13\n",
      "note_on channel=0 note=39 velocity=0 time=6\n",
      "note_on channel=0 note=66 velocity=22 time=0\n",
      "note_on channel=0 note=70 velocity=22 time=3\n",
      "note_on channel=0 note=65 velocity=23 time=1\n",
      "note_on channel=0 note=77 velocity=26 time=0\n",
      "note_on channel=0 note=82 velocity=25 time=12\n",
      "control_change channel=0 control=64 value=125 time=219\n",
      "note_on channel=0 note=77 velocity=0 time=14\n",
      "note_on channel=0 note=70 velocity=0 time=17\n",
      "note_on channel=0 note=82 velocity=0 time=0\n",
      "note_on channel=0 note=66 velocity=0 time=10\n",
      "note_on channel=0 note=65 velocity=0 time=15\n",
      "note_on channel=0 note=89 velocity=0 time=54\n",
      "control_change channel=0 control=64 value=127 time=251\n",
      "control_change channel=0 control=67 value=95 time=0\n",
      "note_on channel=0 note=87 velocity=40 time=13\n",
      "note_on channel=0 note=82 velocity=30 time=25\n",
      "note_on channel=0 note=75 velocity=29 time=2\n",
      "note_on channel=0 note=70 velocity=24 time=16\n",
      "note_on channel=0 note=66 velocity=25 time=8\n",
      "note_on channel=0 note=63 velocity=26 time=3\n",
      "control_change channel=0 control=64 value=127 time=78\n",
      "note_on channel=0 note=82 velocity=0 time=14\n",
      "note_on channel=0 note=75 velocity=0 time=1\n",
      "note_on channel=0 note=87 velocity=0 time=7\n",
      "note_on channel=0 note=70 velocity=0 time=18\n",
      "note_on channel=0 note=63 velocity=0 time=16\n",
      "note_on channel=0 note=66 velocity=0 time=2\n",
      "control_change channel=0 control=64 value=124 time=70\n",
      "control_change channel=0 control=67 value=72 time=0\n",
      "note_on channel=0 note=87 velocity=48 time=13\n",
      "note_on channel=0 note=63 velocity=27 time=1\n",
      "note_on channel=0 note=66 velocity=26 time=5\n",
      "note_on channel=0 note=75 velocity=32 time=2\n",
      "note_on channel=0 note=70 velocity=26 time=2\n",
      "note_on channel=0 note=82 velocity=33 time=4\n",
      "note_on channel=0 note=75 velocity=0 time=109\n",
      "note_on channel=0 note=82 velocity=0 time=6\n",
      "note_on channel=0 note=63 velocity=0 time=5\n",
      "note_on channel=0 note=70 velocity=0 time=6\n",
      "note_on channel=0 note=66 velocity=0 time=3\n",
      "note_on channel=0 note=87 velocity=0 time=16\n",
      "control_change channel=0 control=64 value=123 time=58\n",
      "control_change channel=0 control=67 value=64 time=0\n",
      "note_on channel=0 note=87 velocity=50 time=13\n",
      "note_on channel=0 note=66 velocity=28 time=16\n",
      "note_on channel=0 note=70 velocity=29 time=1\n",
      "note_on channel=0 note=63 velocity=30 time=1\n",
      "note_on channel=0 note=82 velocity=35 time=0\n",
      "note_on channel=0 note=75 velocity=33 time=3\n",
      "control_change channel=0 control=64 value=120 time=74\n",
      "note_on channel=0 note=75 velocity=0 time=13\n",
      "note_on channel=0 note=82 velocity=0 time=5\n",
      "note_on channel=0 note=70 velocity=0 time=2\n",
      "note_on channel=0 note=63 velocity=0 time=3\n",
      "note_on channel=0 note=66 velocity=0 time=0\n",
      "note_on channel=0 note=87 velocity=0 time=20\n",
      "control_change channel=0 control=64 value=112 time=55\n",
      "control_change channel=0 control=67 value=61 time=0\n",
      "note_on channel=0 note=85 velocity=48 time=13\n",
      "note_on channel=0 note=61 velocity=31 time=8\n",
      "note_on channel=0 note=66 velocity=30 time=1\n",
      "note_on channel=0 note=70 velocity=30 time=4\n",
      "note_on channel=0 note=73 velocity=34 time=3\n",
      "note_on channel=0 note=82 velocity=35 time=1\n",
      "control_change channel=0 control=64 value=117 time=80\n",
      "note_on channel=0 note=70 velocity=0 time=13\n",
      "note_on channel=0 note=61 velocity=0 time=2\n",
      "note_on channel=0 note=73 velocity=0 time=0\n",
      "note_on channel=0 note=66 velocity=0 time=2\n",
      "note_on channel=0 note=82 velocity=0 time=4\n",
      "note_on channel=0 note=85 velocity=0 time=17\n",
      "control_change channel=0 control=64 value=112 time=50\n",
      "control_change channel=0 control=67 value=56 time=0\n",
      "note_on channel=0 note=85 velocity=51 time=13\n",
      "note_on channel=0 note=61 velocity=31 time=7\n",
      "note_on channel=0 note=66 velocity=31 time=1\n",
      "note_on channel=0 note=70 velocity=31 time=5\n",
      "note_on channel=0 note=73 velocity=35 time=5\n",
      "note_on channel=0 note=82 velocity=37 time=2\n",
      "control_change channel=0 control=64 value=117 time=72\n",
      "note_on channel=0 note=61 velocity=0 time=13\n",
      "note_on channel=0 note=70 velocity=0 time=4\n",
      "note_on channel=0 note=66 velocity=0 time=1\n",
      "note_on channel=0 note=73 velocity=0 time=2\n",
      "note_on channel=0 note=82 velocity=0 time=6\n",
      "note_on channel=0 note=85 velocity=0 time=25\n",
      "control_change channel=0 control=64 value=68 time=60\n",
      "control_change channel=0 control=67 value=57 time=0\n",
      "note_on channel=0 note=66 velocity=30 time=13\n",
      "note_on channel=0 note=70 velocity=30 time=0\n",
      "note_on channel=0 note=85 velocity=48 time=4\n",
      "note_on channel=0 note=61 velocity=30 time=1\n",
      "note_on channel=0 note=73 velocity=32 time=2\n",
      "control_change channel=0 control=64 value=20 time=6\n",
      "note_on channel=0 note=82 velocity=34 time=0\n",
      "control_change channel=0 control=64 value=112 time=68\n",
      "note_on channel=0 note=70 velocity=0 time=14\n",
      "note_on channel=0 note=61 velocity=0 time=4\n",
      "note_on channel=0 note=66 velocity=0 time=2\n",
      "note_on channel=0 note=73 velocity=0 time=9\n",
      "note_on channel=0 note=82 velocity=0 time=12\n",
      "note_on channel=0 note=85 velocity=0 time=13\n",
      "control_change channel=0 control=64 value=114 time=41\n",
      "control_change channel=0 control=67 value=65 time=0\n",
      "note_on channel=0 note=84 velocity=42 time=13\n",
      "note_on channel=0 note=60 velocity=30 time=2\n",
      "note_on channel=0 note=66 velocity=27 time=0\n",
      "note_on channel=0 note=70 velocity=26 time=1\n",
      "note_on channel=0 note=72 velocity=30 time=8\n",
      "note_on channel=0 note=78 velocity=29 time=4\n",
      "note_on channel=0 note=82 velocity=32 time=1\n",
      "control_change channel=0 control=64 value=121 time=62\n",
      "note_on channel=0 note=60 velocity=0 time=13\n",
      "note_on channel=0 note=70 velocity=0 time=2\n",
      "note_on channel=0 note=66 velocity=0 time=1\n",
      "note_on channel=0 note=72 velocity=0 time=8\n",
      "note_on channel=0 note=78 velocity=0 time=10\n",
      "note_on channel=0 note=82 velocity=0 time=10\n",
      "note_on channel=0 note=84 velocity=0 time=16\n",
      "control_change channel=0 control=64 value=115 time=15\n",
      "control_change channel=0 control=67 value=65 time=0\n",
      "note_on channel=0 note=84 velocity=49 time=14\n",
      "note_on channel=0 note=72 velocity=34 time=3\n",
      "note_on channel=0 note=60 velocity=31 time=1\n",
      "note_on channel=0 note=78 velocity=33 time=1\n",
      "note_on channel=0 note=66 velocity=30 time=1\n",
      "note_on channel=0 note=70 velocity=29 time=0\n",
      "note_on channel=0 note=82 velocity=36 time=3\n",
      "control_change channel=0 control=64 value=120 time=75\n",
      "note_on channel=0 note=60 velocity=0 time=13\n",
      "note_on channel=0 note=70 velocity=0 time=1\n",
      "note_on channel=0 note=72 velocity=0 time=1\n",
      "note_on channel=0 note=66 velocity=0 time=2\n",
      "note_on channel=0 note=78 velocity=0 time=3\n",
      "note_on channel=0 note=82 velocity=0 time=6\n",
      "note_on channel=0 note=84 velocity=0 time=16\n",
      "control_change channel=0 control=64 value=96 time=33\n",
      "control_change channel=0 control=67 value=68 time=0\n",
      "note_on channel=0 note=84 velocity=48 time=13\n",
      "note_on channel=0 note=70 velocity=28 time=13\n",
      "note_on channel=0 note=66 velocity=28 time=2\n",
      "note_on channel=0 note=60 velocity=28 time=4\n",
      "note_on channel=0 note=82 velocity=35 time=1\n",
      "note_on channel=0 note=78 velocity=31 time=1\n",
      "note_on channel=0 note=72 velocity=31 time=2\n",
      "control_change channel=0 control=64 value=110 time=118\n",
      "note_on channel=0 note=70 velocity=0 time=13\n",
      "note_on channel=0 note=60 velocity=0 time=4\n",
      "note_on channel=0 note=66 velocity=0 time=0\n",
      "note_on channel=0 note=72 velocity=0 time=8\n",
      "note_on channel=0 note=78 velocity=0 time=5\n",
      "note_on channel=0 note=82 velocity=0 time=2\n",
      "note_on channel=0 note=84 velocity=0 time=22\n",
      "control_change channel=0 control=64 value=96 time=88\n",
      "control_change channel=0 control=67 value=69 time=0\n",
      "note_on channel=0 note=61 velocity=30 time=14\n",
      "note_on channel=0 note=66 velocity=29 time=9\n",
      "note_on channel=0 note=70 velocity=27 time=5\n",
      "note_on channel=0 note=85 velocity=45 time=2\n",
      "note_on channel=0 note=73 velocity=33 time=2\n",
      "note_on channel=0 note=82 velocity=35 time=4\n",
      "control_change channel=0 control=64 value=107 time=128\n",
      "note_on channel=0 note=70 velocity=0 time=13\n",
      "note_on channel=0 note=61 velocity=0 time=8\n",
      "note_on channel=0 note=66 velocity=0 time=0\n",
      "note_on channel=0 note=73 velocity=0 time=7\n",
      "note_on channel=0 note=82 velocity=0 time=16\n",
      "note_on channel=0 note=85 velocity=0 time=25\n",
      "control_change channel=0 control=64 value=100 time=53\n",
      "control_change channel=0 control=67 value=84 time=0\n",
      "note_on channel=0 note=82 velocity=40 time=14\n",
      "note_on channel=0 note=66 velocity=26 time=7\n",
      "note_on channel=0 note=61 velocity=25 time=4\n",
      "note_on channel=0 note=78 velocity=31 time=6\n",
      "note_on channel=0 note=58 velocity=26 time=6\n",
      "note_on channel=0 note=70 velocity=30 time=20\n",
      "control_change channel=0 control=64 value=121 time=369\n",
      "note_on channel=0 note=58 velocity=0 time=13\n",
      "note_on channel=0 note=61 velocity=0 time=5\n",
      "note_on channel=0 note=66 velocity=0 time=6\n",
      "note_on channel=0 note=78 velocity=0 time=12\n",
      "note_on channel=0 note=82 velocity=0 time=24\n",
      "note_on channel=0 note=70 velocity=0 time=15\n",
      "control_change channel=0 control=64 value=89 time=405\n",
      "control_change channel=0 control=67 value=74 time=0\n",
      "note_on channel=0 note=39 velocity=31 time=13\n",
      "note_on channel=0 note=46 velocity=37 time=33\n",
      "note_on channel=0 note=27 velocity=32 time=5\n",
      "control_change channel=0 control=64 value=111 time=324\n",
      "note_on channel=0 note=39 velocity=0 time=13\n",
      "note_on channel=0 note=27 velocity=0 time=25\n",
      "control_change channel=0 control=64 value=127 time=71\n",
      "control_change channel=0 control=67 value=63 time=0\n",
      "note_on channel=0 note=89 velocity=48 time=14\n",
      "note_on channel=0 note=66 velocity=23 time=14\n",
      "note_on channel=0 note=70 velocity=22 time=0\n",
      "note_on channel=0 note=65 velocity=25 time=3\n",
      "note_on channel=0 note=77 velocity=32 time=3\n",
      "note_on channel=0 note=82 velocity=31 time=5\n",
      "control_change channel=0 control=64 value=114 time=153\n",
      "note_on channel=0 note=46 velocity=0 time=13\n",
      "note_on channel=0 note=70 velocity=0 time=64\n",
      "note_on channel=0 note=66 velocity=0 time=31\n",
      "note_on channel=0 note=77 velocity=0 time=10\n",
      "note_on channel=0 note=65 velocity=0 time=7\n",
      "note_on channel=0 note=82 velocity=0 time=12\n",
      "note_on channel=0 note=89 velocity=0 time=107\n",
      "control_change channel=0 control=64 value=127 time=113\n",
      "control_change channel=0 control=67 value=48 time=0\n",
      "note_on channel=0 note=90 velocity=55 time=13\n",
      "note_on channel=0 note=78 velocity=42 time=20\n",
      "note_on channel=0 note=82 velocity=42 time=1\n",
      "note_on channel=0 note=75 velocity=29 time=5\n",
      "note_on channel=0 note=66 velocity=34 time=1\n",
      "note_on channel=0 note=70 velocity=30 time=1\n",
      "control_change channel=0 control=64 value=125 time=92\n",
      "note_on channel=0 note=78 velocity=0 time=14\n",
      "note_on channel=0 note=66 velocity=0 time=7\n",
      "note_on channel=0 note=75 velocity=0 time=3\n",
      "note_on channel=0 note=82 velocity=0 time=1\n",
      "note_on channel=0 note=70 velocity=0 time=2\n",
      "note_on channel=0 note=90 velocity=0 time=33\n",
      "control_change channel=0 control=64 value=121 time=21\n",
      "control_change channel=0 control=67 value=27 time=0\n",
      "note_on channel=0 note=89 velocity=65 time=13\n",
      "note_on channel=0 note=77 velocity=45 time=3\n",
      "note_on channel=0 note=82 velocity=45 time=9\n",
      "note_on channel=0 note=65 velocity=36 time=2\n",
      "note_on channel=0 note=66 velocity=33 time=3\n",
      "note_on channel=0 note=70 velocity=31 time=0\n",
      "note_on channel=0 note=77 velocity=0 time=87\n",
      "note_on channel=0 note=82 velocity=0 time=4\n",
      "note_on channel=0 note=89 velocity=0 time=19\n",
      "note_on channel=0 note=65 velocity=0 time=4\n",
      "note_on channel=0 note=70 velocity=0 time=4\n",
      "note_on channel=0 note=66 velocity=0 time=3\n",
      "control_change channel=0 control=64 value=68 time=48\n",
      "control_change channel=0 control=67 value=22 time=0\n",
      "note_on channel=0 note=87 velocity=67 time=13\n",
      "note_on channel=0 note=75 velocity=48 time=9\n",
      "control_change channel=0 control=64 value=20 time=5\n",
      "note_on channel=0 note=82 velocity=48 time=1\n",
      "note_on channel=0 note=63 velocity=37 time=3\n",
      "note_on channel=0 note=66 velocity=36 time=1\n",
      "note_on channel=0 note=70 velocity=36 time=1\n",
      "control_change channel=0 control=64 value=104 time=51\n",
      "note_on channel=0 note=75 velocity=0 time=13\n",
      "note_on channel=0 note=82 velocity=0 time=7\n",
      "note_on channel=0 note=63 velocity=0 time=11\n",
      "note_on channel=0 note=70 velocity=0 time=1\n",
      "note_on channel=0 note=66 velocity=0 time=4\n",
      "note_on channel=0 note=87 velocity=0 time=5\n",
      "control_change channel=0 control=64 value=68 time=39\n",
      "control_change channel=0 control=67 value=22 time=0\n",
      "note_on channel=0 note=89 velocity=66 time=13\n",
      "note_on channel=0 note=77 velocity=50 time=5\n",
      "note_on channel=0 note=65 velocity=37 time=5\n",
      "note_on channel=0 note=66 velocity=35 time=0\n",
      "note_on channel=0 note=70 velocity=35 time=1\n",
      "control_change channel=0 control=64 value=20 time=2\n",
      "note_on channel=0 note=82 velocity=48 time=2\n",
      "control_change channel=0 control=64 value=107 time=59\n",
      "note_on channel=0 note=77 velocity=0 time=13\n",
      "note_on channel=0 note=70 velocity=0 time=4\n",
      "note_on channel=0 note=82 velocity=0 time=6\n",
      "note_on channel=0 note=65 velocity=0 time=2\n",
      "note_on channel=0 note=66 velocity=0 time=2\n",
      "note_on channel=0 note=89 velocity=0 time=27\n",
      "control_change channel=0 control=64 value=68 time=20\n",
      "control_change channel=0 control=67 value=20 time=0\n",
      "note_on channel=0 note=87 velocity=70 time=14\n",
      "note_on channel=0 note=66 velocity=36 time=9\n",
      "note_on channel=0 note=63 velocity=37 time=1\n",
      "note_on channel=0 note=75 velocity=50 time=2\n",
      "control_change channel=0 control=64 value=20 time=1\n",
      "note_on channel=0 note=70 velocity=38 time=0\n",
      "note_on channel=0 note=82 velocity=48 time=7\n",
      "control_change channel=0 control=64 value=114 time=50\n",
      "note_on channel=0 note=70 velocity=0 time=13\n",
      "note_on channel=0 note=75 velocity=0 time=2\n",
      "note_on channel=0 note=82 velocity=0 time=9\n",
      "note_on channel=0 note=66 velocity=0 time=1\n",
      "note_on channel=0 note=63 velocity=0 time=2\n",
      "note_on channel=0 note=87 velocity=0 time=37\n",
      "control_change channel=0 control=64 value=68 time=32\n",
      "control_change channel=0 control=67 value=23 time=0\n",
      "note_on channel=0 note=70 velocity=37 time=13\n",
      "note_on channel=0 note=66 velocity=36 time=3\n",
      "note_on channel=0 note=85 velocity=67 time=5\n",
      "note_on channel=0 note=61 velocity=36 time=2\n",
      "note_on channel=0 note=73 velocity=42 time=0\n",
      "control_change channel=0 control=64 value=20 time=4\n",
      "note_on channel=0 note=82 velocity=46 time=5\n",
      "control_change channel=0 control=64 value=110 time=58\n",
      "note_on channel=0 note=70 velocity=0 time=13\n",
      "note_on channel=0 note=73 velocity=0 time=10\n",
      "note_on channel=0 note=66 velocity=0 time=4\n",
      "note_on channel=0 note=61 velocity=0 time=6\n",
      "note_on channel=0 note=82 velocity=0 time=0\n",
      "note_on channel=0 note=85 velocity=0 time=12\n",
      "control_change channel=0 control=64 value=68 time=55\n",
      "control_change channel=0 control=67 value=27 time=0\n",
      "note_on channel=0 note=87 velocity=67 time=13\n",
      "note_on channel=0 note=75 velocity=51 time=9\n",
      "note_on channel=0 note=70 velocity=34 time=1\n",
      "control_change channel=0 control=64 value=20 time=3\n",
      "note_on channel=0 note=63 velocity=36 time=0\n",
      "note_on channel=0 note=66 velocity=34 time=0\n",
      "note_on channel=0 note=82 velocity=49 time=7\n",
      "control_change channel=0 control=64 value=110 time=60\n",
      "note_on channel=0 note=70 velocity=0 time=13\n",
      "note_on channel=0 note=75 velocity=0 time=1\n",
      "note_on channel=0 note=82 velocity=0 time=8\n",
      "note_on channel=0 note=63 velocity=0 time=3\n",
      "note_on channel=0 note=66 velocity=0 time=2\n",
      "note_on channel=0 note=87 velocity=0 time=32\n",
      "control_change channel=0 control=64 value=68 time=20\n",
      "control_change channel=0 control=67 value=28 time=0\n",
      "note_on channel=0 note=73 velocity=54 time=13\n",
      "note_on channel=0 note=85 velocity=75 time=4\n",
      "note_on channel=0 note=70 velocity=39 time=3\n",
      "note_on channel=0 note=61 velocity=37 time=1\n",
      "note_on channel=0 note=66 velocity=36 time=2\n",
      "control_change channel=0 control=64 value=20 time=4\n",
      "note_on channel=0 note=82 velocity=51 time=0\n",
      "control_change channel=0 control=64 value=103 time=52\n",
      "note_on channel=0 note=70 velocity=0 time=13\n",
      "note_on channel=0 note=73 velocity=0 time=11\n",
      "note_on channel=0 note=66 velocity=0 time=6\n",
      "note_on channel=0 note=82 velocity=0 time=1\n",
      "note_on channel=0 note=61 velocity=0 time=3\n",
      "note_on channel=0 note=85 velocity=0 time=50\n",
      "control_change channel=0 control=64 value=96 time=31\n",
      "control_change channel=0 control=67 value=26 time=0\n",
      "note_on channel=0 note=84 velocity=71 time=13\n",
      "note_on channel=0 note=82 velocity=50 time=14\n",
      "note_on channel=0 note=70 velocity=38 time=5\n",
      "note_on channel=0 note=66 velocity=35 time=5\n",
      "note_on channel=0 note=60 velocity=35 time=1\n",
      "control_change channel=0 control=64 value=111 time=103\n",
      "note_on channel=0 note=70 velocity=0 time=14\n",
      "note_on channel=0 note=66 velocity=0 time=38\n",
      "note_on channel=0 note=82 velocity=0 time=13\n",
      "note_on channel=0 note=60 velocity=0 time=4\n",
      "note_on channel=0 note=84 velocity=0 time=82\n",
      "control_change channel=0 control=64 value=114 time=42\n",
      "control_change channel=0 control=67 value=21 time=0\n",
      "note_on channel=0 note=61 velocity=38 time=13\n",
      "note_on channel=0 note=66 velocity=37 time=20\n",
      "note_on channel=0 note=70 velocity=37 time=0\n",
      "note_on channel=0 note=87 velocity=68 time=1\n",
      "note_on channel=0 note=73 velocity=50 time=1\n",
      "note_on channel=0 note=82 velocity=52 time=34\n",
      "note_on channel=0 note=85 velocity=68 time=1\n",
      "note_on channel=0 note=87 velocity=0 time=0\n",
      "control_change channel=0 control=64 value=106 time=103\n",
      "note_on channel=0 note=70 velocity=0 time=13\n",
      "note_on channel=0 note=73 velocity=0 time=20\n",
      "note_on channel=0 note=66 velocity=0 time=22\n",
      "note_on channel=0 note=61 velocity=0 time=13\n",
      "note_on channel=0 note=82 velocity=0 time=26\n",
      "control_change channel=0 control=64 value=108 time=97\n",
      "control_change channel=0 control=67 value=35 time=0\n",
      "note_on channel=0 note=85 velocity=0 time=10\n",
      "note_on channel=0 note=58 velocity=36 time=3\n",
      "note_on channel=0 note=66 velocity=35 time=1\n",
      "note_on channel=0 note=63 velocity=34 time=3\n",
      "note_on channel=0 note=82 velocity=64 time=12\n",
      "note_on channel=0 note=78 velocity=47 time=1\n",
      "note_on channel=0 note=70 velocity=41 time=8\n",
      "control_change channel=0 control=64 value=116 time=242\n",
      "note_on channel=0 note=66 velocity=0 time=13\n",
      "note_on channel=0 note=63 velocity=0 time=5\n",
      "note_on channel=0 note=58 velocity=0 time=18\n",
      "control_change channel=0 control=64 value=109 time=178\n",
      "note_on channel=0 note=70 velocity=0 time=13\n",
      "note_on channel=0 note=78 velocity=0 time=55\n",
      "note_on channel=0 note=82 velocity=0 time=216\n",
      "control_change channel=0 control=64 value=68 time=32\n",
      "control_change channel=0 control=67 value=34 time=0\n",
      "control_change channel=0 control=64 value=20 time=13\n",
      "note_on channel=0 note=44 velocity=45 time=0\n",
      "note_on channel=0 note=32 velocity=46 time=15\n",
      "control_change channel=0 control=64 value=107 time=289\n",
      "note_on channel=0 note=44 velocity=0 time=14\n",
      "control_change channel=0 control=64 value=114 time=15\n",
      "control_change channel=0 control=67 value=19 time=0\n",
      "note_on channel=0 note=32 velocity=0 time=14\n",
      "note_on channel=0 note=78 velocity=64 time=0\n",
      "note_on channel=0 note=66 velocity=50 time=5\n",
      "note_on channel=0 note=54 velocity=39 time=6\n",
      "control_change channel=0 control=64 value=108 time=182\n",
      "note_on channel=0 note=54 velocity=0 time=13\n",
      "control_change channel=0 control=64 value=68 time=63\n",
      "control_change channel=0 control=67 value=11 time=0\n",
      "note_on channel=0 note=66 velocity=0 time=6\n",
      "note_on channel=0 note=60 velocity=46 time=7\n",
      "note_on channel=0 note=80 velocity=72 time=5\n",
      "note_on channel=0 note=56 velocity=45 time=5\n",
      "control_change channel=0 control=64 value=20 time=4\n",
      "note_on channel=0 note=63 velocity=44 time=0\n",
      "note_on channel=0 note=68 velocity=50 time=4\n",
      "note_on channel=0 note=75 velocity=55 time=0\n",
      "note_on channel=0 note=78 velocity=0 time=79\n",
      "control_change channel=0 control=64 value=107 time=30\n",
      "note_on channel=0 note=68 velocity=0 time=13\n",
      "note_on channel=0 note=75 velocity=0 time=31\n",
      "note_on channel=0 note=80 velocity=0 time=58\n",
      "note_on channel=0 note=56 velocity=0 time=19\n",
      "control_change channel=0 control=64 value=116 time=1\n",
      "control_change channel=0 control=67 value=5 time=0\n",
      "note_on channel=0 note=84 velocity=74 time=13\n",
      "note_on channel=0 note=72 velocity=55 time=8\n",
      "note_on channel=0 note=63 velocity=0 time=6\n",
      "note_on channel=0 note=60 velocity=45 time=1\n",
      "note_on channel=0 note=60 velocity=0 time=40\n",
      "note_on channel=0 note=72 velocity=0 time=111\n",
      "note_on channel=0 note=60 velocity=0 time=24\n",
      "note_on channel=0 note=84 velocity=0 time=22\n",
      "control_change channel=0 control=64 value=102 time=10\n",
      "control_change channel=0 control=67 value=12 time=0\n",
      "note_on channel=0 note=63 velocity=45 time=13\n",
      "note_on channel=0 note=58 velocity=45 time=2\n",
      "note_on channel=0 note=66 velocity=45 time=3\n",
      "note_on channel=0 note=82 velocity=74 time=8\n",
      "note_on channel=0 note=70 velocity=49 time=2\n",
      "note_on channel=0 note=78 velocity=53 time=12\n",
      "control_change channel=0 control=64 value=104 time=127\n",
      "note_on channel=0 note=70 velocity=0 time=13\n",
      "note_on channel=0 note=78 velocity=0 time=15\n",
      "note_on channel=0 note=58 velocity=0 time=21\n",
      "control_change channel=0 control=64 value=68 time=45\n",
      "control_change channel=0 control=67 value=19 time=0\n",
      "control_change channel=0 control=64 value=20 time=13\n",
      "note_on channel=0 note=78 velocity=65 time=0\n",
      "note_on channel=0 note=82 velocity=0 time=1\n",
      "control_change channel=0 control=64 value=106 time=7\n",
      "note_on channel=0 note=66 velocity=47 time=0\n",
      "note_on channel=0 note=54 velocity=45 time=5\n",
      "note_on channel=0 note=63 velocity=0 time=8\n",
      "note_on channel=0 note=66 velocity=0 time=0\n",
      "note_on channel=0 note=66 velocity=0 time=149\n",
      "note_on channel=0 note=54 velocity=0 time=8\n",
      "note_on channel=0 note=78 velocity=0 time=80\n",
      "control_change channel=0 control=64 value=68 time=37\n",
      "control_change channel=0 control=67 value=29 time=0\n",
      "note_on channel=0 note=45 velocity=50 time=13\n",
      "control_change channel=0 control=64 value=20 time=13\n",
      "note_on channel=0 note=33 velocity=49 time=2\n",
      "control_change channel=0 control=64 value=68 time=232\n",
      "control_change channel=0 control=67 value=14 time=0\n",
      "note_on channel=0 note=78 velocity=60 time=13\n",
      "note_on channel=0 note=60 velocity=43 time=3\n",
      "note_on channel=0 note=63 velocity=43 time=0\n",
      "note_on channel=0 note=54 velocity=45 time=2\n",
      "control_change channel=0 control=64 value=20 time=8\n",
      "note_on channel=0 note=72 velocity=52 time=0\n",
      "control_change channel=0 control=64 value=101 time=1\n",
      "note_on channel=0 note=66 velocity=49 time=1\n",
      "note_on channel=0 note=75 velocity=50 time=5\n",
      "note_on channel=0 note=33 velocity=0 time=7\n",
      "note_on channel=0 note=45 velocity=0 time=47\n",
      "control_change channel=0 control=64 value=114 time=6\n",
      "note_on channel=0 note=66 velocity=0 time=13\n",
      "note_on channel=0 note=63 velocity=0 time=3\n",
      "note_on channel=0 note=54 velocity=0 time=5\n",
      "note_on channel=0 note=60 velocity=0 time=1\n",
      "note_on channel=0 note=75 velocity=0 time=6\n",
      "note_on channel=0 note=72 velocity=0 time=1\n",
      "note_on channel=0 note=78 velocity=0 time=42\n",
      "control_change channel=0 control=64 value=117 time=9\n",
      "control_change channel=0 control=67 value=11 time=0\n",
      "note_on channel=0 note=54 velocity=45 time=13\n",
      "note_on channel=0 note=60 velocity=44 time=3\n",
      "note_on channel=0 note=63 velocity=45 time=3\n",
      "note_on channel=0 note=66 velocity=54 time=2\n",
      "note_on channel=0 note=72 velocity=53 time=2\n",
      "note_on channel=0 note=78 velocity=71 time=0\n",
      "note_on channel=0 note=75 velocity=54 time=7\n",
      "control_change channel=0 control=64 value=115 time=59\n",
      "note_on channel=0 note=54 velocity=0 time=13\n",
      "note_on channel=0 note=66 velocity=0 time=4\n",
      "note_on channel=0 note=75 velocity=0 time=1\n",
      "note_on channel=0 note=60 velocity=0 time=1\n",
      "note_on channel=0 note=63 velocity=0 time=0\n",
      "note_on channel=0 note=72 velocity=0 time=1\n",
      "note_on channel=0 note=78 velocity=0 time=32\n",
      "control_change channel=0 control=64 value=68 time=39\n",
      "control_change channel=0 control=67 value=12 time=0\n",
      "note_on channel=0 note=78 velocity=74 time=13\n",
      "note_on channel=0 note=63 velocity=47 time=12\n",
      "note_on channel=0 note=60 velocity=46 time=1\n",
      "control_change channel=0 control=64 value=20 time=1\n",
      "note_on channel=0 note=72 velocity=55 time=0\n",
      "note_on channel=0 note=75 velocity=55 time=0\n",
      "note_on channel=0 note=66 velocity=54 time=2\n",
      "note_on channel=0 note=54 velocity=46 time=1\n",
      "control_change channel=0 control=64 value=110 time=52\n",
      "note_on channel=0 note=75 velocity=0 time=13\n",
      "note_on channel=0 note=66 velocity=0 time=4\n",
      "note_on channel=0 note=72 velocity=0 time=3\n",
      "note_on channel=0 note=63 velocity=0 time=2\n",
      "note_on channel=0 note=60 velocity=0 time=5\n",
      "note_on channel=0 note=54 velocity=0 time=2\n",
      "note_on channel=0 note=78 velocity=0 time=28\n",
      "control_change channel=0 control=64 value=68 time=37\n",
      "control_change channel=0 control=67 value=14 time=0\n",
      "note_on channel=0 note=78 velocity=70 time=13\n",
      "note_on channel=0 note=66 velocity=54 time=4\n",
      "note_on channel=0 note=54 velocity=46 time=1\n",
      "note_on channel=0 note=60 velocity=45 time=1\n",
      "note_on channel=0 note=63 velocity=46 time=0\n",
      "note_on channel=0 note=72 velocity=54 time=0\n",
      "note_on channel=0 note=75 velocity=54 time=2\n",
      "control_change channel=0 control=64 value=20 time=5\n",
      "control_change channel=0 control=64 value=110 time=56\n",
      "note_on channel=0 note=75 velocity=0 time=13\n",
      "note_on channel=0 note=66 velocity=0 time=3\n",
      "note_on channel=0 note=72 velocity=0 time=2\n",
      "note_on channel=0 note=63 velocity=0 time=1\n",
      "note_on channel=0 note=54 velocity=0 time=3\n",
      "note_on channel=0 note=60 velocity=0 time=1\n",
      "note_on channel=0 note=78 velocity=0 time=23\n",
      "control_change channel=0 control=64 value=68 time=32\n",
      "control_change channel=0 control=67 value=14 time=0\n",
      "control_change channel=0 control=64 value=20 time=13\n",
      "note_on channel=0 note=56 velocity=48 time=0\n",
      "note_on channel=0 note=80 velocity=71 time=1\n",
      "note_on channel=0 note=68 velocity=54 time=3\n",
      "note_on channel=0 note=72 velocity=54 time=3\n",
      "note_on channel=0 note=60 velocity=46 time=3\n",
      "note_on channel=0 note=75 velocity=56 time=0\n",
      "note_on channel=0 note=63 velocity=47 time=1\n",
      "note_on channel=0 note=68 velocity=0 time=85\n",
      "note_on channel=0 note=63 velocity=0 time=2\n",
      "note_on channel=0 note=72 velocity=0 time=4\n",
      "note_on channel=0 note=75 velocity=0 time=0\n",
      "note_on channel=0 note=60 velocity=0 time=3\n",
      "note_on channel=0 note=56 velocity=0 time=1\n",
      "note_on channel=0 note=80 velocity=0 time=36\n",
      "control_change channel=0 control=64 value=116 time=7\n",
      "control_change channel=0 control=67 value=20 time=0\n",
      "note_on channel=0 note=78 velocity=66 time=13\n",
      "note_on channel=0 note=54 velocity=51 time=3\n",
      "note_on channel=0 note=72 velocity=51 time=2\n",
      "note_on channel=0 note=60 velocity=49 time=3\n",
      "note_on channel=0 note=63 velocity=49 time=2\n",
      "note_on channel=0 note=75 velocity=53 time=0\n",
      "note_on channel=0 note=66 velocity=52 time=7\n",
      "control_change channel=0 control=64 value=112 time=339\n",
      "note_on channel=0 note=66 velocity=0 time=13\n",
      "note_on channel=0 note=72 velocity=0 time=5\n",
      "note_on channel=0 note=54 velocity=0 time=3\n",
      "note_on channel=0 note=63 velocity=0 time=1\n",
      "note_on channel=0 note=60 velocity=0 time=13\n",
      "note_on channel=0 note=75 velocity=0 time=3\n",
      "note_on channel=0 note=78 velocity=0 time=146\n",
      "control_change channel=0 control=64 value=100 time=36\n",
      "control_change channel=0 control=67 value=22 time=0\n",
      "note_on channel=0 note=46 velocity=54 time=13\n",
      "note_on channel=0 note=34 velocity=52 time=29\n",
      "control_change channel=0 control=64 value=109 time=307\n",
      "note_on channel=0 note=34 velocity=0 time=13\n",
      "control_change channel=0 control=64 value=109 time=55\n",
      "control_change channel=0 control=67 value=9 time=0\n",
      "note_on channel=0 note=58 velocity=47 time=13\n",
      "note_on channel=0 note=54 velocity=46 time=7\n",
      "note_on channel=0 note=61 velocity=46 time=1\n",
      "note_on channel=0 note=46 velocity=0 time=11\n",
      "note_on channel=0 note=66 velocity=49 time=0\n",
      "note_on channel=0 note=78 velocity=57 time=0\n",
      "note_on channel=0 note=73 velocity=59 time=4\n",
      "control_change channel=0 control=64 value=115 time=153\n",
      "note_on channel=0 note=54 velocity=0 time=13\n",
      "note_on channel=0 note=66 velocity=0 time=71\n",
      "control_change channel=0 control=64 value=126 time=63\n",
      "control_change channel=0 control=67 value=2 time=0\n",
      "note_on channel=0 note=80 velocity=68 time=13\n",
      "note_on channel=0 note=56 velocity=46 time=12\n",
      "note_on channel=0 note=78 velocity=0 time=2\n",
      "note_on channel=0 note=68 velocity=52 time=2\n",
      "note_on channel=0 note=61 velocity=0 time=117\n",
      "control_change channel=0 control=64 value=118 time=1\n",
      "note_on channel=0 note=56 velocity=0 time=13\n",
      "note_on channel=0 note=73 velocity=0 time=2\n",
      "note_on channel=0 note=58 velocity=0 time=1\n",
      "note_on channel=0 note=68 velocity=0 time=11\n",
      "note_on channel=0 note=80 velocity=0 time=78\n",
      "control_change channel=0 control=64 value=126 time=19\n",
      "control_change channel=0 control=67 value=0 time=0\n",
      "note_on channel=0 note=85 velocity=72 time=13\n",
      "note_on channel=0 note=61 velocity=48 time=10\n",
      "note_on channel=0 note=73 velocity=55 time=6\n",
      "note_on channel=0 note=61 velocity=0 time=113\n",
      "note_on channel=0 note=73 velocity=0 time=30\n",
      "control_change channel=0 control=64 value=126 time=59\n",
      "control_change channel=0 control=67 value=1 time=0\n",
      "note_on channel=0 note=58 velocity=50 time=13\n",
      "note_on channel=0 note=85 velocity=0 time=0\n",
      "note_on channel=0 note=61 velocity=51 time=14\n",
      "note_on channel=0 note=66 velocity=50 time=9\n",
      "note_on channel=0 note=82 velocity=72 time=3\n",
      "note_on channel=0 note=70 velocity=54 time=2\n",
      "note_on channel=0 note=78 velocity=65 time=5\n",
      "control_change channel=0 control=64 value=115 time=119\n",
      "note_on channel=0 note=58 velocity=0 time=13\n",
      "note_on channel=0 note=70 velocity=0 time=15\n",
      "control_change channel=0 control=64 value=110 time=65\n",
      "control_change channel=0 control=64 value=127 time=0\n",
      "control_change channel=0 control=67 value=5 time=0\n",
      "note_on channel=0 note=82 velocity=0 time=4\n",
      "note_on channel=0 note=61 velocity=0 time=9\n",
      "note_on channel=0 note=78 velocity=69 time=0\n",
      "note_on channel=0 note=66 velocity=53 time=6\n",
      "note_on channel=0 note=54 velocity=51 time=1\n",
      "note_on channel=0 note=66 velocity=0 time=9\n",
      "note_on channel=0 note=78 velocity=0 time=54\n",
      "note_on channel=0 note=66 velocity=0 time=83\n",
      "note_on channel=0 note=54 velocity=0 time=16\n",
      "note_on channel=0 note=78 velocity=0 time=55\n",
      "control_change channel=0 control=64 value=68 time=52\n",
      "control_change channel=0 control=67 value=14 time=0\n",
      "note_on channel=0 note=48 velocity=57 time=13\n",
      "note_on channel=0 note=36 velocity=54 time=4\n",
      "control_change channel=0 control=64 value=20 time=10\n",
      "control_change channel=0 control=64 value=120 time=216\n",
      "control_change channel=0 control=67 value=4 time=0\n",
      "note_on channel=0 note=54 velocity=47 time=14\n",
      "note_on channel=0 note=58 velocity=45 time=0\n",
      "note_on channel=0 note=63 velocity=46 time=1\n",
      "note_on channel=0 note=66 velocity=51 time=12\n",
      "note_on channel=0 note=78 velocity=59 time=1\n",
      "note_on channel=0 note=70 velocity=51 time=2\n",
      "note_on channel=0 note=75 velocity=48 time=12\n",
      "control_change channel=0 control=64 value=103 time=8\n",
      "note_on channel=0 note=36 velocity=0 time=13\n",
      "control_change channel=0 control=64 value=119 time=12\n",
      "note_on channel=0 note=58 velocity=0 time=13\n",
      "note_on channel=0 note=63 velocity=0 time=0\n",
      "note_on channel=0 note=54 velocity=0 time=1\n",
      "note_on channel=0 note=66 velocity=0 time=10\n",
      "note_on channel=0 note=70 velocity=0 time=7\n",
      "note_on channel=0 note=75 velocity=0 time=0\n",
      "note_on channel=0 note=48 velocity=0 time=6\n",
      "note_on channel=0 note=78 velocity=0 time=25\n",
      "control_change channel=0 control=64 value=125 time=32\n",
      "control_change channel=0 control=67 value=2 time=0\n",
      "note_on channel=0 note=54 velocity=47 time=13\n",
      "note_on channel=0 note=58 velocity=46 time=0\n",
      "note_on channel=0 note=63 velocity=48 time=2\n",
      "note_on channel=0 note=66 velocity=56 time=2\n",
      "note_on channel=0 note=70 velocity=53 time=3\n",
      "note_on channel=0 note=78 velocity=70 time=0\n",
      "note_on channel=0 note=75 velocity=54 time=8\n",
      "control_change channel=0 control=64 value=120 time=44\n",
      "note_on channel=0 note=54 velocity=0 time=13\n",
      "note_on channel=0 note=58 velocity=0 time=2\n",
      "note_on channel=0 note=63 velocity=0 time=2\n",
      "note_on channel=0 note=66 velocity=0 time=6\n",
      "note_on channel=0 note=70 velocity=0 time=1\n",
      "note_on channel=0 note=75 velocity=0 time=1\n",
      "note_on channel=0 note=78 velocity=0 time=29\n",
      "control_change channel=0 control=64 value=68 time=39\n",
      "control_change channel=0 control=67 value=4 time=0\n",
      "note_on channel=0 note=78 velocity=72 time=14\n",
      "note_on channel=0 note=58 velocity=48 time=6\n",
      "note_on channel=0 note=63 velocity=50 time=2\n",
      "note_on channel=0 note=54 velocity=49 time=1\n",
      "note_on channel=0 note=75 velocity=55 time=1\n",
      "note_on channel=0 note=70 velocity=54 time=1\n",
      "control_change channel=0 control=64 value=20 time=2\n",
      "note_on channel=0 note=66 velocity=54 time=3\n",
      "control_change channel=0 control=64 value=115 time=55\n",
      "note_on channel=0 note=58 velocity=0 time=13\n",
      "note_on channel=0 note=63 velocity=0 time=1\n",
      "note_on channel=0 note=75 velocity=0 time=0\n",
      "note_on channel=0 note=54 velocity=0 time=1\n",
      "note_on channel=0 note=66 velocity=0 time=6\n",
      "note_on channel=0 note=70 velocity=0 time=0\n",
      "note_on channel=0 note=78 velocity=0 time=36\n",
      "control_change channel=0 control=64 value=121 time=45\n",
      "control_change channel=0 control=67 value=5 time=0\n",
      "note_on channel=0 note=58 velocity=47 time=14\n",
      "note_on channel=0 note=63 velocity=48 time=0\n",
      "note_on channel=0 note=66 velocity=55 time=0\n",
      "note_on channel=0 note=78 velocity=67 time=0\n",
      "note_on channel=0 note=70 velocity=53 time=1\n",
      "note_on channel=0 note=54 velocity=48 time=1\n",
      "note_on channel=0 note=75 velocity=54 time=2\n",
      "control_change channel=0 control=64 value=119 time=70\n",
      "note_on channel=0 note=63 velocity=0 time=13\n",
      "note_on channel=0 note=75 velocity=0 time=0\n",
      "note_on channel=0 note=58 velocity=0 time=4\n",
      "note_on channel=0 note=70 velocity=0 time=0\n",
      "note_on channel=0 note=66 velocity=0 time=2\n",
      "note_on channel=0 note=54 velocity=0 time=2\n",
      "note_on channel=0 note=78 velocity=0 time=26\n",
      "control_change channel=0 control=64 value=122 time=32\n",
      "control_change channel=0 control=67 value=5 time=0\n",
      "note_on channel=0 note=56 velocity=51 time=13\n",
      "note_on channel=0 note=68 velocity=56 time=10\n",
      "note_on channel=0 note=80 velocity=72 time=0\n",
      "note_on channel=0 note=60 velocity=49 time=1\n",
      "note_on channel=0 note=65 velocity=50 time=0\n",
      "note_on channel=0 note=72 velocity=56 time=4\n",
      "note_on channel=0 note=77 velocity=57 time=5\n",
      "note_on channel=0 note=65 velocity=0 time=89\n",
      "note_on channel=0 note=68 velocity=0 time=7\n",
      "note_on channel=0 note=60 velocity=0 time=1\n",
      "note_on channel=0 note=56 velocity=0 time=1\n",
      "note_on channel=0 note=77 velocity=0 time=5\n",
      "note_on channel=0 note=72 velocity=0 time=2\n",
      "note_on channel=0 note=80 velocity=0 time=43\n",
      "control_change channel=0 control=64 value=118 time=6\n",
      "control_change channel=0 control=67 value=8 time=0\n",
      "note_on channel=0 note=78 velocity=66 time=13\n",
      "note_on channel=0 note=63 velocity=50 time=13\n",
      "note_on channel=0 note=58 velocity=51 time=1\n",
      "note_on channel=0 note=70 velocity=52 time=1\n",
      "note_on channel=0 note=75 velocity=54 time=0\n",
      "note_on channel=0 note=54 velocity=53 time=3\n",
      "note_on channel=0 note=66 velocity=52 time=10\n",
      "control_change channel=0 control=64 value=113 time=360\n",
      "note_on channel=0 note=54 velocity=0 time=14\n",
      "note_on channel=0 note=75 velocity=0 time=0\n",
      "note_on channel=0 note=58 velocity=0 time=1\n",
      "note_on channel=0 note=63 velocity=0 time=12\n",
      "note_on channel=0 note=70 velocity=0 time=5\n",
      "note_on channel=0 note=66 velocity=0 time=9\n",
      "note_on channel=0 note=78 velocity=0 time=121\n",
      "control_change channel=0 control=64 value=104 time=115\n",
      "control_change channel=0 control=67 value=10 time=0\n",
      "note_on channel=0 note=49 velocity=55 time=13\n",
      "note_on channel=0 note=37 velocity=53 time=19\n",
      "control_change channel=0 control=64 value=116 time=242\n",
      "note_on channel=0 note=37 velocity=0 time=13\n",
      "note_on channel=0 note=49 velocity=0 time=55\n",
      "control_change channel=0 control=64 value=68 time=15\n",
      "control_change channel=0 control=67 value=2 time=0\n",
      "note_on channel=0 note=66 velocity=51 time=13\n",
      "note_on channel=0 note=54 velocity=47 time=8\n",
      "note_on channel=0 note=58 velocity=49 time=0\n",
      "note_on channel=0 note=78 velocity=59 time=2\n",
      "control_change channel=0 control=64 value=20 time=3\n",
      "note_on channel=0 note=70 velocity=54 time=1\n",
      "note_on channel=0 note=61 velocity=49 time=1\n",
      "note_on channel=0 note=73 velocity=60 time=6\n",
      "control_change channel=0 control=64 value=121 time=109\n",
      "note_on channel=0 note=54 velocity=0 time=13\n",
      "note_on channel=0 note=66 velocity=0 time=62\n",
      "note_on channel=0 note=78 velocity=0 time=63\n",
      "control_change channel=0 control=64 value=127 time=12\n",
      "control_change channel=0 control=67 value=0 time=0\n",
      "note_on channel=0 note=80 velocity=70 time=13\n",
      "note_on channel=0 note=56 velocity=49 time=14\n",
      "note_on channel=0 note=68 velocity=53 time=3\n",
      "note_on channel=0 note=58 velocity=0 time=5\n",
      "note_on channel=0 note=61 velocity=0 time=33\n",
      "note_on channel=0 note=70 velocity=0 time=13\n",
      "note_on channel=0 note=73 velocity=0 time=27\n",
      "control_change channel=0 control=64 value=122 time=10\n",
      "note_on channel=0 note=56 velocity=0 time=13\n",
      "note_on channel=0 note=68 velocity=0 time=11\n",
      "note_on channel=0 note=80 velocity=0 time=63\n",
      "control_change channel=0 control=64 value=126 time=41\n",
      "control_change channel=0 control=67 value=0 time=0\n",
      "note_on channel=0 note=87 velocity=74 time=13\n",
      "note_on channel=0 note=63 velocity=52 time=11\n",
      "note_on channel=0 note=75 velocity=56 time=4\n",
      "note_on channel=0 note=63 velocity=0 time=92\n",
      "note_on channel=0 note=75 velocity=0 time=22\n",
      "note_on channel=0 note=87 velocity=0 time=50\n",
      "control_change channel=0 control=64 value=120 time=23\n",
      "control_change channel=0 control=67 value=0 time=0\n",
      "note_on channel=0 note=61 velocity=52 time=14\n",
      "note_on channel=0 note=66 velocity=53 time=6\n",
      "note_on channel=0 note=73 velocity=59 time=2\n",
      "note_on channel=0 note=70 velocity=52 time=3\n",
      "note_on channel=0 note=85 velocity=75 time=1\n",
      "note_on channel=0 note=78 velocity=56 time=5\n",
      "note_on channel=0 note=82 velocity=62 time=6\n",
      "control_change channel=0 control=64 value=121 time=99\n",
      "note_on channel=0 note=61 velocity=0 time=13\n",
      "note_on channel=0 note=73 velocity=0 time=28\n",
      "note_on channel=0 note=85 velocity=0 time=24\n",
      "control_change channel=0 control=64 value=118 time=19\n",
      "control_change channel=0 control=64 value=127 time=5\n",
      "control_change channel=0 control=67 value=0 time=0\n",
      "note_on channel=0 note=66 velocity=0 time=8\n",
      "note_on channel=0 note=82 velocity=71 time=5\n",
      "note_on channel=0 note=70 velocity=0 time=3\n",
      "note_on channel=0 note=70 velocity=55 time=8\n",
      "note_on channel=0 note=58 velocity=55 time=3\n",
      "note_on channel=0 note=78 velocity=0 time=11\n",
      "note_on channel=0 note=82 velocity=0 time=16\n",
      "note_on channel=0 note=70 velocity=0 time=104\n",
      "note_on channel=0 note=58 velocity=0 time=7\n",
      "note_on channel=0 note=82 velocity=0 time=42\n",
      "control_change channel=0 control=64 value=68 time=32\n",
      "control_change channel=0 control=67 value=3 time=0\n",
      "note_on channel=0 note=39 velocity=58 time=13\n",
      "note_on channel=0 note=51 velocity=59 time=12\n",
      "control_change channel=0 control=64 value=20 time=1\n",
      "control_change channel=0 control=64 value=119 time=162\n",
      "control_change channel=0 control=67 value=1 time=0\n",
      "note_on channel=0 note=58 velocity=53 time=13\n",
      "note_on channel=0 note=61 velocity=52 time=3\n",
      "note_on channel=0 note=66 velocity=52 time=2\n",
      "note_on channel=0 note=82 velocity=69 time=1\n",
      "note_on channel=0 note=70 velocity=58 time=7\n",
      "note_on channel=0 note=78 velocity=57 time=7\n",
      "control_change channel=0 control=64 value=125 time=35\n",
      "note_on channel=0 note=66 velocity=0 time=13\n",
      "note_on channel=0 note=58 velocity=0 time=5\n",
      "note_on channel=0 note=61 velocity=0 time=2\n",
      "note_on channel=0 note=70 velocity=0 time=11\n",
      "note_on channel=0 note=78 velocity=0 time=9\n",
      "note_on channel=0 note=82 velocity=0 time=25\n",
      "control_change channel=0 control=64 value=106 time=9\n",
      "control_change channel=0 control=64 value=123 time=0\n",
      "control_change channel=0 control=67 value=0 time=0\n",
      "note_on channel=0 note=39 velocity=0 time=13\n",
      "note_on channel=0 note=58 velocity=54 time=0\n",
      "note_on channel=0 note=61 velocity=53 time=3\n",
      "note_on channel=0 note=66 velocity=54 time=1\n",
      "note_on channel=0 note=82 velocity=78 time=0\n",
      "note_on channel=0 note=70 velocity=61 time=3\n",
      "note_on channel=0 note=78 velocity=62 time=5\n",
      "control_change channel=0 control=64 value=122 time=44\n",
      "note_on channel=0 note=70 velocity=0 time=14\n",
      "note_on channel=0 note=66 velocity=0 time=4\n",
      "note_on channel=0 note=58 velocity=0 time=3\n",
      "note_on channel=0 note=78 velocity=0 time=0\n",
      "note_on channel=0 note=61 velocity=0 time=2\n",
      "note_on channel=0 note=51 velocity=0 time=15\n",
      "note_on channel=0 note=82 velocity=0 time=2\n",
      "control_change channel=0 control=64 value=68 time=42\n",
      "control_change channel=0 control=67 value=1 time=0\n",
      "note_on channel=0 note=66 velocity=58 time=13\n",
      "note_on channel=0 note=82 velocity=79 time=3\n",
      "note_on channel=0 note=61 velocity=56 time=1\n",
      "note_on channel=0 note=58 velocity=57 time=2\n",
      "note_on channel=0 note=70 velocity=63 time=3\n",
      "control_change channel=0 control=64 value=20 time=4\n",
      "note_on channel=0 note=78 velocity=62 time=0\n",
      "control_change channel=0 control=64 value=115 time=46\n",
      "note_on channel=0 note=66 velocity=0 time=13\n",
      "note_on channel=0 note=70 velocity=0 time=1\n",
      "note_on channel=0 note=78 velocity=0 time=3\n",
      "note_on channel=0 note=61 velocity=0 time=3\n",
      "note_on channel=0 note=58 velocity=0 time=1\n",
      "note_on channel=0 note=82 velocity=0 time=27\n",
      "control_change channel=0 control=64 value=113 time=49\n",
      "control_change channel=0 control=67 value=0 time=0\n",
      "note_on channel=0 note=66 velocity=59 time=13\n",
      "note_on channel=0 note=58 velocity=58 time=3\n",
      "note_on channel=0 note=61 velocity=57 time=0\n",
      "note_on channel=0 note=70 velocity=67 time=1\n",
      "note_on channel=0 note=82 velocity=79 time=2\n",
      "note_on channel=0 note=78 velocity=65 time=5\n",
      "control_change channel=0 control=64 value=122 time=41\n",
      "note_on channel=0 note=66 velocity=0 time=13\n",
      "note_on channel=0 note=70 velocity=0 time=6\n",
      "note_on channel=0 note=61 velocity=0 time=2\n",
      "note_on channel=0 note=58 velocity=0 time=3\n",
      "note_on channel=0 note=78 velocity=0 time=1\n",
      "note_on channel=0 note=82 velocity=0 time=19\n",
      "control_change channel=0 control=64 value=110 time=55\n",
      "control_change channel=0 control=67 value=0 time=0\n",
      "note_on channel=0 note=68 velocity=61 time=13\n",
      "note_on channel=0 note=60 velocity=59 time=1\n",
      "note_on channel=0 note=72 velocity=69 time=0\n",
      "note_on channel=0 note=63 velocity=59 time=2\n",
      "note_on channel=0 note=84 velocity=83 time=3\n",
      "note_on channel=0 note=80 velocity=69 time=2\n",
      "note_on channel=0 note=68 velocity=0 time=56\n",
      "note_on channel=0 note=72 velocity=0 time=8\n",
      "note_on channel=0 note=63 velocity=0 time=4\n",
      "note_on channel=0 note=80 velocity=0 time=4\n",
      "note_on channel=0 note=60 velocity=0 time=3\n",
      "note_on channel=0 note=84 velocity=0 time=16\n",
      "control_change channel=0 control=64 value=68 time=36\n",
      "control_change channel=0 control=67 value=0 time=0\n",
      "note_on channel=0 note=66 velocity=60 time=13\n",
      "note_on channel=0 note=61 velocity=56 time=3\n",
      "note_on channel=0 note=58 velocity=57 time=2\n",
      "note_on channel=0 note=82 velocity=82 time=5\n",
      "control_change channel=0 control=64 value=20 time=2\n",
      "note_on channel=0 note=70 velocity=67 time=2\n",
      "note_on channel=0 note=78 velocity=66 time=8\n",
      "control_change channel=0 control=64 value=120 time=47\n",
      "note_on channel=0 note=66 velocity=0 time=13\n",
      "note_on channel=0 note=61 velocity=0 time=12\n",
      "note_on channel=0 note=70 velocity=0 time=6\n",
      "note_on channel=0 note=58 velocity=0 time=2\n",
      "note_on channel=0 note=78 velocity=0 time=9\n",
      "note_on channel=0 note=82 velocity=0 time=28\n",
      "control_change channel=0 control=64 value=118 time=46\n",
      "control_change channel=0 control=67 value=0 time=0\n",
      "note_on channel=0 note=61 velocity=59 time=13\n",
      "note_on channel=0 note=66 velocity=59 time=13\n",
      "note_on channel=0 note=70 velocity=63 time=6\n",
      "note_on channel=0 note=73 velocity=74 time=1\n",
      "note_on channel=0 note=85 velocity=83 time=17\n",
      "note_on channel=0 note=82 velocity=71 time=6\n",
      "control_change channel=0 control=64 value=127 time=83\n",
      "note_on channel=0 note=70 velocity=0 time=14\n",
      "note_on channel=0 note=66 velocity=0 time=27\n",
      "note_on channel=0 note=73 velocity=0 time=4\n",
      "note_on channel=0 note=82 velocity=0 time=2\n",
      "control_change channel=0 control=64 value=119 time=12\n",
      "control_change channel=0 control=67 value=0 time=0\n",
      "note_on channel=0 note=85 velocity=0 time=7\n",
      "note_on channel=0 note=61 velocity=0 time=2\n",
      "note_on channel=0 note=70 velocity=58 time=4\n",
      "note_on channel=0 note=66 velocity=59 time=2\n",
      "note_on channel=0 note=75 velocity=67 time=10\n",
      "note_on channel=0 note=87 velocity=85 time=5\n",
      "note_on channel=0 note=82 velocity=70 time=4\n",
      "note_on channel=0 note=63 velocity=60 time=2\n",
      "control_change channel=0 control=64 value=121 time=184\n",
      "note_on channel=0 note=75 velocity=0 time=13\n",
      "note_on channel=0 note=82 velocity=0 time=26\n",
      "note_on channel=0 note=70 velocity=0 time=47\n",
      "note_on channel=0 note=63 velocity=0 time=6\n",
      "note_on channel=0 note=87 velocity=0 time=4\n",
      "note_on channel=0 note=66 velocity=0 time=7\n",
      "control_change channel=0 control=64 value=127 time=14\n",
      "control_change channel=0 control=67 value=0 time=0\n",
      "control_change channel=0 control=64 value=123 time=714\n",
      "control_change channel=0 control=64 value=116 time=738\n",
      "control_change channel=0 control=67 value=10 time=0\n",
      "control_change channel=0 control=64 value=127 time=576\n",
      "control_change channel=0 control=64 value=124 time=301\n",
      "control_change channel=0 control=67 value=17 time=0\n",
      "control_change channel=0 control=64 value=125 time=606\n",
      "control_change channel=0 control=64 value=119 time=1309\n",
      "control_change channel=0 control=67 value=71 time=0\n",
      "note_on channel=0 note=56 velocity=31 time=14\n",
      "note_on channel=0 note=63 velocity=31 time=0\n",
      "note_on channel=0 note=66 velocity=32 time=5\n",
      "note_on channel=0 note=68 velocity=36 time=17\n",
      "note_on channel=0 note=72 velocity=35 time=42\n",
      "note_on channel=0 note=75 velocity=39 time=40\n",
      "note_on channel=0 note=80 velocity=47 time=25\n",
      "control_change channel=0 control=64 value=120 time=646\n",
      "note_on channel=0 note=72 velocity=0 time=13\n",
      "note_on channel=0 note=66 velocity=0 time=165\n",
      "note_on channel=0 note=75 velocity=0 time=136\n",
      "note_on channel=0 note=68 velocity=0 time=88\n",
      "control_change channel=0 control=64 value=117 time=39\n",
      "control_change channel=0 control=67 value=76 time=0\n",
      "note_on channel=0 note=80 velocity=0 time=0\n",
      "note_on channel=0 note=68 velocity=52 time=13\n",
      "note_on channel=0 note=63 velocity=0 time=20\n",
      "note_on channel=0 note=65 velocity=39 time=113\n",
      "note_on channel=0 note=37 velocity=32 time=14\n",
      "note_on channel=0 note=56 velocity=0 time=59\n",
      "control_change channel=0 control=64 value=127 time=138\n",
      "control_change channel=0 control=64 value=120 time=30\n",
      "control_change channel=0 control=67 value=57 time=0\n",
      "note_on channel=0 note=44 velocity=33 time=13\n",
      "note_on channel=0 note=44 velocity=0 time=2\n",
      "control_change channel=0 control=64 value=127 time=107\n",
      "control_change channel=0 control=64 value=127 time=34\n",
      "control_change channel=0 control=67 value=53 time=0\n",
      "note_on channel=0 note=49 velocity=34 time=13\n",
      "note_on channel=0 note=49 velocity=0 time=2\n",
      "control_change channel=0 control=64 value=127 time=101\n",
      "control_change channel=0 control=64 value=127 time=10\n",
      "control_change channel=0 control=67 value=52 time=0\n",
      "note_on channel=0 note=53 velocity=38 time=13\n",
      "note_on channel=0 note=53 velocity=0 time=2\n",
      "control_change channel=0 control=64 value=127 time=111\n",
      "control_change channel=0 control=67 value=53 time=0\n",
      "control_change channel=0 control=64 value=127 time=13\n",
      "note_on channel=0 note=56 velocity=42 time=0\n",
      "note_on channel=0 note=56 velocity=0 time=13\n",
      "control_change channel=0 control=64 value=127 time=107\n",
      "control_change channel=0 control=67 value=54 time=0\n",
      "note_on channel=0 note=61 velocity=44 time=13\n",
      "control_change channel=0 control=64 value=127 time=10\n",
      "control_change channel=0 control=64 value=127 time=5\n",
      "note_on channel=0 note=68 velocity=0 time=8\n",
      "note_on channel=0 note=61 velocity=0 time=5\n",
      "control_change channel=0 control=64 value=118 time=49\n",
      "control_change channel=0 control=67 value=46 time=0\n",
      "note_on channel=0 note=41 velocity=44 time=13\n",
      "note_on channel=0 note=37 velocity=0 time=13\n",
      "note_on channel=0 note=65 velocity=0 time=48\n",
      "control_change channel=0 control=64 value=121 time=16\n",
      "control_change channel=0 control=67 value=42 time=0\n",
      "note_on channel=0 note=48 velocity=46 time=13\n",
      "control_change channel=0 control=64 value=127 time=9\n",
      "note_on channel=0 note=48 velocity=0 time=13\n",
      "control_change channel=0 control=64 value=127 time=44\n",
      "control_change channel=0 control=67 value=41 time=0\n",
      "note_on channel=0 note=53 velocity=50 time=13\n",
      "control_change channel=0 control=64 value=127 time=15\n",
      "note_on channel=0 note=53 velocity=0 time=14\n",
      "control_change channel=0 control=64 value=127 time=34\n",
      "control_change channel=0 control=67 value=42 time=0\n",
      "note_on channel=0 note=56 velocity=51 time=13\n",
      "note_on channel=0 note=41 velocity=0 time=26\n",
      "control_change channel=0 control=64 value=127 time=1\n",
      "note_on channel=0 note=56 velocity=0 time=13\n",
      "control_change channel=0 control=64 value=127 time=21\n",
      "control_change channel=0 control=67 value=42 time=0\n",
      "note_on channel=0 note=60 velocity=52 time=14\n",
      "control_change channel=0 control=64 value=121 time=41\n",
      "note_on channel=0 note=60 velocity=0 time=13\n",
      "control_change channel=0 control=64 value=127 time=5\n",
      "control_change channel=0 control=67 value=42 time=0\n",
      "note_on channel=0 note=65 velocity=50 time=14\n",
      "control_change channel=0 control=64 value=68 time=56\n",
      "control_change channel=0 control=67 value=32 time=0\n",
      "note_on channel=0 note=44 velocity=36 time=13\n",
      "note_on channel=0 note=65 velocity=0 time=2\n",
      "note_on channel=0 note=71 velocity=61 time=1\n",
      "control_change channel=0 control=64 value=20 time=11\n",
      "note_on channel=0 note=68 velocity=46 time=17\n",
      "control_change channel=0 control=64 value=104 time=57\n",
      "control_change channel=0 control=67 value=27 time=0\n",
      "note_on channel=0 note=52 velocity=45 time=13\n",
      "control_change channel=0 control=64 value=111 time=50\n",
      "note_on channel=0 note=52 velocity=0 time=13\n",
      "control_change channel=0 control=64 value=107 time=3\n",
      "control_change channel=0 control=67 value=29 time=0\n",
      "control_change channel=0 control=64 value=116 time=9\n",
      "note_on channel=0 note=56 velocity=48 time=4\n",
      "note_on channel=0 note=44 velocity=0 time=10\n",
      "control_change channel=0 control=64 value=117 time=32\n",
      "note_on channel=0 note=56 velocity=0 time=13\n",
      "control_change channel=0 control=64 value=117 time=5\n",
      "control_change channel=0 control=67 value=31 time=0\n",
      "note_on channel=0 note=68 velocity=0 time=4\n",
      "note_on channel=0 note=59 velocity=50 time=9\n",
      "control_change channel=0 control=67 value=29 time=40\n",
      "control_change channel=0 control=64 value=112 time=10\n",
      "note_on channel=0 note=73 velocity=64 time=3\n",
      "note_on channel=0 note=59 velocity=0 time=10\n",
      "note_on channel=0 note=64 velocity=46 time=5\n",
      "note_on channel=0 note=71 velocity=0 time=0\n",
      "control_change channel=0 control=67 value=27 time=62\n",
      "control_change channel=0 control=64 value=121 time=9\n",
      "note_on channel=0 note=68 velocity=50 time=4\n",
      "note_on channel=0 note=64 velocity=0 time=10\n",
      "control_change channel=0 control=64 value=68 time=71\n",
      "control_change channel=0 control=67 value=15 time=0\n",
      "note_on channel=0 note=68 velocity=0 time=7\n",
      "control_change channel=0 control=64 value=20 time=6\n",
      "note_on channel=0 note=37 velocity=38 time=0\n",
      "note_on channel=0 note=65 velocity=47 time=16\n",
      "note_on channel=0 note=68 velocity=62 time=1\n",
      "note_on channel=0 note=73 velocity=0 time=12\n",
      "control_change channel=0 control=64 value=89 time=87\n",
      "control_change channel=0 control=67 value=19 time=0\n",
      "note_on channel=0 note=44 velocity=43 time=13\n",
      "control_change channel=0 control=64 value=98 time=29\n",
      "note_on channel=0 note=44 velocity=0 time=13\n",
      "control_change channel=0 control=64 value=100 time=37\n",
      "control_change channel=0 control=67 value=22 time=0\n",
      "note_on channel=0 note=49 velocity=48 time=14\n",
      "control_change channel=0 control=64 value=109 time=20\n",
      "note_on channel=0 note=49 velocity=0 time=14\n",
      "control_change channel=0 control=64 value=110 time=31\n",
      "control_change channel=0 control=67 value=24 time=0\n",
      "note_on channel=0 note=53 velocity=49 time=13\n",
      "control_change channel=0 control=64 value=111 time=29\n",
      "note_on channel=0 note=53 velocity=0 time=13\n",
      "control_change channel=0 control=64 value=114 time=24\n",
      "control_change channel=0 control=67 value=28 time=0\n",
      "note_on channel=0 note=56 velocity=49 time=13\n",
      "control_change channel=0 control=64 value=96 time=15\n",
      "note_on channel=0 note=37 velocity=0 time=13\n",
      "control_change channel=0 control=64 value=108 time=10\n",
      "note_on channel=0 note=56 velocity=0 time=14\n",
      "control_change channel=0 control=64 value=114 time=18\n",
      "control_change channel=0 control=67 value=30 time=0\n",
      "note_on channel=0 note=61 velocity=49 time=13\n",
      "note_on channel=0 note=61 velocity=0 time=56\n",
      "control_change channel=0 control=64 value=68 time=13\n",
      "control_change channel=0 control=67 value=30 time=0\n",
      "control_change channel=0 control=64 value=20 time=13\n",
      "note_on channel=0 note=41 velocity=46 time=0\n",
      "control_change channel=0 control=64 value=98 time=65\n",
      "control_change channel=0 control=67 value=27 time=0\n",
      "note_on channel=0 note=48 velocity=48 time=13\n",
      "control_change channel=0 control=64 value=111 time=34\n",
      "note_on channel=0 note=48 velocity=0 time=13\n",
      "control_change channel=0 control=64 value=109 time=22\n",
      "control_change channel=0 control=67 value=26 time=0\n",
      "note_on channel=0 note=53 velocity=52 time=13\n",
      "control_change channel=0 control=64 value=115 time=33\n",
      "note_on channel=0 note=53 velocity=0 time=14\n",
      "control_change channel=0 control=64 value=116 time=15\n",
      "control_change channel=0 control=67 value=26 time=0\n",
      "note_on channel=0 note=56 velocity=54 time=13\n",
      "control_change channel=0 control=64 value=110 time=15\n",
      "note_on channel=0 note=41 velocity=0 time=13\n",
      "control_change channel=0 control=64 value=115 time=12\n",
      "note_on channel=0 note=65 velocity=0 time=13\n",
      "note_on channel=0 note=56 velocity=0 time=1\n",
      "control_change channel=0 control=64 value=119 time=3\n",
      "control_change channel=0 control=67 value=26 time=0\n",
      "note_on channel=0 note=60 velocity=55 time=14\n",
      "control_change channel=0 control=64 value=111 time=53\n",
      "control_change channel=0 control=67 value=25 time=1\n",
      "note_on channel=0 note=68 velocity=0 time=2\n",
      "note_on channel=0 note=60 velocity=0 time=10\n",
      "note_on channel=0 note=65 velocity=55 time=1\n",
      "control_change channel=0 control=64 value=68 time=61\n",
      "control_change channel=0 control=67 value=20 time=0\n",
      "note_on channel=0 note=44 velocity=41 time=13\n",
      "note_on channel=0 note=65 velocity=0 time=6\n",
      "note_on channel=0 note=68 velocity=50 time=4\n",
      "note_on channel=0 note=71 velocity=61 time=2\n",
      "control_change channel=0 control=64 value=20 time=2\n",
      "control_change channel=0 control=64 value=92 time=75\n",
      "control_change channel=0 control=67 value=15 time=0\n",
      "note_on channel=0 note=52 velocity=47 time=14\n",
      "control_change channel=0 control=64 value=111 time=42\n",
      "note_on channel=0 note=52 velocity=0 time=13\n",
      "control_change channel=0 control=64 value=114 time=7\n",
      "control_change channel=0 control=64 value=101 time=3\n",
      "control_change channel=0 control=67 value=14 time=0\n",
      "note_on channel=0 note=44 velocity=0 time=11\n",
      "note_on channel=0 note=56 velocity=50 time=2\n",
      "control_change channel=0 control=64 value=117 time=11\n",
      "note_on channel=0 note=68 velocity=0 time=14\n",
      "control_change channel=0 control=64 value=117 time=14\n",
      "note_on channel=0 note=56 velocity=0 time=13\n",
      "control_change channel=0 control=64 value=113 time=4\n",
      "control_change channel=0 control=67 value=14 time=0\n",
      "note_on channel=0 note=59 velocity=53 time=13\n",
      "note_on channel=0 note=71 velocity=0 time=13\n",
      "control_change channel=0 control=64 value=120 time=38\n",
      "control_change channel=0 control=67 value=12 time=0\n",
      "note_on channel=0 note=59 velocity=0 time=14\n",
      "note_on channel=0 note=68 velocity=64 time=0\n",
      "control_change channel=0 control=64 value=123 time=58\n",
      "control_change channel=0 control=67 value=13 time=0\n",
      "note_on channel=0 note=64 velocity=53 time=13\n",
      "control_change channel=0 control=64 value=113 time=2\n",
      "control_change channel=0 control=64 value=68 time=70\n",
      "control_change channel=0 control=67 value=12 time=0\n",
      "note_on channel=0 note=37 velocity=46 time=13\n",
      "note_on channel=0 note=65 velocity=50 time=10\n",
      "note_on channel=0 note=64 velocity=0 time=1\n",
      "control_change channel=0 control=64 value=20 time=2\n",
      "note_on channel=0 note=73 velocity=68 time=3\n",
      "note_on channel=0 note=68 velocity=0 time=17\n",
      "control_change channel=0 control=64 value=87 time=38\n",
      "note_on channel=0 note=37 velocity=0 time=13\n",
      "control_change channel=0 control=64 value=80 time=14\n",
      "control_change channel=0 control=67 value=13 time=0\n",
      "note_on channel=0 note=44 velocity=50 time=13\n",
      "control_change channel=0 control=64 value=104 time=14\n",
      "note_on channel=0 note=44 velocity=0 time=13\n",
      "control_change channel=0 control=64 value=99 time=10\n",
      "note_on channel=0 note=65 velocity=0 time=14\n",
      "control_change channel=0 control=64 value=100 time=2\n",
      "control_change channel=0 control=67 value=12 time=0\n",
      "note_on channel=0 note=49 velocity=54 time=13\n",
      "control_change channel=0 control=64 value=117 time=20\n",
      "note_on channel=0 note=49 velocity=0 time=13\n",
      "control_change channel=0 control=64 value=111 time=17\n",
      "control_change channel=0 control=67 value=12 time=0\n",
      "note_on channel=0 note=53 velocity=57 time=13\n",
      "note_on channel=0 note=73 velocity=0 time=34\n",
      "note_on channel=0 note=53 velocity=0 time=6\n",
      "control_change channel=0 control=64 value=111 time=8\n",
      "control_change channel=0 control=67 value=12 time=0\n",
      "note_on channel=0 note=68 velocity=63 time=13\n",
      "note_on channel=0 note=56 velocity=56 time=1\n",
      "note_on channel=0 note=75 velocity=71 time=1\n",
      "control_change channel=0 control=64 value=103 time=42\n",
      "control_change channel=0 control=67 value=10 time=9\n",
      "note_on channel=0 note=56 velocity=0 time=5\n",
      "note_on channel=0 note=61 velocity=61 time=8\n",
      "control_change channel=0 control=64 value=68 time=50\n",
      "control_change channel=0 control=67 value=11 time=5\n",
      "note_on channel=0 note=61 velocity=0 time=8\n",
      "note_on channel=0 note=65 velocity=51 time=5\n",
      "note_on channel=0 note=73 velocity=53 time=1\n",
      "note_on channel=0 note=77 velocity=72 time=1\n",
      "control_change channel=0 control=64 value=20 time=6\n",
      "note_on channel=0 note=68 velocity=0 time=0\n",
      "note_on channel=0 note=75 velocity=0 time=9\n",
      "control_change channel=0 control=64 value=87 time=25\n",
      "control_change channel=0 control=67 value=9 time=13\n",
      "note_on channel=0 note=65 velocity=0 time=0\n",
      "note_on channel=0 note=68 velocity=56 time=13\n",
      "control_change channel=0 control=64 value=100 time=36\n",
      "note_on channel=0 note=68 velocity=0 time=13\n",
      "control_change channel=0 control=64 value=96 time=2\n",
      "control_change channel=0 control=67 value=9 time=0\n",
      "note_on channel=0 note=65 velocity=58 time=13\n",
      "control_change channel=0 control=64 value=107 time=37\n",
      "control_change channel=0 control=67 value=9 time=11\n",
      "note_on channel=0 note=65 velocity=0 time=2\n",
      "note_on channel=0 note=61 velocity=60 time=11\n",
      "control_change channel=0 control=64 value=109 time=43\n",
      "control_change channel=0 control=67 value=9 time=4\n",
      "note_on channel=0 note=61 velocity=0 time=9\n",
      "note_on channel=0 note=56 velocity=61 time=4\n",
      "control_change channel=0 control=64 value=101 time=26\n",
      "note_on channel=0 note=73 velocity=0 time=13\n",
      "control_change channel=0 control=67 value=9 time=7\n",
      "control_change channel=0 control=64 value=106 time=7\n",
      "note_on channel=0 note=53 velocity=62 time=7\n",
      "note_on channel=0 note=56 velocity=0 time=7\n",
      "control_change channel=0 control=64 value=68 time=49\n",
      "control_change channel=0 control=67 value=12 time=0\n",
      "note_on channel=0 note=56 velocity=54 time=13\n",
      "note_on channel=0 note=73 velocity=73 time=1\n",
      "note_on channel=0 note=65 velocity=54 time=3\n",
      "note_on channel=0 note=53 velocity=0 time=4\n",
      "control_change channel=0 control=64 value=20 time=5\n",
      "note_on channel=0 note=77 velocity=0 time=17\n",
      "control_change channel=0 control=64 value=68 time=24\n",
      "control_change channel=0 control=67 value=11 time=1\n",
      "note_on channel=0 note=56 velocity=0 time=12\n",
      "control_change channel=0 control=64 value=20 time=1\n",
      "note_on channel=0 note=53 velocity=58 time=0\n",
      "control_change channel=0 control=64 value=89 time=45\n",
      "control_change channel=0 control=67 value=11 time=4\n",
      "note_on channel=0 note=53 velocity=0 time=9\n",
      "note_on channel=0 note=49 velocity=60 time=5\n",
      "control_change channel=0 control=64 value=90 time=2\n",
      "note_on channel=0 note=65 velocity=0 time=14\n",
      "control_change channel=0 control=67 value=10 time=32\n",
      "control_change channel=0 control=64 value=97 time=3\n",
      "note_on channel=0 note=44 velocity=62 time=10\n",
      "note_on channel=0 note=49 velocity=0 time=3\n",
      "control_change channel=0 control=64 value=68 time=42\n",
      "control_change channel=0 control=67 value=10 time=0\n",
      "control_change channel=0 control=64 value=20 time=13\n",
      "note_on channel=0 note=77 velocity=75 time=0\n",
      "note_on channel=0 note=49 velocity=58 time=1\n",
      "note_on channel=0 note=73 velocity=0 time=0\n",
      "note_on channel=0 note=73 velocity=59 time=4\n",
      "note_on channel=0 note=44 velocity=0 time=10\n",
      "control_change channel=0 control=64 value=108 time=33\n",
      "control_change channel=0 control=67 value=11 time=0\n",
      "note_on channel=0 note=44 velocity=61 time=13\n",
      "control_change channel=0 control=64 value=95 time=9\n",
      "control_change channel=0 control=64 value=93 time=5\n",
      "note_on channel=0 note=49 velocity=0 time=8\n",
      "note_on channel=0 note=73 velocity=0 time=5\n",
      "control_change channel=0 control=64 value=68 time=44\n",
      "control_change channel=0 control=67 value=11 time=0\n",
      "note_on channel=0 note=77 velocity=0 time=2\n",
      "note_on channel=0 note=39 velocity=53 time=11\n",
      "note_on channel=0 note=75 velocity=55 time=7\n",
      "note_on channel=0 note=79 velocity=73 time=0\n",
      "note_on channel=0 note=44 velocity=0 time=2\n",
      "control_change channel=0 control=64 value=20 time=4\n",
      "control_change channel=0 control=64 value=86 time=45\n",
      "control_change channel=0 control=64 value=93 time=7\n",
      "note_on channel=0 note=39 velocity=0 time=6\n",
      "note_on channel=0 note=75 velocity=0 time=7\n",
      "control_change channel=0 control=64 value=80 time=3\n",
      "control_change channel=0 control=67 value=10 time=0\n",
      "note_on channel=0 note=46 velocity=56 time=13\n",
      "note_on channel=0 note=79 velocity=0 time=26\n",
      "note_on channel=0 note=46 velocity=0 time=10\n",
      "control_change channel=0 control=64 value=108 time=6\n",
      "control_change channel=0 control=67 value=7 time=0\n",
      "note_on channel=0 note=77 velocity=72 time=13\n",
      "note_on channel=0 note=51 velocity=58 time=1\n",
      "note_on channel=0 note=73 velocity=60 time=0\n",
      "control_change channel=0 control=64 value=116 time=37\n",
      "control_change channel=0 control=67 value=6 time=12\n",
      "note_on channel=0 note=51 velocity=0 time=1\n",
      "note_on channel=0 note=55 velocity=62 time=12\n",
      "control_change channel=0 control=64 value=110 time=9\n",
      "note_on channel=0 note=73 velocity=0 time=14\n",
      "note_on channel=0 note=77 velocity=0 time=18\n",
      "control_change channel=0 control=64 value=115 time=1\n",
      "control_change channel=0 control=67 value=5 time=0\n",
      "note_on channel=0 note=70 velocity=65 time=13\n",
      "note_on channel=0 note=73 velocity=80 time=1\n",
      "note_on channel=0 note=55 velocity=0 time=1\n",
      "note_on channel=0 note=58 velocity=63 time=1\n",
      "control_change channel=0 control=67 value=3 time=50\n",
      "control_change channel=0 control=64 value=111 time=10\n",
      "note_on channel=0 note=63 velocity=67 time=3\n",
      "note_on channel=0 note=58 velocity=0 time=10\n",
      "control_change channel=0 control=64 value=105 time=14\n",
      "note_on channel=0 note=70 velocity=0 time=13\n",
      "control_change channel=0 control=64 value=68 time=34\n",
      "control_change channel=0 control=67 value=9 time=0\n",
      "note_on channel=0 note=73 velocity=0 time=2\n",
      "note_on channel=0 note=63 velocity=0 time=8\n",
      "note_on channel=0 note=70 velocity=55 time=3\n",
      "note_on channel=0 note=67 velocity=54 time=1\n",
      "note_on channel=0 note=73 velocity=74 time=6\n",
      "control_change channel=0 control=64 value=20 time=6\n",
      "control_change channel=0 control=64 value=98 time=33\n",
      "control_change channel=0 control=64 value=88 time=18\n",
      "control_change channel=0 control=67 value=4 time=0\n",
      "note_on channel=0 note=63 velocity=60 time=13\n",
      "control_change channel=0 control=64 value=101 time=31\n",
      "note_on channel=0 note=63 velocity=0 time=13\n",
      "control_change channel=0 control=64 value=116 time=8\n",
      "control_change channel=0 control=67 value=4 time=0\n",
      "note_on channel=0 note=67 velocity=0 time=2\n",
      "note_on channel=0 note=58 velocity=59 time=12\n",
      "note_on channel=0 note=65 velocity=65 time=12\n",
      "control_change channel=0 control=64 value=120 time=18\n",
      "control_change channel=0 control=67 value=5 time=13\n",
      "note_on channel=0 note=58 velocity=0 time=0\n",
      "note_on channel=0 note=55 velocity=62 time=13\n",
      "control_change channel=0 control=64 value=98 time=40\n",
      "control_change channel=0 control=64 value=118 time=5\n",
      "control_change channel=0 control=67 value=4 time=7\n",
      "note_on channel=0 note=70 velocity=0 time=1\n",
      "note_on channel=0 note=55 velocity=0 time=5\n",
      "note_on channel=0 note=51 velocity=58 time=7\n",
      "note_on channel=0 note=61 velocity=72 time=1\n",
      "note_on channel=0 note=65 velocity=0 time=0\n",
      "control_change channel=0 control=67 value=6 time=44\n",
      "control_change channel=0 control=64 value=107 time=7\n",
      "note_on channel=0 note=46 velocity=61 time=6\n",
      "note_on channel=0 note=51 velocity=0 time=7\n",
      "note_on channel=0 note=73 velocity=0 time=31\n",
      "control_change channel=0 control=64 value=68 time=21\n",
      "control_change channel=0 control=67 value=4 time=0\n",
      "note_on channel=0 note=39 velocity=59 time=13\n",
      "note_on channel=0 note=61 velocity=74 time=1\n",
      "note_on channel=0 note=46 velocity=0 time=2\n",
      "control_change channel=0 control=64 value=20 time=10\n",
      "note_on channel=0 note=61 velocity=0 time=0\n",
      "control_change channel=0 control=64 value=94 time=39\n",
      "control_change channel=0 control=67 value=6 time=7\n",
      "note_on channel=0 note=39 velocity=0 time=7\n",
      "note_on channel=0 note=46 velocity=62 time=6\n",
      "control_change channel=0 control=64 value=106 time=45\n",
      "control_change channel=0 control=67 value=6 time=8\n",
      "note_on channel=0 note=46 velocity=0 time=5\n",
      "control_change channel=0 control=64 value=94 time=7\n",
      "note_on channel=0 note=51 velocity=64 time=2\n",
      "note_on channel=0 note=61 velocity=0 time=11\n",
      "control_change channel=0 control=64 value=120 time=37\n",
      "control_change channel=0 control=67 value=6 time=0\n",
      "note_on channel=0 note=58 velocity=73 time=13\n",
      "note_on channel=0 note=55 velocity=61 time=7\n",
      "note_on channel=0 note=51 velocity=0 time=1\n",
      "control_change channel=0 control=64 value=127 time=52\n",
      "control_change channel=0 control=67 value=7 time=0\n",
      "control_change channel=0 control=64 value=123 time=13\n",
      "note_on channel=0 note=51 velocity=65 time=0\n",
      "note_on channel=0 note=55 velocity=0 time=14\n",
      "control_change channel=0 control=64 value=127 time=42\n",
      "control_change channel=0 control=67 value=8 time=0\n",
      "note_on channel=0 note=46 velocity=64 time=13\n",
      "control_change channel=0 control=64 value=118 time=8\n",
      "note_on channel=0 note=51 velocity=0 time=13\n",
      "control_change channel=0 control=64 value=111 time=14\n",
      "note_on channel=0 note=58 velocity=0 time=13\n",
      "control_change channel=0 control=64 value=68 time=29\n",
      "control_change channel=0 control=67 value=10 time=0\n",
      "control_change channel=0 control=64 value=20 time=14\n",
      "note_on channel=0 note=44 velocity=53 time=0\n",
      "note_on channel=0 note=46 velocity=0 time=7\n",
      "note_on channel=0 note=70 velocity=73 time=12\n",
      "control_change channel=0 control=64 value=68 time=75\n",
      "control_change channel=0 control=67 value=7 time=0\n",
      "note_on channel=0 note=51 velocity=55 time=13\n",
      "control_change channel=0 control=64 value=20 time=4\n",
      "control_change channel=0 control=64 value=94 time=23\n",
      "note_on channel=0 note=51 velocity=0 time=13\n",
      "control_change channel=0 control=64 value=95 time=29\n",
      "control_change channel=0 control=67 value=5 time=0\n",
      "note_on channel=0 note=54 velocity=59 time=13\n",
      "control_change channel=0 control=64 value=112 time=23\n",
      "note_on channel=0 note=54 velocity=0 time=13\n",
      "control_change channel=0 control=64 value=114 time=20\n",
      "control_change channel=0 control=67 value=6 time=0\n",
      "note_on channel=0 note=58 velocity=61 time=13\n",
      "control_change channel=0 control=64 value=117 time=31\n",
      "note_on channel=0 note=58 velocity=0 time=13\n",
      "control_change channel=0 control=64 value=122 time=12\n",
      "control_change channel=0 control=67 value=7 time=0\n",
      "control_change channel=0 control=64 value=94 time=1\n",
      "note_on channel=0 note=60 velocity=62 time=12\n",
      "note_on channel=0 note=44 velocity=0 time=1\n",
      "control_change channel=0 control=64 value=112 time=42\n",
      "note_on channel=0 note=60 velocity=0 time=14\n",
      "control_change channel=0 control=64 value=122 time=2\n",
      "control_change channel=0 control=67 value=6 time=0\n",
      "note_on channel=0 note=66 velocity=61 time=13\n",
      "note_on channel=0 note=66 velocity=0 time=62\n",
      "control_change channel=0 control=64 value=68 time=5\n",
      "control_change channel=0 control=67 value=9 time=0\n",
      "control_change channel=0 control=64 value=20 time=13\n",
      "note_on channel=0 note=42 velocity=56 time=0\n",
      "control_change channel=0 control=64 value=106 time=30\n",
      "note_on channel=0 note=70 velocity=0 time=13\n",
      "control_change channel=0 control=64 value=101 time=17\n",
      "control_change channel=0 control=67 value=6 time=0\n",
      "note_on channel=0 note=49 velocity=58 time=13\n",
      "control_change channel=0 control=64 value=113 time=32\n",
      "note_on channel=0 note=49 velocity=0 time=13\n",
      "control_change channel=0 control=64 value=113 time=11\n",
      "control_change channel=0 control=67 value=5 time=0\n",
      "note_on channel=0 note=54 velocity=60 time=14\n",
      "control_change channel=0 control=64 value=119 time=37\n",
      "note_on channel=0 note=54 velocity=0 time=13\n",
      "control_change channel=0 control=64 value=122 time=6\n",
      "control_change channel=0 control=67 value=6 time=0\n",
      "note_on channel=0 note=58 velocity=61 time=13\n",
      "note_on channel=0 note=42 velocity=0 time=16\n",
      "control_change channel=0 control=64 value=120 time=27\n",
      "control_change channel=0 control=67 value=6 time=11\n",
      "note_on channel=0 note=58 velocity=0 time=2\n",
      "note_on channel=0 note=61 velocity=62 time=11\n",
      "control_change channel=0 control=67 value=7 time=52\n",
      "control_change channel=0 control=64 value=116 time=1\n",
      "note_on channel=0 note=66 velocity=61 time=12\n",
      "note_on channel=0 note=61 velocity=0 time=1\n",
      "control_change channel=0 control=64 value=68 time=46\n",
      "control_change channel=0 control=67 value=7 time=0\n",
      "note_on channel=0 note=41 velocity=57 time=13\n",
      "control_change channel=0 control=64 value=20 time=13\n",
      "note_on channel=0 note=66 velocity=0 time=2\n",
      "note_on channel=0 note=72 velocity=76 time=15\n",
      "control_change channel=0 control=64 value=68 time=75\n",
      "control_change channel=0 control=67 value=6 time=0\n",
      "note_on channel=0 note=48 velocity=57 time=13\n",
      "control_change channel=0 control=64 value=20 time=12\n",
      "control_change channel=0 control=64 value=110 time=35\n",
      "control_change channel=0 control=64 value=108 time=4\n",
      "note_on channel=0 note=48 velocity=0 time=9\n",
      "note_on channel=0 note=41 velocity=0 time=4\n",
      "control_change channel=0 control=64 value=102 time=11\n",
      "control_change channel=0 control=67 value=6 time=0\n",
      "note_on channel=0 note=53 velocity=58 time=14\n",
      "control_change channel=0 control=64 value=109 time=3\n",
      "note_on channel=0 note=72 velocity=0 time=13\n",
      "control_change channel=0 control=64 value=120 time=33\n",
      "note_on channel=0 note=53 velocity=0 time=13\n",
      "control_change channel=0 control=64 value=118 time=5\n",
      "control_change channel=0 control=67 value=7 time=0\n",
      "note_on channel=0 note=56 velocity=59 time=13\n",
      "control_change channel=0 control=64 value=123 time=63\n",
      "control_change channel=0 control=67 value=5 time=0\n",
      "note_on channel=0 note=56 velocity=0 time=12\n",
      "note_on channel=0 note=77 velocity=79 time=1\n",
      "note_on channel=0 note=60 velocity=56 time=4\n",
      "note_on channel=0 note=68 velocity=59 time=7\n",
      "control_change channel=0 control=64 value=112 time=64\n",
      "note_on channel=0 note=68 velocity=0 time=13\n",
      "control_change channel=0 control=64 value=127 time=4\n",
      "control_change channel=0 control=67 value=5 time=0\n",
      "note_on channel=0 note=65 velocity=65 time=13\n",
      "note_on channel=0 note=77 velocity=0 time=69\n",
      "control_change channel=0 control=64 value=68 time=13\n",
      "control_change channel=0 control=67 value=6 time=0\n",
      "note_on channel=0 note=60 velocity=0 time=5\n",
      "control_change channel=0 control=64 value=20 time=8\n",
      "control_change channel=0 control=64 value=20 time=0\n",
      "note_on channel=0 note=44 velocity=50 time=0\n",
      "note_on channel=0 note=65 velocity=0 time=5\n",
      "note_on channel=0 note=70 velocity=67 time=6\n",
      "control_change channel=0 control=64 value=68 time=90\n",
      "control_change channel=0 control=67 value=7 time=0\n",
      "control_change channel=0 control=64 value=20 time=13\n",
      "note_on channel=0 note=51 velocity=51 time=0\n",
      "control_change channel=0 control=64 value=105 time=19\n",
      "note_on channel=0 note=51 velocity=0 time=13\n",
      "control_change channel=0 control=64 value=102 time=34\n",
      "control_change channel=0 control=67 value=7 time=0\n",
      "note_on channel=0 note=54 velocity=54 time=14\n",
      "control_change channel=0 control=64 value=118 time=16\n",
      "note_on channel=0 note=54 velocity=0 time=13\n",
      "control_change channel=0 control=64 value=118 time=25\n",
      "control_change channel=0 control=67 value=9 time=0\n",
      "note_on channel=0 note=58 velocity=57 time=13\n",
      "control_change channel=0 control=64 value=120 time=27\n",
      "control_change channel=0 control=64 value=103 time=6\n",
      "note_on channel=0 note=58 velocity=0 time=7\n",
      "note_on channel=0 note=44 velocity=0 time=6\n",
      "control_change channel=0 control=64 value=124 time=10\n",
      "control_change channel=0 control=67 value=9 time=0\n",
      "note_on channel=0 note=60 velocity=58 time=14\n",
      "control_change channel=0 control=64 value=115 time=38\n",
      "note_on channel=0 note=60 velocity=0 time=13\n",
      "control_change channel=0 control=64 value=124 time=8\n",
      "control_change channel=0 control=67 value=9 time=0\n",
      "note_on channel=0 note=66 velocity=57 time=14\n",
      "note_on channel=0 note=66 velocity=0 time=56\n",
      "control_change channel=0 control=64 value=68 time=6\n",
      "control_change channel=0 control=67 value=10 time=0\n",
      "control_change channel=0 control=64 value=20 time=13\n",
      "note_on channel=0 note=42 velocity=54 time=0\n",
      "control_change channel=0 control=64 value=112 time=25\n",
      "note_on channel=0 note=70 velocity=0 time=13\n",
      "control_change channel=0 control=64 value=103 time=24\n",
      "control_change channel=0 control=67 value=7 time=0\n",
      "note_on channel=0 note=49 velocity=55 time=13\n",
      "control_change channel=0 control=64 value=114 time=27\n",
      "note_on channel=0 note=49 velocity=0 time=13\n",
      "control_change channel=0 control=64 value=113 time=14\n",
      "control_change channel=0 control=67 value=8 time=0\n",
      "note_on channel=0 note=54 velocity=58 time=13\n",
      "control_change channel=0 control=64 value=119 time=33\n",
      "note_on channel=0 note=54 velocity=0 time=13\n",
      "control_change channel=0 control=64 value=121 time=8\n",
      "control_change channel=0 control=67 value=9 time=0\n",
      "note_on channel=0 note=58 velocity=58 time=13\n",
      "note_on channel=0 note=42 velocity=0 time=8\n",
      "control_change channel=0 control=64 value=120 time=31\n",
      "control_change channel=0 control=67 value=10 time=13\n",
      "note_on channel=0 note=58 velocity=0 time=0\n",
      "note_on channel=0 note=61 velocity=59 time=13\n",
      "control_change channel=0 control=64 value=115 time=48\n",
      "control_change channel=0 control=67 value=11 time=3\n",
      "note_on channel=0 note=61 velocity=0 time=10\n",
      "note_on channel=0 note=66 velocity=58 time=3\n",
      "control_change channel=0 control=64 value=68 time=49\n",
      "control_change channel=0 control=67 value=9 time=0\n",
      "control_change channel=0 control=64 value=20 time=13\n",
      "note_on channel=0 note=41 velocity=55 time=0\n",
      "note_on channel=0 note=66 velocity=0 time=8\n",
      "control_change channel=0 control=64 value=20 time=5\n",
      "note_on channel=0 note=72 velocity=72 time=18\n",
      "control_change channel=0 control=64 value=68 time=61\n",
      "control_change channel=0 control=67 value=8 time=0\n",
      "note_on channel=0 note=48 velocity=54 time=13\n",
      "control_change channel=0 control=64 value=20 time=13\n",
      "control_change channel=0 control=64 value=113 time=17\n",
      "control_change channel=0 control=64 value=110 time=11\n",
      "note_on channel=0 note=41 velocity=0 time=2\n",
      "note_on channel=0 note=48 velocity=0 time=11\n",
      "control_change channel=0 control=64 value=115 time=14\n",
      "control_change channel=0 control=64 value=102 time=2\n",
      "control_change channel=0 control=67 value=8 time=0\n",
      "note_on channel=0 note=72 velocity=0 time=11\n",
      "note_on channel=0 note=53 velocity=55 time=2\n",
      "control_change channel=0 control=64 value=119 time=39\n",
      "note_on channel=0 note=53 velocity=0 time=13\n",
      "control_change channel=0 control=64 value=117 time=7\n",
      "control_change channel=0 control=67 value=9 time=0\n",
      "note_on channel=0 note=56 velocity=56 time=13\n",
      "control_change channel=0 control=64 value=123 time=54\n",
      "control_change channel=0 control=67 value=8 time=0\n",
      "note_on channel=0 note=56 velocity=0 time=9\n",
      "note_on channel=0 note=60 velocity=53 time=4\n",
      "note_on channel=0 note=77 velocity=75 time=4\n",
      "note_on channel=0 note=68 velocity=57 time=15\n",
      "control_change channel=0 control=64 value=114 time=56\n",
      "control_change channel=0 control=67 value=8 time=9\n",
      "note_on channel=0 note=68 velocity=0 time=4\n",
      "note_on channel=0 note=65 velocity=62 time=9\n",
      "note_on channel=0 note=60 velocity=0 time=61\n",
      "control_change channel=0 control=64 value=68 time=2\n",
      "control_change channel=0 control=67 value=7 time=0\n",
      "note_on channel=0 note=77 velocity=0 time=1\n",
      "control_change channel=0 control=64 value=20 time=13\n",
      "note_on channel=0 note=39 velocity=51 time=0\n",
      "note_on channel=0 note=65 velocity=0 time=10\n",
      "control_change channel=0 control=64 value=20 time=3\n",
      "note_on channel=0 note=78 velocity=69 time=11\n",
      "control_change channel=0 control=64 value=68 time=67\n",
      "control_change channel=0 control=67 value=9 time=0\n",
      "control_change channel=0 control=64 value=20 time=14\n",
      "note_on channel=0 note=46 velocity=48 time=0\n",
      "control_change channel=0 control=64 value=102 time=20\n",
      "note_on channel=0 note=46 velocity=0 time=13\n",
      "control_change channel=0 control=64 value=97 time=34\n",
      "control_change channel=0 control=67 value=10 time=0\n",
      "note_on channel=0 note=51 velocity=51 time=13\n",
      "control_change channel=0 control=64 value=118 time=7\n",
      "control_change channel=0 control=64 value=109 time=1\n",
      "note_on channel=0 note=51 velocity=0 time=12\n",
      "note_on channel=0 note=39 velocity=0 time=1\n",
      "control_change channel=0 control=64 value=112 time=24\n",
      "control_change channel=0 control=67 value=11 time=0\n",
      "note_on channel=0 note=54 velocity=55 time=13\n",
      "control_change channel=0 control=64 value=123 time=18\n",
      "note_on channel=0 note=54 velocity=0 time=13\n",
      "control_change channel=0 control=64 value=118 time=14\n",
      "control_change channel=0 control=67 value=12 time=0\n",
      "control_change channel=0 control=64 value=118 time=8\n",
      "note_on channel=0 note=58 velocity=57 time=5\n",
      "note_on channel=0 note=78 velocity=0 time=8\n",
      "control_change channel=0 control=64 value=118 time=22\n",
      "note_on channel=0 note=58 velocity=0 time=13\n",
      "control_change channel=0 control=64 value=120 time=3\n",
      "control_change channel=0 control=67 value=11 time=0\n",
      "note_on channel=0 note=63 velocity=59 time=13\n",
      "note_on channel=0 note=63 velocity=0 time=54\n",
      "control_change channel=0 control=64 value=103 time=5\n",
      "control_change channel=0 control=67 value=10 time=0\n",
      "note_on channel=0 note=66 velocity=57 time=13\n",
      "note_on channel=0 note=78 velocity=64 time=1\n",
      "control_change channel=0 control=64 value=104 time=35\n",
      "note_on channel=0 note=78 velocity=0 time=13\n",
      "control_change channel=0 control=64 value=106 time=5\n",
      "control_change channel=0 control=67 value=10 time=0\n",
      "note_on channel=0 note=66 velocity=60 time=14\n",
      "control_change channel=0 control=64 value=116 time=22\n",
      "note_on channel=0 note=66 velocity=0 time=13\n",
      "note_on channel=0 note=66 velocity=0 time=7\n",
      "control_change channel=0 control=64 value=114 time=4\n",
      "control_change channel=0 control=67 value=10 time=0\n",
      "note_on channel=0 note=70 velocity=60 time=13\n",
      "note_on channel=0 note=70 velocity=0 time=37\n",
      "control_change channel=0 control=64 value=113 time=1\n",
      "control_change channel=0 control=67 value=8 time=0\n",
      "note_on channel=0 note=65 velocity=54 time=14\n",
      "note_on channel=0 note=77 velocity=74 time=3\n",
      "control_change channel=0 control=64 value=110 time=33\n",
      "control_change channel=0 control=64 value=112 time=15\n",
      "control_change channel=0 control=67 value=9 time=0\n",
      "note_on channel=0 note=66 velocity=60 time=13\n",
      "control_change channel=0 control=64 value=106 time=37\n",
      "control_change channel=0 control=67 value=9 time=7\n",
      "note_on channel=0 note=66 velocity=0 time=6\n",
      "note_on channel=0 note=70 velocity=60 time=7\n",
      "control_change channel=0 control=64 value=105 time=6\n",
      "note_on channel=0 note=65 velocity=0 time=13\n",
      "control_change channel=0 control=64 value=68 time=22\n",
      "control_change channel=0 control=67 value=9 time=0\n",
      "note_on channel=0 note=77 velocity=0 time=5\n",
      "note_on channel=0 note=70 velocity=0 time=6\n",
      "control_change channel=0 control=64 value=20 time=2\n",
      "note_on channel=0 note=62 velocity=55 time=0\n",
      "note_on channel=0 note=74 velocity=76 time=7\n",
      "control_change channel=0 control=64 value=20 time=6\n",
      "control_change channel=0 control=64 value=20 time=0\n",
      "control_change channel=0 control=64 value=80 time=28\n",
      "control_change channel=0 control=64 value=83 time=20\n",
      "control_change channel=0 control=67 value=11 time=0\n",
      "note_on channel=0 note=66 velocity=60 time=14\n",
      "control_change channel=0 control=64 value=84 time=32\n",
      "control_change channel=0 control=64 value=94 time=7\n",
      "note_on channel=0 note=62 velocity=0 time=6\n",
      "control_change channel=0 control=67 value=11 time=4\n",
      "note_on channel=0 note=66 velocity=0 time=3\n",
      "note_on channel=0 note=70 velocity=59 time=10\n",
      "note_on channel=0 note=74 velocity=0 time=42\n",
      "control_change channel=0 control=64 value=68 time=1\n",
      "control_change channel=0 control=67 value=7 time=0\n",
      "note_on channel=0 note=70 velocity=0 time=8\n",
      "control_change channel=0 control=64 value=20 time=5\n",
      "note_on channel=0 note=75 velocity=77 time=0\n",
      "note_on channel=0 note=63 velocity=56 time=1\n",
      "control_change channel=0 control=64 value=20 time=12\n",
      "control_change channel=0 control=64 value=20 time=0\n",
      "control_change channel=0 control=64 value=86 time=35\n",
      "control_change channel=0 control=67 value=11 time=10\n",
      "note_on channel=0 note=66 velocity=64 time=13\n",
      "control_change channel=0 control=64 value=86 time=43\n",
      "control_change channel=0 control=67 value=10 time=5\n",
      "control_change channel=0 control=64 value=99 time=2\n",
      "note_on channel=0 note=63 velocity=0 time=6\n",
      "note_on channel=0 note=70 velocity=64 time=5\n",
      "note_on channel=0 note=66 velocity=0 time=2\n",
      "note_on channel=0 note=75 velocity=0 time=28\n",
      "control_change channel=0 control=64 value=68 time=25\n",
      "control_change channel=0 control=67 value=9 time=0\n",
      "control_change channel=0 control=64 value=20 time=13\n",
      "control_change channel=0 control=64 value=20 time=0\n",
      "note_on channel=0 note=62 velocity=53 time=0\n",
      "note_on channel=0 note=70 velocity=0 time=2\n",
      "note_on channel=0 note=82 velocity=72 time=4\n",
      "control_change channel=0 control=64 value=68 time=76\n",
      "control_change channel=0 control=67 value=9 time=0\n",
      "control_change channel=0 control=64 value=20 time=13\n",
      "note_on channel=0 note=66 velocity=52 time=0\n",
      "control_change channel=0 control=64 value=101 time=21\n",
      "note_on channel=0 note=66 velocity=0 time=13\n",
      "control_change channel=0 control=64 value=101 time=25\n",
      "control_change channel=0 control=67 value=9 time=0\n",
      "note_on channel=0 note=70 velocity=55 time=13\n",
      "control_change channel=0 control=64 value=119 time=15\n",
      "note_on channel=0 note=70 velocity=0 time=14\n",
      "control_change channel=0 control=64 value=118 time=17\n",
      "control_change channel=0 control=67 value=9 time=0\n",
      "note_on channel=0 note=70 velocity=58 time=13\n",
      "control_change channel=0 control=64 value=121 time=23\n",
      "note_on channel=0 note=70 velocity=0 time=13\n",
      "control_change channel=0 control=64 value=102 time=7\n",
      "control_change channel=0 control=64 value=124 time=5\n",
      "control_change channel=0 control=67 value=9 time=0\n",
      "note_on channel=0 note=62 velocity=0 time=9\n",
      "note_on channel=0 note=78 velocity=60 time=4\n",
      "control_change channel=0 control=64 value=117 time=31\n",
      "note_on channel=0 note=78 velocity=0 time=13\n",
      "control_change channel=0 control=64 value=124 time=9\n",
      "control_change channel=0 control=67 value=8 time=0\n",
      "note_on channel=0 note=82 velocity=59 time=13\n",
      "note_on channel=0 note=82 velocity=0 time=46\n",
      "control_change channel=0 control=64 value=68 time=3\n",
      "control_change channel=0 control=67 value=12 time=0\n",
      "control_change channel=0 control=64 value=20 time=13\n",
      "note_on channel=0 note=63 velocity=55 time=0\n",
      "control_change channel=0 control=64 value=105 time=61\n",
      "control_change channel=0 control=67 value=9 time=0\n",
      "control_change channel=0 control=64 value=107 time=11\n",
      "note_on channel=0 note=66 velocity=56 time=2\n",
      "note_on channel=0 note=82 velocity=0 time=11\n",
      "control_change channel=0 control=64 value=117 time=14\n",
      "note_on channel=0 note=66 velocity=0 time=13\n",
      "control_change channel=0 control=64 value=116 time=12\n",
      "control_change channel=0 control=67 value=9 time=0\n",
      "note_on channel=0 note=70 velocity=59 time=13\n",
      "control_change channel=0 control=64 value=121 time=30\n",
      "note_on channel=0 note=70 velocity=0 time=13\n",
      "control_change channel=0 control=64 value=123 time=8\n",
      "control_change channel=0 control=67 value=9 time=0\n",
      "note_on channel=0 note=70 velocity=60 time=13\n",
      "note_on channel=0 note=63 velocity=0 time=20\n",
      "control_change channel=0 control=64 value=120 time=15\n",
      "control_change channel=0 control=67 value=9 time=12\n",
      "note_on channel=0 note=70 velocity=0 time=2\n",
      "note_on channel=0 note=78 velocity=62 time=11\n",
      "control_change channel=0 control=67 value=10 time=44\n",
      "control_change channel=0 control=64 value=115 time=1\n",
      "note_on channel=0 note=82 velocity=61 time=12\n",
      "note_on channel=0 note=78 velocity=0 time=2\n",
      "control_change channel=0 control=64 value=68 time=59\n",
      "control_change channel=0 control=67 value=11 time=0\n",
      "note_on channel=0 note=82 velocity=0 time=11\n",
      "control_change channel=0 control=64 value=20 time=3\n",
      "control_change channel=0 control=64 value=20 time=0\n",
      "control_change channel=0 control=64 value=20 time=0\n",
      "note_on channel=0 note=56 velocity=53 time=0\n",
      "note_on channel=0 note=80 velocity=74 time=5\n",
      "note_on channel=0 note=60 velocity=53 time=3\n",
      "control_change channel=0 control=64 value=93 time=42\n",
      "note_on channel=0 note=60 velocity=0 time=13\n",
      "control_change channel=0 control=64 value=82 time=16\n",
      "control_change channel=0 control=67 value=11 time=0\n",
      "note_on channel=0 note=64 velocity=54 time=13\n",
      "control_change channel=0 control=64 value=115 time=22\n",
      "note_on channel=0 note=64 velocity=0 time=14\n",
      "control_change channel=0 control=64 value=102 time=13\n",
      "control_change channel=0 control=67 value=11 time=0\n",
      "control_change channel=0 control=64 value=103 time=10\n",
      "note_on channel=0 note=68 velocity=56 time=3\n",
      "note_on channel=0 note=56 velocity=0 time=10\n",
      "control_change channel=0 control=64 value=123 time=16\n",
      "note_on channel=0 note=68 velocity=0 time=13\n",
      "control_change channel=0 control=64 value=119 time=7\n",
      "control_change channel=0 control=67 value=11 time=0\n",
      "note_on channel=0 note=80 velocity=0 time=12\n",
      "note_on channel=0 note=72 velocity=59 time=2\n",
      "control_change channel=0 control=64 value=125 time=37\n",
      "note_on channel=0 note=72 velocity=0 time=13\n",
      "control_change channel=0 control=64 value=127 time=2\n",
      "control_change channel=0 control=67 value=9 time=0\n",
      "note_on channel=0 note=76 velocity=61 time=13\n",
      "control_change channel=0 control=64 value=123 time=43\n",
      "control_change channel=0 control=67 value=9 time=13\n",
      "note_on channel=0 note=76 velocity=0 time=0\n",
      "note_on channel=0 note=80 velocity=61 time=13\n",
      "control_change channel=0 control=64 value=68 time=49\n",
      "control_change channel=0 control=67 value=9 time=0\n",
      "note_on channel=0 note=80 velocity=0 time=6\n",
      "control_change channel=0 control=64 value=20 time=7\n",
      "control_change channel=0 control=64 value=20 time=0\n",
      "control_change channel=0 control=64 value=20 time=0\n",
      "note_on channel=0 note=49 velocity=52 time=0\n",
      "note_on channel=0 note=80 velocity=74 time=7\n",
      "note_on channel=0 note=77 velocity=57 time=10\n",
      "control_change channel=0 control=64 value=68 time=63\n",
      "control_change channel=0 control=67 value=11 time=0\n",
      "control_change channel=0 control=64 value=20 time=13\n",
      "note_on channel=0 note=56 velocity=51 time=0\n",
      "control_change channel=0 control=64 value=94 time=11\n",
      "note_on channel=0 note=56 velocity=0 time=13\n",
      "control_change channel=0 control=64 value=91 time=22\n",
      "control_change channel=0 control=67 value=12 time=0\n",
      "note_on channel=0 note=61 velocity=55 time=13\n",
      "control_change channel=0 control=64 value=110 time=11\n",
      "note_on channel=0 note=61 velocity=0 time=13\n",
      "control_change channel=0 control=64 value=110 time=15\n",
      "control_change channel=0 control=67 value=13 time=0\n",
      "note_on channel=0 note=65 velocity=59 time=13\n",
      "control_change channel=0 control=64 value=102 time=16\n",
      "control_change channel=0 control=64 value=116 time=2\n",
      "note_on channel=0 note=49 velocity=0 time=11\n",
      "note_on channel=0 note=65 velocity=0 time=2\n",
      "control_change channel=0 control=64 value=118 time=10\n",
      "control_change channel=0 control=67 value=14 time=0\n",
      "note_on channel=0 note=68 velocity=60 time=14\n",
      "control_change channel=0 control=64 value=113 time=25\n",
      "note_on channel=0 note=68 velocity=0 time=13\n",
      "control_change channel=0 control=64 value=119 time=3\n",
      "control_change channel=0 control=67 value=14 time=0\n",
      "note_on channel=0 note=73 velocity=61 time=13\n",
      "control_change channel=0 control=64 value=105 time=33\n",
      "control_change channel=0 control=67 value=20 time=11\n",
      "note_on channel=0 note=73 velocity=0 time=2\n",
      "control_change channel=0 control=64 value=68 time=2\n",
      "control_change channel=0 control=67 value=16 time=0\n",
      "control_change channel=0 control=64 value=118 time=9\n",
      "note_on channel=0 note=53 velocity=62 time=0\n",
      "control_change channel=0 control=64 value=20 time=4\n",
      "note_on channel=0 note=56 velocity=61 time=0\n",
      "note_on channel=0 note=77 velocity=0 time=9\n",
      "control_change channel=0 control=64 value=20 time=5\n",
      "control_change channel=0 control=64 value=116 time=20\n",
      "control_change channel=0 control=64 value=96 time=1\n",
      "note_on channel=0 note=80 velocity=0 time=13\n",
      "note_on channel=0 note=56 velocity=0 time=1\n",
      "control_change channel=0 control=64 value=86 time=5\n",
      "control_change channel=0 control=67 value=15 time=0\n",
      "note_on channel=0 note=60 velocity=60 time=13\n",
      "control_change channel=0 control=64 value=113 time=24\n",
      "note_on channel=0 note=60 velocity=0 time=14\n",
      "control_change channel=0 control=64 value=107 time=5\n",
      "control_change channel=0 control=67 value=13 time=0\n",
      "note_on channel=0 note=65 velocity=62 time=13\n",
      "control_change channel=0 control=64 value=103 time=10\n",
      "note_on channel=0 note=53 velocity=0 time=14\n",
      "control_change channel=0 control=64 value=122 time=2\n",
      "note_on channel=0 note=65 velocity=0 time=14\n",
      "control_change channel=0 control=64 value=120 time=1\n",
      "control_change channel=0 control=67 value=12 time=0\n",
      "note_on channel=0 note=68 velocity=64 time=13\n",
      "control_change channel=0 control=64 value=124 time=34\n",
      "control_change channel=0 control=67 value=11 time=7\n",
      "note_on channel=0 note=68 velocity=0 time=7\n",
      "note_on channel=0 note=72 velocity=66 time=7\n",
      "control_change channel=0 control=67 value=10 time=38\n",
      "control_change channel=0 control=64 value=122 time=5\n",
      "note_on channel=0 note=77 velocity=67 time=8\n",
      "note_on channel=0 note=72 velocity=0 time=5\n",
      "control_change channel=0 control=67 value=11 time=44\n",
      "control_change channel=0 control=67 value=12 time=1\n",
      "control_change channel=0 control=64 value=68 time=3\n",
      "control_change channel=0 control=67 value=13 time=2\n",
      "note_on channel=0 note=56 velocity=61 time=7\n",
      "control_change channel=0 control=67 value=9 time=1\n",
      "note_on channel=0 note=83 velocity=80 time=0\n",
      "control_change channel=0 control=64 value=20 time=3\n",
      "control_change channel=0 control=64 value=20 time=0\n",
      "control_change channel=0 control=64 value=20 time=0\n",
      "control_change channel=0 control=64 value=20 time=0\n",
      "note_on channel=0 note=77 velocity=0 time=0\n",
      "note_on channel=0 note=80 velocity=71 time=2\n",
      "note_on channel=0 note=59 velocity=59 time=8\n",
      "control_change channel=0 control=64 value=94 time=32\n",
      "note_on channel=0 note=59 velocity=0 time=13\n",
      "control_change channel=0 control=64 value=83 time=11\n",
      "control_change channel=0 control=67 value=9 time=0\n",
      "note_on channel=0 note=64 velocity=60 time=13\n",
      "control_change channel=0 control=64 value=115 time=29\n",
      "control_change channel=0 control=64 value=102 time=13\n",
      "note_on channel=0 note=64 velocity=0 time=0\n",
      "control_change channel=0 control=64 value=103 time=5\n",
      "control_change channel=0 control=64 value=104 time=0\n",
      "control_change channel=0 control=67 value=9 time=0\n",
      "note_on channel=0 note=56 velocity=0 time=8\n",
      "note_on channel=0 note=68 velocity=61 time=5\n",
      "note_on channel=0 note=80 velocity=0 time=0\n",
      "control_change channel=0 control=64 value=102 time=23\n",
      "control_change channel=0 control=64 value=122 time=4\n",
      "note_on channel=0 note=83 velocity=0 time=9\n",
      "note_on channel=0 note=68 velocity=0 time=4\n",
      "control_change channel=0 control=64 value=120 time=2\n",
      "control_change channel=0 control=67 value=9 time=0\n",
      "note_on channel=0 note=71 velocity=64 time=13\n",
      "control_change channel=0 control=67 value=8 time=32\n",
      "control_change channel=0 control=64 value=125 time=6\n",
      "control_change channel=0 control=67 value=5 time=6\n",
      "note_on channel=0 note=85 velocity=82 time=1\n",
      "note_on channel=0 note=71 velocity=0 time=6\n",
      "note_on channel=0 note=76 velocity=62 time=7\n",
      "control_change channel=0 control=67 value=7 time=44\n",
      "control_change channel=0 control=64 value=120 time=2\n",
      "note_on channel=0 note=80 velocity=65 time=11\n",
      "note_on channel=0 note=76 velocity=0 time=2\n",
      "control_change channel=0 control=64 value=109 time=53\n",
      "control_change channel=0 control=67 value=12 time=3\n",
      "control_change channel=0 control=67 value=9 time=2\n",
      "note_on channel=0 note=80 velocity=0 time=8\n",
      "control_change channel=0 control=67 value=12 time=2\n",
      "control_change channel=0 control=64 value=68 time=1\n",
      "note_on channel=0 note=49 velocity=54 time=0\n",
      "note_on channel=0 note=80 velocity=76 time=3\n",
      "note_on channel=0 note=77 velocity=61 time=9\n",
      "control_change channel=0 control=64 value=20 time=2\n",
      "control_change channel=0 control=64 value=20 time=0\n",
      "control_change channel=0 control=64 value=20 time=0\n",
      "note_on channel=0 note=85 velocity=0 time=0\n",
      "control_change channel=0 control=64 value=68 time=63\n",
      "control_change channel=0 control=67 value=10 time=0\n",
      "control_change channel=0 control=64 value=20 time=11\n",
      "note_on channel=0 note=56 velocity=53 time=2\n",
      "control_change channel=0 control=64 value=87 time=11\n",
      "note_on channel=0 note=56 velocity=0 time=14\n",
      "control_change channel=0 control=64 value=83 time=22\n",
      "control_change channel=0 control=67 value=11 time=0\n",
      "note_on channel=0 note=61 velocity=57 time=14\n",
      "control_change channel=0 control=64 value=103 time=10\n",
      "note_on channel=0 note=61 velocity=0 time=13\n",
      "control_change channel=0 control=64 value=104 time=15\n",
      "control_change channel=0 control=67 value=12 time=0\n",
      "note_on channel=0 note=65 velocity=60 time=13\n",
      "control_change channel=0 control=64 value=111 time=16\n",
      "control_change channel=0 control=64 value=94 time=1\n",
      "note_on channel=0 note=65 velocity=0 time=12\n",
      "note_on channel=0 note=49 velocity=0 time=1\n",
      "control_change channel=0 control=64 value=115 time=10\n",
      "control_change channel=0 control=67 value=13 time=0\n",
      "note_on channel=0 note=68 velocity=62 time=13\n",
      "control_change channel=0 control=64 value=109 time=24\n",
      "note_on channel=0 note=68 velocity=0 time=13\n",
      "control_change channel=0 control=64 value=117 time=2\n",
      "control_change channel=0 control=67 value=13 time=0\n",
      "note_on channel=0 note=73 velocity=63 time=13\n",
      "control_change channel=0 control=64 value=101 time=33\n",
      "control_change channel=0 control=67 value=18 time=11\n",
      "note_on channel=0 note=73 velocity=0 time=2\n",
      "control_change channel=0 control=64 value=68 time=2\n",
      "control_change channel=0 control=67 value=15 time=0\n",
      "note_on channel=0 note=53 velocity=64 time=9\n",
      "control_change channel=0 control=64 value=20 time=4\n",
      "note_on channel=0 note=56 velocity=63 time=0\n",
      "control_change channel=0 control=64 value=20 time=14\n",
      "control_change channel=0 control=64 value=90 time=21\n",
      "control_change channel=0 control=64 value=110 time=1\n",
      "note_on channel=0 note=56 velocity=0 time=12\n",
      "control_change channel=0 control=64 value=111 time=1\n",
      "note_on channel=0 note=77 velocity=0 time=0\n",
      "control_change channel=0 control=64 value=81 time=1\n",
      "control_change channel=0 control=67 value=14 time=0\n",
      "note_on channel=0 note=60 velocity=61 time=13\n",
      "note_on channel=0 note=80 velocity=0 time=0\n",
      "control_change channel=0 control=64 value=109 time=25\n",
      "note_on channel=0 note=60 velocity=0 time=13\n",
      "control_change channel=0 control=64 value=102 time=4\n",
      "control_change channel=0 control=67 value=12 time=0\n",
      "note_on channel=0 note=65 velocity=63 time=14\n",
      "control_change channel=0 control=64 value=103 time=11\n",
      "control_change channel=0 control=64 value=119 time=12\n",
      "note_on channel=0 note=53 velocity=0 time=1\n",
      "note_on channel=0 note=65 velocity=0 time=13\n",
      "control_change channel=0 control=64 value=118 time=2\n",
      "control_change channel=0 control=67 value=11 time=0\n",
      "note_on channel=0 note=68 velocity=65 time=13\n",
      "control_change channel=0 control=64 value=122 time=32\n",
      "control_change channel=0 control=67 value=10 time=7\n",
      "note_on channel=0 note=68 velocity=0 time=6\n",
      "note_on channel=0 note=72 velocity=67 time=8\n",
      "control_change channel=0 control=67 value=9 time=36\n",
      "control_change channel=0 control=64 value=121 time=4\n",
      "note_on channel=0 note=77 velocity=68 time=9\n",
      "note_on channel=0 note=72 velocity=0 time=4\n",
      "control_change channel=0 control=67 value=10 time=44\n",
      "control_change channel=0 control=67 value=10 time=1\n",
      "control_change channel=0 control=64 value=68 time=2\n",
      "control_change channel=0 control=67 value=10 time=6\n",
      "control_change channel=0 control=67 value=8 time=3\n",
      "note_on channel=0 note=56 velocity=62 time=1\n",
      "note_on channel=0 note=83 velocity=79 time=1\n",
      "control_change channel=0 control=64 value=20 time=2\n",
      "control_change channel=0 control=64 value=20 time=0\n",
      "control_change channel=0 control=64 value=20 time=0\n",
      "control_change channel=0 control=64 value=20 time=0\n",
      "note_on channel=0 note=77 velocity=0 time=0\n",
      "note_on channel=0 note=80 velocity=70 time=7\n",
      "note_on channel=0 note=59 velocity=59 time=2\n",
      "control_change channel=0 control=64 value=92 time=31\n",
      "note_on channel=0 note=59 velocity=0 time=13\n",
      "control_change channel=0 control=64 value=68 time=6\n",
      "control_change channel=0 control=67 value=9 time=0\n",
      "note_on channel=0 note=64 velocity=62 time=13\n",
      "control_change channel=0 control=64 value=20 time=3\n",
      "control_change channel=0 control=64 value=111 time=25\n",
      "note_on channel=0 note=64 velocity=0 time=14\n",
      "control_change channel=0 control=64 value=99 time=2\n",
      "control_change channel=0 control=67 value=8 time=0\n",
      "control_change channel=0 control=64 value=107 time=2\n",
      "control_change channel=0 control=64 value=103 time=5\n",
      "note_on channel=0 note=68 velocity=64 time=6\n",
      "note_on channel=0 note=80 velocity=0 time=2\n",
      "note_on channel=0 note=56 velocity=0 time=5\n",
      "control_change channel=0 control=64 value=103 time=18\n",
      "control_change channel=0 control=64 value=120 time=0\n",
      "note_on channel=0 note=68 velocity=0 time=13\n",
      "note_on channel=0 note=83 velocity=0 time=0\n",
      "control_change channel=0 control=64 value=116 time=1\n",
      "control_change channel=0 control=67 value=8 time=0\n",
      "note_on channel=0 note=71 velocity=66 time=13\n",
      "control_change channel=0 control=64 value=123 time=33\n",
      "control_change channel=0 control=67 value=7 time=1\n",
      "control_change channel=0 control=67 value=4 time=4\n",
      "note_on channel=0 note=71 velocity=0 time=8\n",
      "note_on channel=0 note=80 velocity=78 time=1\n",
      "control_change channel=0 control=67 value=6 time=39\n",
      "control_change channel=0 control=64 value=113 time=9\n",
      "note_on channel=0 note=76 velocity=68 time=4\n",
      "control_change channel=0 control=67 value=12 time=50\n",
      "control_change channel=0 control=64 value=109 time=7\n",
      "control_change channel=0 control=64 value=68 time=4\n",
      "control_change channel=0 control=67 value=11 time=1\n",
      "note_on channel=0 note=59 velocity=65 time=1\n",
      "control_change channel=0 control=67 value=11 time=1\n",
      "note_on channel=0 note=80 velocity=0 time=6\n",
      "control_change channel=0 control=64 value=20 time=4\n",
      "control_change channel=0 control=64 value=20 time=0\n",
      "control_change channel=0 control=64 value=20 time=0\n",
      "note_on channel=0 note=76 velocity=0 time=0\n",
      "note_on channel=0 note=61 velocity=63 time=1\n",
      "control_change channel=0 control=64 value=81 time=34\n",
      "note_on channel=0 note=61 velocity=0 time=13\n",
      "control_change channel=0 control=64 value=68 time=4\n",
      "control_change channel=0 control=67 value=9 time=0\n",
      "control_change channel=0 control=64 value=20 time=11\n",
      "note_on channel=0 note=64 velocity=64 time=2\n",
      "control_change channel=0 control=64 value=102 time=26\n",
      "note_on channel=0 note=64 velocity=0 time=13\n",
      "control_change channel=0 control=64 value=96 time=2\n",
      "control_change channel=0 control=67 value=8 time=0\n",
      "note_on channel=0 note=68 velocity=66 time=13\n",
      "control_change channel=0 control=64 value=97 time=1\n",
      "control_change channel=0 control=64 value=93 time=12\n",
      "note_on channel=0 note=59 velocity=0 time=1\n",
      "control_change channel=0 control=64 value=115 time=9\n",
      "control_change channel=0 control=67 value=8 time=12\n",
      "note_on channel=0 note=68 velocity=0 time=1\n",
      "control_change channel=0 control=64 value=113 time=2\n",
      "control_change channel=0 control=67 value=9 time=0\n",
      "note_on channel=0 note=71 velocity=66 time=10\n",
      "note_on channel=0 note=73 velocity=70 time=3\n",
      "control_change channel=0 control=64 value=118 time=29\n",
      "control_change channel=0 control=67 value=4 time=5\n",
      "control_change channel=0 control=67 value=6 time=0\n",
      "note_on channel=0 note=73 velocity=0 time=8\n",
      "note_on channel=0 note=80 velocity=81 time=6\n",
      "control_change channel=0 control=67 value=5 time=33\n",
      "control_change channel=0 control=64 value=111 time=7\n",
      "note_on channel=0 note=76 velocity=74 time=6\n",
      "control_change channel=0 control=64 value=117 time=21\n",
      "note_on channel=0 note=71 velocity=0 time=13\n",
      "control_change channel=0 control=64 value=107 time=3\n",
      "control_change channel=0 control=67 value=10 time=9\n",
      "note_on channel=0 note=80 velocity=0 time=4\n",
      "control_change channel=0 control=64 value=68 time=5\n",
      "control_change channel=0 control=67 value=7 time=0\n",
      "control_change channel=0 control=67 value=9 time=1\n",
      "note_on channel=0 note=61 velocity=70 time=4\n",
      "control_change channel=0 control=64 value=20 time=8\n",
      "control_change channel=0 control=64 value=20 time=0\n",
      "note_on channel=0 note=76 velocity=0 time=0\n",
      "note_on channel=0 note=64 velocity=66 time=1\n",
      "control_change channel=0 control=64 value=20 time=12\n",
      "control_change channel=0 control=64 value=89 time=19\n",
      "note_on channel=0 note=64 velocity=0 time=13\n",
      "control_change channel=0 control=64 value=79 time=7\n",
      "control_change channel=0 control=67 value=7 time=0\n",
      "note_on channel=0 note=68 velocity=66 time=13\n",
      "control_change channel=0 control=64 value=108 time=28\n",
      "note_on channel=0 note=68 velocity=0 time=13\n",
      "control_change channel=0 control=64 value=101 time=2\n",
      "control_change channel=0 control=67 value=6 time=0\n",
      "note_on channel=0 note=71 velocity=67 time=13\n",
      "control_change channel=0 control=64 value=102 time=7\n",
      "control_change channel=0 control=64 value=97 time=4\n",
      "note_on channel=0 note=61 velocity=0 time=9\n",
      "control_change channel=0 control=64 value=118 time=5\n",
      "control_change channel=0 control=67 value=5 time=9\n",
      "control_change channel=0 control=64 value=118 time=4\n",
      "control_change channel=0 control=67 value=4 time=0\n",
      "note_on channel=0 note=71 velocity=0 time=0\n",
      "note_on channel=0 note=73 velocity=68 time=9\n",
      "note_on channel=0 note=76 velocity=74 time=4\n",
      "control_change channel=0 control=64 value=121 time=34\n",
      "control_change channel=0 control=67 value=0 time=3\n",
      "control_change channel=0 control=67 value=4 time=1\n",
      "note_on channel=0 note=76 velocity=0 time=9\n",
      "note_on channel=0 note=85 velocity=86 time=4\n",
      "control_change channel=0 control=67 value=1 time=34\n",
      "control_change channel=0 control=64 value=112 time=11\n",
      "note_on channel=0 note=80 velocity=77 time=2\n",
      "control_change channel=0 control=64 value=119 time=27\n",
      "note_on channel=0 note=73 velocity=0 time=13\n",
      "control_change channel=0 control=64 value=108 time=3\n",
      "control_change channel=0 control=67 value=8 time=13\n",
      "note_on channel=0 note=85 velocity=0 time=0\n",
      "control_change channel=0 control=67 value=3 time=1\n",
      "control_change channel=0 control=64 value=68 time=4\n",
      "control_change channel=0 control=67 value=8 time=5\n",
      "note_on channel=0 note=64 velocity=72 time=3\n",
      "control_change channel=0 control=64 value=20 time=5\n",
      "note_on channel=0 note=80 velocity=0 time=0\n",
      "note_on channel=0 note=68 velocity=66 time=5\n",
      "control_change channel=0 control=64 value=20 time=8\n",
      "control_change channel=0 control=64 value=20 time=0\n",
      "control_change channel=0 control=64 value=98 time=26\n",
      "note_on channel=0 note=68 velocity=0 time=14\n",
      "control_change channel=0 control=64 value=85 time=2\n",
      "control_change channel=0 control=67 value=6 time=0\n",
      "note_on channel=0 note=71 velocity=66 time=13\n",
      "control_change channel=0 control=64 value=112 time=32\n",
      "control_change channel=0 control=67 value=5 time=11\n",
      "note_on channel=0 note=71 velocity=0 time=3\n",
      "note_on channel=0 note=73 velocity=69 time=11\n",
      "control_change channel=0 control=64 value=107 time=11\n",
      "note_on channel=0 note=64 velocity=0 time=13\n",
      "control_change channel=0 control=64 value=121 time=9\n",
      "control_change channel=0 control=67 value=5 time=0\n",
      "control_change channel=0 control=64 value=103 time=2\n",
      "control_change channel=0 control=67 value=3 time=3\n",
      "note_on channel=0 note=73 velocity=0 time=8\n",
      "note_on channel=0 note=76 velocity=68 time=1\n",
      "note_on channel=0 note=80 velocity=75 time=4\n",
      "control_change channel=0 control=67 value=0 time=43\n",
      "control_change channel=0 control=67 value=3 time=3\n",
      "control_change channel=0 control=64 value=120 time=1\n",
      "note_on channel=0 note=88 velocity=86 time=12\n",
      "note_on channel=0 note=80 velocity=0 time=2\n",
      "control_change channel=0 control=64 value=123 time=35\n",
      "control_change channel=0 control=67 value=2 time=0\n",
      "note_on channel=0 note=83 velocity=71 time=14\n",
      "control_change channel=0 control=64 value=110 time=6\n",
      "control_change channel=0 control=64 value=120 time=38\n",
      "control_change channel=0 control=64 value=106 time=11\n",
      "note_on channel=0 note=76 velocity=0 time=3\n",
      "control_change channel=0 control=64 value=103 time=7\n",
      "control_change channel=0 control=67 value=6 time=0\n",
      "note_on channel=0 note=88 velocity=0 time=3\n",
      "control_change channel=0 control=67 value=5 time=3\n",
      "control_change channel=0 control=64 value=68 time=7\n",
      "note_on channel=0 note=68 velocity=68 time=0\n",
      "note_on channel=0 note=92 velocity=85 time=6\n",
      "control_change channel=0 control=64 value=20 time=7\n",
      "control_change channel=0 control=64 value=20 time=0\n",
      "note_on channel=0 note=83 velocity=0 time=0\n",
      "control_change channel=0 control=64 value=68 time=55\n",
      "control_change channel=0 control=67 value=6 time=0\n",
      "control_change channel=0 control=64 value=20 time=9\n",
      "note_on channel=0 note=69 velocity=60 time=4\n",
      "control_change channel=0 control=64 value=100 time=19\n",
      "note_on channel=0 note=69 velocity=0 time=13\n",
      "control_change channel=0 control=64 value=96 time=17\n",
      "control_change channel=0 control=67 value=5 time=0\n",
      "note_on channel=0 note=73 velocity=63 time=13\n",
      "control_change channel=0 control=64 value=120 time=16\n",
      "note_on channel=0 note=73 velocity=0 time=13\n",
      "control_change channel=0 control=64 value=118 time=6\n",
      "control_change channel=0 control=67 value=6 time=0\n",
      "note_on channel=0 note=80 velocity=67 time=13\n",
      "control_change channel=0 control=64 value=125 time=26\n",
      "control_change channel=0 control=64 value=111 time=5\n",
      "control_change channel=0 control=67 value=5 time=7\n",
      "note_on channel=0 note=80 velocity=0 time=1\n",
      "note_on channel=0 note=68 velocity=0 time=5\n",
      "note_on channel=0 note=85 velocity=70 time=7\n",
      "control_change channel=0 control=64 value=109 time=30\n",
      "control_change channel=0 control=64 value=122 time=6\n",
      "control_change channel=0 control=67 value=4 time=7\n",
      "note_on channel=0 note=92 velocity=0 time=0\n",
      "note_on channel=0 note=85 velocity=0 time=6\n",
      "note_on channel=0 note=81 velocity=70 time=7\n",
      "control_change channel=0 control=64 value=68 time=38\n",
      "control_change channel=0 control=67 value=6 time=2\n",
      "control_change channel=0 control=67 value=6 time=0\n",
      "control_change channel=0 control=64 value=20 time=11\n",
      "control_change channel=0 control=64 value=20 time=0\n",
      "note_on channel=0 note=81 velocity=0 time=0\n",
      "note_on channel=0 note=66 velocity=71 time=2\n",
      "note_on channel=0 note=90 velocity=84 time=1\n",
      "control_change channel=0 control=64 value=68 time=55\n",
      "control_change channel=0 control=67 value=5 time=0\n",
      "control_change channel=0 control=64 value=20 time=5\n",
      "note_on channel=0 note=69 velocity=63 time=9\n",
      "control_change channel=0 control=64 value=97 time=19\n",
      "note_on channel=0 note=69 velocity=0 time=13\n",
      "control_change channel=0 control=64 value=95 time=10\n",
      "control_change channel=0 control=67 value=4 time=0\n",
      "note_on channel=0 note=73 velocity=66 time=13\n",
      "control_change channel=0 control=64 value=115 time=17\n",
      "note_on channel=0 note=73 velocity=0 time=13\n",
      "control_change channel=0 control=64 value=115 time=3\n",
      "control_change channel=0 control=67 value=5 time=0\n",
      "note_on channel=0 note=78 velocity=68 time=14\n",
      "control_change channel=0 control=64 value=121 time=23\n",
      "control_change channel=0 control=64 value=109 time=6\n",
      "control_change channel=0 control=67 value=5 time=4\n",
      "note_on channel=0 note=78 velocity=0 time=3\n",
      "note_on channel=0 note=66 velocity=0 time=6\n",
      "note_on channel=0 note=85 velocity=70 time=4\n",
      "control_change channel=0 control=64 value=120 time=32\n",
      "control_change channel=0 control=67 value=5 time=3\n",
      "note_on channel=0 note=85 velocity=0 time=11\n",
      "note_on channel=0 note=81 velocity=69 time=3\n",
      "control_change channel=0 control=64 value=68 time=36\n",
      "control_change channel=0 control=67 value=5 time=3\n",
      "control_change channel=0 control=67 value=5 time=1\n",
      "control_change channel=0 control=64 value=20 time=9\n",
      "note_on channel=0 note=81 velocity=0 time=0\n",
      "note_on channel=0 note=65 velocity=80 time=3\n",
      "note_on channel=0 note=66 velocity=69 time=2\n",
      "control_change channel=0 control=64 value=109 time=37\n",
      "control_change channel=0 control=67 value=4 time=11\n",
      "note_on channel=0 note=66 velocity=0 time=3\n",
      "note_on channel=0 note=69 velocity=67 time=11\n",
      "control_change channel=0 control=64 value=116 time=28\n",
      "control_change channel=0 control=67 value=4 time=10\n",
      "note_on channel=0 note=69 velocity=0 time=4\n",
      "note_on channel=0 note=73 velocity=71 time=9\n",
      "control_change channel=0 control=64 value=115 time=17\n",
      "note_on channel=0 note=90 velocity=0 time=13\n",
      "control_change channel=0 control=64 value=125 time=3\n",
      "control_change channel=0 control=67 value=3 time=2\n",
      "note_on channel=0 note=73 velocity=0 time=11\n",
      "control_change channel=0 control=64 value=106 time=1\n",
      "note_on channel=0 note=78 velocity=73 time=1\n",
      "note_on channel=0 note=65 velocity=0 time=13\n",
      "control_change channel=0 control=67 value=3 time=22\n",
      "control_change channel=0 control=64 value=125 time=7\n",
      "note_on channel=0 note=85 velocity=75 time=6\n",
      "note_on channel=0 note=78 velocity=0 time=8\n",
      "control_change channel=0 control=67 value=3 time=29\n",
      "control_change channel=0 control=64 value=119 time=12\n",
      "note_on channel=0 note=81 velocity=73 time=1\n",
      "note_on channel=0 note=85 velocity=0 time=13\n",
      "control_change channel=0 control=67 value=4 time=34\n",
      "control_change channel=0 control=64 value=68 time=8\n",
      "control_change channel=0 control=67 value=4 time=5\n",
      "control_change channel=0 control=67 value=4 time=1\n",
      "note_on channel=0 note=90 velocity=85 time=0\n",
      "control_change channel=0 control=64 value=20 time=7\n",
      "control_change channel=0 control=64 value=20 time=0\n",
      "control_change channel=0 control=64 value=20 time=0\n",
      "note_on channel=0 note=81 velocity=0 time=0\n",
      "note_on channel=0 note=64 velocity=67 time=5\n",
      "note_on channel=0 note=66 velocity=63 time=1\n",
      "control_change channel=0 control=64 value=83 time=38\n",
      "note_on channel=0 note=66 velocity=0 time=13\n",
      "control_change channel=0 control=64 value=68 time=5\n",
      "control_change channel=0 control=67 value=4 time=0\n",
      "control_change channel=0 control=64 value=20 time=5\n",
      "note_on channel=0 note=69 velocity=63 time=9\n",
      "control_change channel=0 control=64 value=98 time=14\n",
      "note_on channel=0 note=69 velocity=0 time=13\n",
      "control_change channel=0 control=64 value=93 time=14\n",
      "control_change channel=0 control=67 value=3 time=0\n",
      "note_on channel=0 note=73 velocity=67 time=13\n",
      "control_change channel=0 control=64 value=116 time=13\n",
      "note_on channel=0 note=73 velocity=0 time=13\n",
      "control_change channel=0 control=64 value=115 time=6\n",
      "control_change channel=0 control=67 value=4 time=0\n",
      "note_on channel=0 note=78 velocity=69 time=13\n",
      "control_change channel=0 control=64 value=107 time=6\n",
      "note_on channel=0 note=64 velocity=0 time=14\n",
      "control_change channel=0 control=64 value=122 time=2\n",
      "control_change channel=0 control=67 value=4 time=13\n",
      "note_on channel=0 note=78 velocity=0 time=0\n",
      "note_on channel=0 note=85 velocity=72 time=13\n",
      "control_change channel=0 control=64 value=120 time=30\n",
      "control_change channel=0 control=67 value=4 time=6\n",
      "note_on channel=0 note=85 velocity=0 time=7\n",
      "note_on channel=0 note=81 velocity=71 time=6\n",
      "control_change channel=0 control=64 value=68 time=34\n",
      "control_change channel=0 control=67 value=5 time=6\n",
      "control_change channel=0 control=67 value=4 time=4\n",
      "control_change channel=0 control=64 value=20 time=3\n",
      "note_on channel=0 note=81 velocity=0 time=0\n",
      "note_on channel=0 note=63 velocity=81 time=6\n",
      "note_on channel=0 note=66 velocity=72 time=4\n",
      "control_change channel=0 control=64 value=106 time=32\n",
      "note_on channel=0 note=66 velocity=0 time=13\n",
      "control_change channel=0 control=64 value=85 time=2\n",
      "control_change channel=0 control=67 value=3 time=0\n",
      "note_on channel=0 note=69 velocity=68 time=13\n",
      "control_change channel=0 control=64 value=113 time=21\n",
      "note_on channel=0 note=69 velocity=0 time=13\n",
      "control_change channel=0 control=64 value=108 time=4\n",
      "control_change channel=0 control=67 value=3 time=0\n",
      "note_on channel=0 note=73 velocity=71 time=13\n",
      "control_change channel=0 control=64 value=111 time=24\n",
      "control_change channel=0 control=64 value=124 time=2\n",
      "control_change channel=0 control=67 value=3 time=9\n",
      "note_on channel=0 note=90 velocity=0 time=2\n",
      "note_on channel=0 note=73 velocity=0 time=2\n",
      "note_on channel=0 note=78 velocity=73 time=9\n",
      "control_change channel=0 control=64 value=113 time=10\n",
      "note_on channel=0 note=63 velocity=0 time=14\n",
      "control_change channel=0 control=64 value=126 time=12\n",
      "control_change channel=0 control=67 value=3 time=0\n",
      "note_on channel=0 note=78 velocity=0 time=13\n",
      "note_on channel=0 note=85 velocity=75 time=1\n",
      "control_change channel=0 control=67 value=2 time=35\n",
      "control_change channel=0 control=64 value=122 time=8\n",
      "note_on channel=0 note=81 velocity=74 time=5\n",
      "note_on channel=0 note=85 velocity=0 time=8\n",
      "control_change channel=0 control=67 value=4 time=34\n",
      "control_change channel=0 control=67 value=1 time=6\n",
      "control_change channel=0 control=64 value=68 time=1\n",
      "control_change channel=0 control=67 value=1 time=0\n",
      "note_on channel=0 note=93 velocity=93 time=6\n",
      "note_on channel=0 note=61 velocity=81 time=6\n",
      "control_change channel=0 control=64 value=20 time=1\n",
      "note_on channel=0 note=81 velocity=0 time=0\n",
      "note_on channel=0 note=64 velocity=71 time=1\n",
      "control_change channel=0 control=64 value=20 time=12\n",
      "control_change channel=0 control=64 value=20 time=0\n",
      "control_change channel=0 control=64 value=96 time=23\n",
      "note_on channel=0 note=64 velocity=0 time=13\n",
      "control_change channel=0 control=64 value=82 time=9\n",
      "control_change channel=0 control=67 value=0 time=0\n",
      "note_on channel=0 note=69 velocity=69 time=13\n",
      "control_change channel=0 control=64 value=114 time=24\n",
      "note_on channel=0 note=69 velocity=0 time=14\n",
      "control_change channel=0 control=64 value=107 time=5\n",
      "control_change channel=0 control=67 value=1 time=0\n",
      "note_on channel=0 note=73 velocity=72 time=13\n",
      "control_change channel=0 control=64 value=111 time=15\n",
      "note_on channel=0 note=61 velocity=0 time=14\n",
      "control_change channel=0 control=64 value=125 time=1\n",
      "control_change channel=0 control=64 value=107 time=7\n",
      "control_change channel=0 control=67 value=1 time=1\n",
      "note_on channel=0 note=73 velocity=0 time=5\n",
      "note_on channel=0 note=93 velocity=0 time=7\n",
      "note_on channel=0 note=76 velocity=74 time=2\n",
      "control_change channel=0 control=67 value=0 time=31\n",
      "control_change channel=0 control=67 value=0 time=7\n",
      "control_change channel=0 control=64 value=126 time=6\n",
      "note_on channel=0 note=97 velocity=90 time=0\n",
      "note_on channel=0 note=76 velocity=0 time=13\n",
      "control_change channel=0 control=67 value=0 time=41\n",
      "control_change channel=0 control=64 value=113 time=7\n",
      "note_on channel=0 note=85 velocity=73 time=6\n",
      "control_change channel=0 control=67 value=2 time=49\n",
      "control_change channel=0 control=67 value=2 time=5\n",
      "control_change channel=0 control=64 value=105 time=1\n",
      "control_change channel=0 control=64 value=68 time=5\n",
      "note_on channel=0 note=59 velocity=71 time=3\n",
      "note_on channel=0 note=78 velocity=85 time=4\n",
      "note_on channel=0 note=85 velocity=0 time=1\n",
      "control_change channel=0 control=64 value=20 time=5\n",
      "control_change channel=0 control=64 value=20 time=0\n",
      "note_on channel=0 note=97 velocity=0 time=0\n",
      "control_change channel=0 control=64 value=68 time=57\n",
      "control_change channel=0 control=67 value=2 time=0\n",
      "control_change channel=0 control=64 value=20 time=8\n",
      "note_on channel=0 note=63 velocity=62 time=5\n",
      "control_change channel=0 control=64 value=92 time=15\n",
      "note_on channel=0 note=63 velocity=0 time=13\n",
      "control_change channel=0 control=64 value=86 time=22\n",
      "control_change channel=0 control=67 value=0 time=0\n",
      "note_on channel=0 note=66 velocity=63 time=13\n",
      "control_change channel=0 control=64 value=113 time=11\n",
      "note_on channel=0 note=66 velocity=0 time=13\n",
      "control_change channel=0 control=64 value=106 time=11\n",
      "control_change channel=0 control=67 value=2 time=0\n",
      "note_on channel=0 note=66 velocity=65 time=14\n",
      "control_change channel=0 control=64 value=120 time=14\n",
      "note_on channel=0 note=66 velocity=0 time=14\n",
      "control_change channel=0 control=64 value=118 time=7\n",
      "control_change channel=0 control=67 value=3 time=0\n",
      "note_on channel=0 note=73 velocity=68 time=13\n",
      "control_change channel=0 control=64 value=111 time=11\n",
      "control_change channel=0 control=64 value=120 time=11\n",
      "note_on channel=0 note=59 velocity=0 time=3\n",
      "note_on channel=0 note=73 velocity=0 time=10\n",
      "control_change channel=0 control=64 value=120 time=2\n",
      "control_change channel=0 control=67 value=3 time=0\n",
      "note_on channel=0 note=69 velocity=67 time=13\n",
      "control_change channel=0 control=64 value=68 time=26\n",
      "control_change channel=0 control=67 value=5 time=12\n",
      "control_change channel=0 control=64 value=20 time=1\n",
      "note_on channel=0 note=69 velocity=0 time=0\n",
      "note_on channel=0 note=57 velocity=78 time=12\n",
      "control_change channel=0 control=64 value=94 time=49\n",
      "control_change channel=0 control=67 value=2 time=0\n",
      "note_on channel=0 note=61 velocity=66 time=13\n",
      "control_change channel=0 control=64 value=115 time=22\n",
      "note_on channel=0 note=61 velocity=0 time=13\n",
      "control_change channel=0 control=64 value=112 time=3\n",
      "control_change channel=0 control=67 value=3 time=0\n",
      "note_on channel=0 note=64 velocity=70 time=13\n",
      "control_change channel=0 control=64 value=123 time=29\n",
      "control_change channel=0 control=67 value=3 time=8\n",
      "note_on channel=0 note=64 velocity=0 time=6\n",
      "note_on channel=0 note=66 velocity=71 time=7\n",
      "control_change channel=0 control=64 value=118 time=17\n",
      "note_on channel=0 note=57 velocity=0 time=13\n",
      "control_change channel=0 control=67 value=3 time=8\n",
      "control_change channel=0 control=64 value=124 time=1\n",
      "note_on channel=0 note=73 velocity=72 time=12\n",
      "note_on channel=0 note=66 velocity=0 time=2\n",
      "control_change channel=0 control=67 value=3 time=35\n",
      "control_change channel=0 control=64 value=120 time=11\n",
      "note_on channel=0 note=69 velocity=72 time=2\n",
      "note_on channel=0 note=73 velocity=0 time=11\n",
      "control_change channel=0 control=64 value=112 time=3\n",
      "note_on channel=0 note=78 velocity=0 time=14\n",
      "control_change channel=0 control=67 value=0 time=21\n",
      "control_change channel=0 control=67 value=3 time=0\n",
      "control_change channel=0 control=64 value=68 time=5\n",
      "note_on channel=0 note=56 velocity=84 time=8\n",
      "note_on channel=0 note=81 velocity=92 time=0\n",
      "control_change channel=0 control=64 value=20 time=5\n",
      "note_on channel=0 note=69 velocity=0 time=0\n",
      "control_change channel=0 control=64 value=20 time=4\n",
      "control_change channel=0 control=64 value=68 time=48\n",
      "control_change channel=0 control=67 value=0 time=0\n",
      "control_change channel=0 control=64 value=20 time=1\n",
      "note_on channel=0 note=61 velocity=70 time=13\n",
      "control_change channel=0 control=64 value=113 time=36\n",
      "note_on channel=0 note=61 velocity=0 time=13\n",
      "control_change channel=0 control=64 value=103 time=2\n",
      "control_change channel=0 control=67 value=0 time=0\n",
      "note_on channel=0 note=64 velocity=69 time=13\n",
      "control_change channel=0 control=64 value=119 time=28\n",
      "control_change channel=0 control=64 value=124 time=6\n",
      "control_change channel=0 control=64 value=125 time=3\n",
      "note_on channel=0 note=81 velocity=0 time=4\n",
      "control_change channel=0 control=67 value=0 time=5\n",
      "note_on channel=0 note=56 velocity=0 time=1\n",
      "note_on channel=0 note=64 velocity=0 time=3\n",
      "note_on channel=0 note=69 velocity=71 time=9\n",
      "control_change channel=0 control=64 value=125 time=32\n",
      "control_change channel=0 control=67 value=0 time=0\n",
      "control_change channel=0 control=67 value=0 time=8\n",
      "note_on channel=0 note=85 velocity=90 time=5\n",
      "control_change channel=0 control=64 value=127 time=5\n",
      "note_on channel=0 note=76 velocity=71 time=3\n",
      "note_on channel=0 note=69 velocity=0 time=10\n",
      "control_change channel=0 control=64 value=127 time=38\n",
      "control_change channel=0 control=67 value=0 time=0\n",
      "note_on channel=0 note=81 velocity=70 time=13\n",
      "control_change channel=0 control=64 value=127 time=2\n",
      "note_on channel=0 note=76 velocity=0 time=13\n",
      "control_change channel=0 control=64 value=121 time=53\n",
      "control_change channel=0 control=67 value=0 time=14\n",
      "note_on channel=0 note=81 velocity=0 time=0\n",
      "control_change channel=0 control=67 value=0 time=5\n",
      "control_change channel=0 control=64 value=68 time=5\n",
      "control_change channel=0 control=67 value=0 time=3\n",
      "note_on channel=0 note=88 velocity=91 time=0\n",
      "note_on channel=0 note=85 velocity=83 time=5\n",
      "control_change channel=0 control=64 value=20 time=5\n",
      "note_on channel=0 note=85 velocity=0 time=0\n",
      "note_on channel=0 note=54 velocity=78 time=3\n",
      "control_change channel=0 control=64 value=20 time=7\n",
      "control_change channel=0 control=64 value=114 time=45\n",
      "control_change channel=0 control=64 value=68 time=10\n",
      "control_change channel=0 control=67 value=0 time=0\n",
      "note_on channel=0 note=85 velocity=0 time=3\n",
      "control_change channel=0 control=64 value=20 time=11\n",
      "note_on channel=0 note=61 velocity=67 time=0\n",
      "control_change channel=0 control=64 value=115 time=6\n",
      "control_change channel=0 control=64 value=99 time=5\n",
      "note_on channel=0 note=88 velocity=0 time=8\n",
      "note_on channel=0 note=61 velocity=0 time=5\n",
      "control_change channel=0 control=64 value=118 time=20\n",
      "control_change channel=0 control=67 value=0 time=0\n",
      "control_change channel=0 control=64 value=115 time=11\n",
      "control_change channel=0 control=67 value=0 time=0\n",
      "control_change channel=0 control=64 value=119 time=1\n",
      "control_change channel=0 control=67 value=0 time=0\n",
      "note_on channel=0 note=64 velocity=67 time=2\n",
      "note_on channel=0 note=87 velocity=84 time=10\n",
      "control_change channel=0 control=64 value=122 time=1\n",
      "note_on channel=0 note=83 velocity=76 time=0\n",
      "note_on channel=0 note=64 velocity=0 time=14\n",
      "control_change channel=0 control=64 value=120 time=14\n",
      "control_change channel=0 control=67 value=0 time=0\n",
      "control_change channel=0 control=64 value=116 time=11\n",
      "control_change channel=0 control=64 value=117 time=1\n",
      "note_on channel=0 note=66 velocity=66 time=2\n",
      "note_on channel=0 note=83 velocity=0 time=10\n",
      "note_on channel=0 note=87 velocity=0 time=2\n",
      "control_change channel=0 control=64 value=123 time=7\n",
      "note_on channel=0 note=66 velocity=0 time=13\n",
      "control_change channel=0 control=64 value=123 time=15\n",
      "control_change channel=0 control=67 value=0 time=0\n",
      "control_change channel=0 control=64 value=125 time=1\n",
      "control_change channel=0 control=67 value=0 time=0\n",
      "control_change channel=0 control=64 value=123 time=4\n",
      "control_change channel=0 control=67 value=0 time=0\n",
      "note_on channel=0 note=69 velocity=66 time=8\n",
      "note_on channel=0 note=85 velocity=84 time=2\n",
      "note_on channel=0 note=81 velocity=77 time=3\n",
      "control_change channel=0 control=64 value=123 time=13\n",
      "note_on channel=0 note=69 velocity=0 time=13\n",
      "control_change channel=0 control=64 value=125 time=11\n",
      "control_change channel=0 control=67 value=0 time=0\n",
      "control_change channel=0 control=64 value=118 time=11\n",
      "note_on channel=0 note=73 velocity=67 time=2\n",
      "note_on channel=0 note=81 velocity=0 time=11\n",
      "control_change channel=0 control=64 value=117 time=4\n",
      "control_change channel=0 control=64 value=122 time=9\n",
      "note_on channel=0 note=85 velocity=0 time=4\n",
      "note_on channel=0 note=73 velocity=0 time=10\n",
      "control_change channel=0 control=64 value=123 time=1\n",
      "control_change channel=0 control=67 value=0 time=0\n",
      "control_change channel=0 control=64 value=119 time=3\n",
      "control_change channel=0 control=67 value=0 time=0\n",
      "control_change channel=0 control=64 value=121 time=2\n",
      "control_change channel=0 control=67 value=0 time=0\n",
      "note_on channel=0 note=83 velocity=86 time=8\n",
      "note_on channel=0 note=76 velocity=65 time=4\n",
      "note_on channel=0 note=80 velocity=76 time=1\n",
      "control_change channel=0 control=64 value=123 time=21\n",
      "control_change channel=0 control=64 value=123 time=13\n",
      "control_change channel=0 control=67 value=0 time=0\n",
      "note_on channel=0 note=76 velocity=0 time=0\n",
      "note_on channel=0 note=78 velocity=66 time=13\n",
      "control_change channel=0 control=64 value=126 time=9\n",
      "control_change channel=0 control=64 value=126 time=11\n",
      "note_on channel=0 note=54 velocity=0 time=2\n",
      "control_change channel=0 control=64 value=127 time=7\n",
      "note_on channel=0 note=80 velocity=0 time=4\n",
      "control_change channel=0 control=67 value=0 time=2\n",
      "note_on channel=0 note=78 velocity=0 time=7\n",
      "note_on channel=0 note=76 velocity=67 time=6\n",
      "control_change channel=0 control=64 value=124 time=14\n",
      "note_on channel=0 note=83 velocity=0 time=13\n",
      "control_change channel=0 control=64 value=124 time=7\n",
      "control_change channel=0 control=67 value=0 time=3\n",
      "control_change channel=0 control=67 value=0 time=4\n",
      "control_change channel=0 control=67 value=0 time=6\n",
      "note_on channel=0 note=76 velocity=0 time=0\n",
      "note_on channel=0 note=81 velocity=84 time=4\n",
      "note_on channel=0 note=73 velocity=63 time=3\n",
      "note_on channel=0 note=78 velocity=73 time=6\n",
      "control_change channel=0 control=64 value=121 time=18\n",
      "control_change channel=0 control=67 value=0 time=9\n",
      "note_on channel=0 note=73 velocity=0 time=5\n",
      "note_on channel=0 note=69 velocity=65 time=8\n",
      "control_change channel=0 control=64 value=122 time=32\n",
      "control_change channel=0 control=67 value=0 time=0\n",
      "note_on channel=0 note=69 velocity=0 time=13\n",
      "note_on channel=0 note=66 velocity=66 time=1\n",
      "control_change channel=0 control=67 value=0 time=35\n",
      "control_change channel=0 control=64 value=119 time=1\n",
      "note_on channel=0 note=64 velocity=71 time=12\n",
      "note_on channel=0 note=66 velocity=0 time=1\n",
      "control_change channel=0 control=64 value=127 time=19\n",
      "note_on channel=0 note=78 velocity=0 time=13\n",
      "control_change channel=0 control=67 value=0 time=10\n",
      "control_change channel=0 control=64 value=120 time=2\n",
      "note_on channel=0 note=66 velocity=67 time=11\n",
      "note_on channel=0 note=64 velocity=0 time=3\n",
      "control_change channel=0 control=64 value=125 time=14\n",
      "control_change channel=0 control=67 value=0 time=12\n",
      "note_on channel=0 note=81 velocity=0 time=2\n",
      "control_change channel=0 control=67 value=0 time=4\n",
      "control_change channel=0 control=67 value=0 time=2\n",
      "control_change channel=0 control=64 value=121 time=5\n",
      "note_on channel=0 note=80 velocity=85 time=0\n",
      "note_on channel=0 note=76 velocity=73 time=6\n",
      "note_on channel=0 note=64 velocity=65 time=2\n",
      "note_on channel=0 note=66 velocity=0 time=5\n",
      "control_change channel=0 control=67 value=0 time=35\n",
      "control_change channel=0 control=64 value=120 time=5\n",
      "note_on channel=0 note=61 velocity=65 time=9\n",
      "note_on channel=0 note=64 velocity=0 time=4\n",
      "control_change channel=0 control=64 value=123 time=3\n",
      "note_on channel=0 note=76 velocity=0 time=13\n",
      "control_change channel=0 control=64 value=119 time=10\n",
      "control_change channel=0 control=67 value=0 time=0\n",
      "control_change channel=0 control=64 value=119 time=1\n",
      "control_change channel=0 control=64 value=116 time=6\n",
      "control_change channel=0 control=67 value=0 time=0\n",
      "control_change channel=0 control=64 value=125 time=1\n",
      "control_change channel=0 control=67 value=0 time=0\n",
      "note_on channel=0 note=78 velocity=83 time=5\n",
      "note_on channel=0 note=80 velocity=0 time=1\n",
      "note_on channel=0 note=57 velocity=64 time=7\n",
      "note_on channel=0 note=75 velocity=72 time=0\n",
      "control_change channel=0 control=64 value=120 time=1\n",
      "note_on channel=0 note=61 velocity=0 time=13\n",
      "control_change channel=0 control=67 value=0 time=25\n",
      "control_change channel=0 control=64 value=118 time=10\n",
      "note_on channel=0 note=54 velocity=63 time=4\n",
      "note_on channel=0 note=57 velocity=0 time=9\n",
      "control_change channel=0 control=64 value=123 time=2\n",
      "note_on channel=0 note=75 velocity=0 time=13\n",
      "control_change channel=0 control=64 value=116 time=21\n",
      "control_change channel=0 control=67 value=0 time=3\n",
      "control_change channel=0 control=64 value=109 time=7\n",
      "note_on channel=0 note=78 velocity=0 time=3\n",
      "note_on channel=0 note=42 velocity=61 time=4\n",
      "control_change channel=0 control=67 value=0 time=5\n",
      "note_on channel=0 note=54 velocity=0 time=1\n",
      "control_change channel=0 control=64 value=68 time=1\n",
      "control_change channel=0 control=67 value=0 time=0\n",
      "note_on channel=0 note=76 velocity=79 time=11\n",
      "note_on channel=0 note=73 velocity=66 time=2\n",
      "control_change channel=0 control=64 value=20 time=13\n",
      "control_change channel=0 control=64 value=20 time=0\n",
      "control_change channel=0 control=64 value=20 time=0\n",
      "control_change channel=0 control=64 value=107 time=44\n",
      "control_change channel=0 control=64 value=92 time=2\n",
      "control_change channel=0 control=67 value=1 time=5\n",
      "note_on channel=0 note=73 velocity=0 time=6\n",
      "note_on channel=0 note=42 velocity=0 time=2\n",
      "note_on channel=0 note=49 velocity=57 time=5\n",
      "control_change channel=0 control=64 value=109 time=2\n",
      "control_change channel=0 control=64 value=119 time=13\n",
      "note_on channel=0 note=76 velocity=0 time=0\n",
      "note_on channel=0 note=49 velocity=0 time=13\n",
      "control_change channel=0 control=64 value=127 time=14\n",
      "control_change channel=0 control=67 value=0 time=0\n",
      "control_change channel=0 control=64 value=126 time=1\n",
      "control_change channel=0 control=67 value=1 time=0\n",
      "control_change channel=0 control=64 value=127 time=7\n",
      "control_change channel=0 control=67 value=0 time=0\n",
      "note_on channel=0 note=52 velocity=58 time=6\n",
      "note_on channel=0 note=75 velocity=74 time=0\n",
      "note_on channel=0 note=71 velocity=62 time=7\n",
      "control_change channel=0 control=64 value=121 time=17\n",
      "note_on channel=0 note=52 velocity=0 time=13\n",
      "control_change channel=0 control=64 value=127 time=5\n",
      "control_change channel=0 control=67 value=2 time=0\n",
      "control_change channel=0 control=64 value=123 time=13\n",
      "note_on channel=0 note=54 velocity=60 time=0\n",
      "control_change channel=0 control=64 value=121 time=12\n",
      "note_on channel=0 note=71 velocity=0 time=2\n",
      "note_on channel=0 note=75 velocity=0 time=11\n",
      "control_change channel=0 control=64 value=119 time=6\n",
      "control_change channel=0 control=67 value=0 time=8\n",
      "control_change channel=0 control=67 value=0 time=4\n",
      "note_on channel=0 note=54 velocity=0 time=1\n",
      "control_change channel=0 control=64 value=127 time=2\n",
      "control_change channel=0 control=67 value=0 time=0\n",
      "note_on channel=0 note=73 velocity=75 time=6\n",
      "note_on channel=0 note=57 velocity=58 time=4\n",
      "note_on channel=0 note=69 velocity=62 time=3\n",
      "control_change channel=0 control=64 value=120 time=30\n",
      "control_change channel=0 control=67 value=0 time=10\n",
      "note_on channel=0 note=57 velocity=0 time=3\n",
      "note_on channel=0 note=61 velocity=61 time=10\n",
      "control_change channel=0 control=64 value=124 time=12\n",
      "note_on channel=0 note=69 velocity=0 time=13\n",
      "control_change channel=0 control=64 value=119 time=11\n",
      "control_change channel=0 control=67 value=0 time=0\n",
      "control_change channel=0 control=67 value=2 time=0\n",
      "control_change channel=0 control=64 value=68 time=4\n",
      "control_change channel=0 control=67 value=1 time=2\n",
      "note_on channel=0 note=64 velocity=59 time=7\n",
      "note_on channel=0 note=71 velocity=74 time=0\n",
      "note_on channel=0 note=73 velocity=0 time=0\n",
      "control_change channel=0 control=64 value=20 time=4\n",
      "note_on channel=0 note=61 velocity=0 time=0\n",
      "note_on channel=0 note=68 velocity=58 time=2\n",
      "control_change channel=0 control=64 value=20 time=11\n",
      "control_change channel=0 control=64 value=96 time=31\n",
      "control_change channel=0 control=67 value=6 time=1\n",
      "note_on channel=0 note=64 velocity=0 time=12\n",
      "note_on channel=0 note=61 velocity=58 time=1\n",
      "control_change channel=0 control=64 value=99 time=11\n",
      "note_on channel=0 note=68 velocity=0 time=13\n",
      "control_change channel=0 control=67 value=6 time=11\n",
      "control_change channel=0 control=67 value=7 time=2\n",
      "control_change channel=0 control=67 value=7 time=1\n",
      "control_change channel=0 control=64 value=107 time=4\n",
      "control_change channel=0 control=64 value=104 time=1\n",
      "note_on channel=0 note=57 velocity=55 time=6\n",
      "note_on channel=0 note=66 velocity=55 time=2\n",
      "note_on channel=0 note=69 velocity=67 time=0\n",
      "note_on channel=0 note=61 velocity=0 time=4\n",
      "note_on channel=0 note=71 velocity=0 time=1\n",
      "control_change channel=0 control=64 value=115 time=35\n",
      "control_change channel=0 control=67 value=8 time=0\n",
      "control_change channel=0 control=64 value=100 time=13\n",
      "note_on channel=0 note=54 velocity=57 time=0\n",
      "note_on channel=0 note=57 velocity=0 time=14\n",
      "control_change channel=0 control=64 value=98 time=20\n",
      "control_change channel=0 control=64 value=92 time=13\n",
      "control_change channel=0 control=64 value=97 time=0\n",
      "control_change channel=0 control=67 value=8 time=0\n",
      "control_change channel=0 control=67 value=9 time=0\n",
      "note_on channel=0 note=66 velocity=0 time=0\n",
      "control_change channel=0 control=64 value=85 time=6\n",
      "control_change channel=0 control=67 value=9 time=0\n",
      "control_change channel=0 control=64 value=100 time=3\n",
      "note_on channel=0 note=68 velocity=69 time=4\n",
      "note_on channel=0 note=52 velocity=56 time=1\n",
      "note_on channel=0 note=64 velocity=53 time=5\n",
      "control_change channel=0 control=64 value=68 time=1\n",
      "note_on channel=0 note=69 velocity=0 time=2\n",
      "control_change channel=0 control=64 value=20 time=11\n",
      "control_change channel=0 control=64 value=20 time=0\n",
      "note_on channel=0 note=54 velocity=0 time=0\n",
      "control_change channel=0 control=64 value=109 time=19\n",
      "control_change channel=0 control=67 value=11 time=0\n",
      "note_on channel=0 note=49 velocity=56 time=13\n",
      "control_change channel=0 control=64 value=88 time=1\n",
      "note_on channel=0 note=52 velocity=0 time=13\n",
      "control_change channel=0 control=64 value=91 time=30\n",
      "control_change channel=0 control=67 value=14 time=0\n",
      "note_on channel=0 note=42 velocity=54 time=13\n",
      "control_change channel=0 control=64 value=68 time=4\n",
      "control_change channel=0 control=67 value=12 time=8\n",
      "control_change channel=0 control=64 value=20 time=6\n",
      "control_change channel=0 control=64 value=20 time=0\n",
      "note_on channel=0 note=49 velocity=0 time=0\n",
      "note_on channel=0 note=57 velocity=68 time=8\n",
      "control_change channel=0 control=64 value=103 time=35\n",
      "control_change channel=0 control=67 value=17 time=0\n",
      "note_on channel=0 note=49 velocity=53 time=14\n",
      "control_change channel=0 control=64 value=89 time=11\n",
      "note_on channel=0 note=42 velocity=0 time=13\n",
      "control_change channel=0 control=64 value=91 time=4\n",
      "control_change channel=0 control=64 value=111 time=11\n",
      "control_change channel=0 control=67 value=17 time=0\n",
      "note_on channel=0 note=64 velocity=0 time=2\n",
      "control_change channel=0 control=64 value=101 time=7\n",
      "control_change channel=0 control=67 value=17 time=0\n",
      "control_change channel=0 control=64 value=108 time=1\n",
      "control_change channel=0 control=67 value=18 time=0\n",
      "note_on channel=0 note=42 velocity=51 time=3\n",
      "note_on channel=0 note=63 velocity=53 time=9\n",
      "note_on channel=0 note=66 velocity=62 time=1\n",
      "control_change channel=0 control=64 value=112 time=7\n",
      "note_on channel=0 note=49 velocity=0 time=13\n",
      "control_change channel=0 control=64 value=89 time=23\n",
      "control_change channel=0 control=64 value=119 time=0\n",
      "control_change channel=0 control=67 value=19 time=0\n",
      "note_on channel=0 note=49 velocity=52 time=13\n",
      "note_on channel=0 note=68 velocity=0 time=0\n",
      "control_change channel=0 control=64 value=113 time=38\n",
      "note_on channel=0 note=42 velocity=0 time=14\n",
      "control_change channel=0 control=64 value=99 time=8\n",
      "control_change channel=0 control=67 value=22 time=0\n",
      "control_change channel=0 control=64 value=106 time=1\n",
      "control_change channel=0 control=67 value=20 time=0\n",
      "control_change channel=0 control=64 value=90 time=2\n",
      "control_change channel=0 control=67 value=22 time=0\n",
      "note_on channel=0 note=42 velocity=48 time=10\n",
      "note_on channel=0 note=64 velocity=61 time=1\n",
      "note_on channel=0 note=61 velocity=50 time=3\n",
      "control_change channel=0 control=64 value=102 time=5\n",
      "control_change channel=0 control=64 value=105 time=3\n",
      "note_on channel=0 note=57 velocity=0 time=10\n",
      "note_on channel=0 note=63 velocity=0 time=3\n",
      "control_change channel=0 control=64 value=107 time=13\n",
      "note_on channel=0 note=66 velocity=0 time=13\n",
      "control_change channel=0 control=64 value=68 time=2\n",
      "control_change channel=0 control=64 value=20 time=3\n",
      "control_change channel=0 control=64 value=20 time=4\n",
      "note_on channel=0 note=49 velocity=0 time=6\n",
      "control_change channel=0 control=64 value=118 time=13\n",
      "control_change channel=0 control=67 value=24 time=0\n",
      "note_on channel=0 note=49 velocity=50 time=13\n",
      "control_change channel=0 control=64 value=111 time=54\n",
      "note_on channel=0 note=42 velocity=0 time=13\n",
      "control_change channel=0 control=64 value=102 time=57\n",
      "control_change channel=0 control=64 value=107 time=7\n",
      "control_change channel=0 control=67 value=20 time=0\n",
      "control_change channel=0 control=64 value=105 time=4\n",
      "control_change channel=0 control=67 value=22 time=0\n",
      "note_on channel=0 note=61 velocity=0 time=2\n",
      "control_change channel=0 control=67 value=16 time=3\n",
      "note_on channel=0 note=61 velocity=48 time=4\n",
      "control_change channel=0 control=64 value=109 time=1\n",
      "control_change channel=0 control=64 value=101 time=4\n",
      "note_on channel=0 note=63 velocity=59 time=0\n",
      "note_on channel=0 note=54 velocity=45 time=4\n",
      "note_on channel=0 note=49 velocity=0 time=5\n",
      "note_on channel=0 note=64 velocity=0 time=4\n",
      "control_change channel=0 control=64 value=68 time=1\n",
      "control_change channel=0 control=67 value=18 time=0\n",
      "control_change channel=0 control=64 value=20 time=13\n",
      "control_change channel=0 control=64 value=20 time=0\n",
      "control_change channel=0 control=64 value=20 time=0\n",
      "control_change channel=0 control=64 value=20 time=0\n",
      "note_on channel=0 note=44 velocity=40 time=0\n",
      "control_change channel=0 control=64 value=87 time=47\n",
      "note_on channel=0 note=44 velocity=0 time=14\n",
      "control_change channel=0 control=64 value=94 time=32\n",
      "control_change channel=0 control=67 value=23 time=0\n",
      "control_change channel=0 control=64 value=108 time=12\n",
      "note_on channel=0 note=51 velocity=43 time=1\n",
      "note_on channel=0 note=51 velocity=0 time=12\n",
      "control_change channel=0 control=64 value=109 time=41\n",
      "control_change channel=0 control=67 value=26 time=0\n",
      "note_on channel=0 note=44 velocity=46 time=13\n",
      "control_change channel=0 control=64 value=112 time=8\n",
      "control_change channel=0 control=64 value=100 time=8\n",
      "note_on channel=0 note=44 velocity=0 time=5\n",
      "note_on channel=0 note=54 velocity=0 time=8\n",
      "control_change channel=0 control=64 value=113 time=23\n",
      "control_change channel=0 control=67 value=28 time=0\n",
      "note_on channel=0 note=51 velocity=48 time=13\n",
      "control_change channel=0 control=64 value=109 time=19\n",
      "note_on channel=0 note=51 velocity=0 time=13\n",
      "control_change channel=0 control=64 value=104 time=19\n",
      "control_change channel=0 control=67 value=28 time=0\n",
      "control_change channel=0 control=64 value=111 time=10\n",
      "control_change channel=0 control=67 value=25 time=0\n",
      "note_on channel=0 note=44 velocity=44 time=3\n",
      "note_on channel=0 note=56 velocity=55 time=11\n",
      "control_change channel=0 control=64 value=95 time=25\n",
      "note_on channel=0 note=44 velocity=0 time=13\n",
      "control_change channel=0 control=64 value=102 time=3\n",
      "control_change channel=0 control=67 value=32 time=0\n",
      "note_on channel=0 note=51 velocity=46 time=13\n",
      "control_change channel=0 control=64 value=90 time=44\n",
      "control_change channel=0 control=64 value=88 time=2\n",
      "note_on channel=0 note=56 velocity=0 time=11\n",
      "note_on channel=0 note=51 velocity=0 time=2\n",
      "control_change channel=0 control=64 value=87 time=7\n",
      "control_change channel=0 control=67 value=28 time=0\n",
      "control_change channel=0 control=64 value=68 time=2\n",
      "control_change channel=0 control=67 value=30 time=0\n",
      "note_on channel=0 note=58 velocity=54 time=12\n",
      "control_change channel=0 control=64 value=20 time=1\n",
      "control_change channel=0 control=64 value=20 time=0\n",
      "note_on channel=0 note=44 velocity=41 time=0\n",
      "control_change channel=0 control=64 value=76 time=31\n",
      "note_on channel=0 note=44 velocity=0 time=13\n",
      "control_change channel=0 control=64 value=77 time=10\n",
      "control_change channel=0 control=67 value=31 time=0\n",
      "note_on channel=0 note=51 velocity=46 time=14\n",
      "control_change channel=0 control=64 value=91 time=18\n",
      "note_on channel=0 note=51 velocity=0 time=13\n",
      "control_change channel=0 control=64 value=93 time=13\n",
      "control_change channel=0 control=67 value=31 time=0\n",
      "note_on channel=0 note=44 velocity=49 time=14\n",
      "control_change channel=0 control=64 value=99 time=24\n",
      "note_on channel=0 note=44 velocity=0 time=13\n",
      "control_change channel=0 control=64 value=102 time=6\n",
      "control_change channel=0 control=67 value=29 time=0\n",
      "note_on channel=0 note=51 velocity=51 time=13\n",
      "control_change channel=0 control=64 value=85 time=7\n",
      "note_on channel=0 note=58 velocity=0 time=14\n",
      "control_change channel=0 control=64 value=102 time=11\n",
      "control_change channel=0 control=67 value=26 time=1\n",
      "control_change channel=0 control=67 value=24 time=7\n",
      "note_on channel=0 note=51 velocity=0 time=5\n",
      "note_on channel=0 note=61 velocity=62 time=1\n",
      "note_on channel=0 note=44 velocity=48 time=7\n",
      "control_change channel=0 control=64 value=112 time=8\n",
      "note_on channel=0 note=61 velocity=0 time=13\n",
      "control_change channel=0 control=67 value=23 time=19\n",
      "control_change channel=0 control=64 value=93 time=2\n",
      "note_on channel=0 note=51 velocity=52 time=11\n",
      "note_on channel=0 note=44 velocity=0 time=2\n",
      "control_change channel=0 control=64 value=87 time=47\n",
      "control_change channel=0 control=67 value=21 time=0\n",
      "control_change channel=0 control=64 value=83 time=4\n",
      "control_change channel=0 control=64 value=86 time=0\n",
      "control_change channel=0 control=67 value=19 time=0\n",
      "control_change channel=0 control=64 value=87 time=2\n",
      "control_change channel=0 control=67 value=17 time=0\n",
      "control_change channel=0 control=64 value=95 time=4\n",
      "control_change channel=0 control=67 value=17 time=0\n",
      "note_on channel=0 note=66 velocity=59 time=4\n",
      "control_change channel=0 control=64 value=87 time=3\n",
      "note_on channel=0 note=44 velocity=50 time=0\n",
      "note_on channel=0 note=51 velocity=0 time=1\n",
      "note_on channel=0 note=63 velocity=48 time=2\n",
      "note_on channel=0 note=60 velocity=51 time=3\n",
      "note_on channel=0 note=61 velocity=0 time=7\n",
      "control_change channel=0 control=64 value=89 time=26\n",
      "note_on channel=0 note=44 velocity=0 time=13\n",
      "control_change channel=0 control=64 value=95 time=10\n",
      "control_change channel=0 control=67 value=21 time=0\n",
      "control_change channel=0 control=64 value=68 time=13\n",
      "note_on channel=0 note=51 velocity=51 time=1\n",
      "control_change channel=0 control=64 value=20 time=12\n",
      "control_change channel=0 control=64 value=20 time=0\n",
      "control_change channel=0 control=64 value=20 time=0\n",
      "control_change channel=0 control=64 value=20 time=0\n",
      "note_on channel=0 note=63 velocity=0 time=0\n",
      "control_change channel=0 control=64 value=108 time=19\n",
      "note_on channel=0 note=51 velocity=0 time=13\n",
      "control_change channel=0 control=64 value=114 time=4\n",
      "control_change channel=0 control=67 value=22 time=0\n",
      "note_on channel=0 note=44 velocity=53 time=13\n",
      "control_change channel=0 control=64 value=101 time=1\n",
      "note_on channel=0 note=63 velocity=0 time=13\n",
      "control_change channel=0 control=64 value=89 time=22\n",
      "control_change channel=0 control=64 value=113 time=3\n",
      "control_change channel=0 control=64 value=112 time=7\n",
      "control_change channel=0 control=67 value=22 time=0\n",
      "note_on channel=0 note=66 velocity=0 time=3\n",
      "note_on channel=0 note=44 velocity=0 time=4\n",
      "note_on channel=0 note=51 velocity=54 time=6\n",
      "note_on channel=0 note=60 velocity=0 time=0\n",
      "control_change channel=0 control=64 value=79 time=28\n",
      "control_change channel=0 control=67 value=20 time=0\n",
      "control_change channel=0 control=64 value=91 time=3\n",
      "control_change channel=0 control=64 value=106 time=0\n",
      "control_change channel=0 control=67 value=21 time=0\n",
      "control_change channel=0 control=67 value=22 time=0\n",
      "control_change channel=0 control=64 value=90 time=3\n",
      "control_change channel=0 control=67 value=20 time=0\n",
      "note_on channel=0 note=63 velocity=51 time=7\n",
      "note_on channel=0 note=44 velocity=50 time=3\n",
      "note_on channel=0 note=70 velocity=63 time=1\n",
      "note_on channel=0 note=66 velocity=53 time=2\n",
      "control_change channel=0 control=64 value=68 time=2\n",
      "note_on channel=0 note=51 velocity=0 time=13\n",
      "control_change channel=0 control=64 value=20 time=13\n",
      "control_change channel=0 control=64 value=20 time=0\n",
      "control_change channel=0 control=67 value=22 time=27\n",
      "control_change channel=0 control=64 value=104 time=12\n",
      "note_on channel=0 note=51 velocity=53 time=1\n",
      "note_on channel=0 note=44 velocity=0 time=12\n",
      "control_change channel=0 control=64 value=99 time=35\n",
      "control_change channel=0 control=64 value=100 time=1\n",
      "note_on channel=0 note=66 velocity=0 time=13\n",
      "note_on channel=0 note=70 velocity=0 time=1\n",
      "control_change channel=0 control=64 value=96 time=1\n",
      "control_change channel=0 control=67 value=13 time=9\n",
      "control_change channel=0 control=64 value=108 time=2\n",
      "control_change channel=0 control=67 value=16 time=1\n",
      "note_on channel=0 note=63 velocity=0 time=1\n",
      "control_change channel=0 control=67 value=18 time=6\n",
      "note_on channel=0 note=54 velocity=47 time=3\n",
      "note_on channel=0 note=51 velocity=0 time=3\n",
      "note_on channel=0 note=61 velocity=51 time=0\n",
      "control_change channel=0 control=64 value=68 time=7\n",
      "control_change channel=0 control=67 value=18 time=0\n",
      "note_on channel=0 note=63 velocity=66 time=0\n",
      "control_change channel=0 control=64 value=20 time=13\n",
      "control_change channel=0 control=64 value=20 time=0\n",
      "control_change channel=0 control=64 value=20 time=0\n",
      "control_change channel=0 control=64 value=20 time=0\n",
      "note_on channel=0 note=44 velocity=45 time=0\n",
      "control_change channel=0 control=64 value=73 time=41\n",
      "note_on channel=0 note=44 velocity=0 time=13\n",
      "control_change channel=0 control=64 value=79 time=11\n",
      "control_change channel=0 control=67 value=22 time=0\n",
      "note_on channel=0 note=51 velocity=48 time=13\n",
      "control_change channel=0 control=64 value=91 time=16\n",
      "note_on channel=0 note=51 velocity=0 time=13\n",
      "control_change channel=0 control=64 value=94 time=17\n",
      "control_change channel=0 control=67 value=26 time=0\n",
      "note_on channel=0 note=44 velocity=50 time=14\n",
      "control_change channel=0 control=64 value=95 time=19\n",
      "note_on channel=0 note=44 velocity=0 time=13\n",
      "control_change channel=0 control=64 value=99 time=14\n",
      "control_change channel=0 control=67 value=27 time=0\n",
      "note_on channel=0 note=51 velocity=52 time=13\n",
      "control_change channel=0 control=64 value=94 time=25\n",
      "note_on channel=0 note=51 velocity=0 time=13\n",
      "control_change channel=0 control=67 value=30 time=5\n",
      "control_change channel=0 control=64 value=88 time=5\n",
      "control_change channel=0 control=67 value=30 time=0\n",
      "note_on channel=0 note=56 velocity=59 time=8\n",
      "note_on channel=0 note=44 velocity=48 time=5\n",
      "note_on channel=0 note=54 velocity=0 time=0\n",
      "control_change channel=0 control=64 value=82 time=32\n",
      "note_on channel=0 note=44 velocity=0 time=13\n",
      "control_change channel=0 control=64 value=90 time=2\n",
      "control_change channel=0 control=67 value=32 time=0\n",
      "note_on channel=0 note=51 velocity=51 time=13\n",
      "control_change channel=0 control=64 value=76 time=34\n",
      "control_change channel=0 control=67 value=32 time=12\n",
      "note_on channel=0 note=51 velocity=0 time=1\n",
      "control_change channel=0 control=67 value=33 time=5\n",
      "control_change channel=0 control=64 value=68 time=6\n",
      "note_on channel=0 note=58 velocity=57 time=1\n",
      "note_on channel=0 note=44 velocity=44 time=6\n",
      "control_change channel=0 control=64 value=20 time=6\n",
      "note_on channel=0 note=56 velocity=0 time=0\n",
      "control_change channel=0 control=64 value=65 time=25\n",
      "note_on channel=0 note=44 velocity=0 time=13\n",
      "control_change channel=0 control=64 value=67 time=6\n",
      "control_change channel=0 control=67 value=33 time=0\n",
      "note_on channel=0 note=51 velocity=49 time=13\n",
      "control_change channel=0 control=64 value=79 time=25\n",
      "note_on channel=0 note=51 velocity=0 time=13\n",
      "control_change channel=0 control=64 value=81 time=8\n",
      "control_change channel=0 control=67 value=32 time=0\n",
      "note_on channel=0 note=44 velocity=51 time=13\n",
      "control_change channel=0 control=64 value=87 time=29\n",
      "note_on channel=0 note=44 velocity=0 time=13\n",
      "control_change channel=0 control=64 value=92 time=3\n",
      "control_change channel=0 control=67 value=30 time=0\n",
      "note_on channel=0 note=51 velocity=54 time=13\n",
      "control_change channel=0 control=64 value=92 time=34\n",
      "control_change channel=0 control=67 value=30 time=0\n",
      "control_change channel=0 control=64 value=77 time=6\n",
      "control_change channel=0 control=67 value=24 time=4\n",
      "note_on channel=0 note=61 velocity=63 time=3\n",
      "note_on channel=0 note=51 velocity=0 time=1\n",
      "note_on channel=0 note=58 velocity=0 time=5\n",
      "note_on channel=0 note=44 velocity=51 time=4\n",
      "control_change channel=0 control=64 value=86 time=40\n",
      "control_change channel=0 control=67 value=22 time=3\n",
      "control_change channel=0 control=64 value=104 time=9\n",
      "note_on channel=0 note=44 velocity=0 time=2\n",
      "note_on channel=0 note=51 velocity=55 time=2\n",
      "note_on channel=0 note=61 velocity=0 time=9\n",
      "control_change channel=0 control=64 value=77 time=38\n",
      "control_change channel=0 control=67 value=17 time=0\n",
      "control_change channel=0 control=64 value=77 time=1\n",
      "control_change channel=0 control=64 value=81 time=6\n",
      "control_change channel=0 control=67 value=20 time=0\n",
      "control_change channel=0 control=64 value=90 time=1\n",
      "control_change channel=0 control=67 value=17 time=0\n",
      "control_change channel=0 control=64 value=81 time=3\n",
      "control_change channel=0 control=67 value=17 time=0\n",
      "note_on channel=0 note=44 velocity=52 time=2\n",
      "note_on channel=0 note=51 velocity=0 time=2\n",
      "note_on channel=0 note=66 velocity=61 time=5\n",
      "control_change channel=0 control=64 value=20 time=2\n",
      "note_on channel=0 note=60 velocity=50 time=0\n",
      "note_on channel=0 note=63 velocity=47 time=3\n",
      "control_change channel=0 control=64 value=82 time=4\n",
      "note_on channel=0 note=61 velocity=0 time=13\n",
      "control_change channel=0 control=64 value=88 time=7\n",
      "note_on channel=0 note=44 velocity=0 time=13\n",
      "control_change channel=0 control=64 value=94 time=7\n",
      "control_change channel=0 control=67 value=19 time=0\n",
      "note_on channel=0 note=51 velocity=53 time=13\n",
      "control_change channel=0 control=64 value=109 time=36\n",
      "control_change channel=0 control=67 value=19 time=7\n",
      "note_on channel=0 note=51 velocity=0 time=6\n",
      "note_on channel=0 note=44 velocity=55 time=7\n",
      "control_change channel=0 control=64 value=98 time=21\n",
      "note_on channel=0 note=63 velocity=0 time=13\n",
      "control_change channel=0 control=67 value=18 time=5\n",
      "control_change channel=0 control=64 value=112 time=8\n",
      "control_change channel=0 control=64 value=108 time=3\n",
      "note_on channel=0 note=51 velocity=57 time=2\n",
      "note_on channel=0 note=44 velocity=0 time=8\n",
      "note_on channel=0 note=60 velocity=0 time=3\n",
      "control_change channel=0 control=64 value=86 time=15\n",
      "note_on channel=0 note=66 velocity=0 time=14\n",
      "control_change channel=0 control=64 value=89 time=3\n",
      "control_change channel=0 control=67 value=16 time=0\n",
      "control_change channel=0 control=67 value=13 time=9\n",
      "note_on channel=0 note=44 velocity=51 time=4\n",
      "control_change channel=0 control=67 value=17 time=3\n",
      "control_change channel=0 control=64 value=68 time=5\n",
      "note_on channel=0 note=63 velocity=44 time=1\n",
      "control_change channel=0 control=67 value=14 time=1\n",
      "control_change channel=0 control=64 value=68 time=6\n",
      "note_on channel=0 note=70 velocity=60 time=0\n",
      "control_change channel=0 control=64 value=20 time=5\n",
      "control_change channel=0 control=64 value=20 time=0\n",
      "note_on channel=0 note=51 velocity=0 time=0\n",
      "note_on channel=0 note=66 velocity=47 time=2\n",
      "control_change channel=0 control=64 value=20 time=6\n",
      "control_change channel=0 control=64 value=20 time=0\n",
      "control_change channel=0 control=64 value=20 time=0\n",
      "note_on channel=0 note=63 velocity=0 time=0\n",
      "control_change channel=0 control=64 value=20 time=5\n",
      "control_change channel=0 control=67 value=18 time=18\n",
      "control_change channel=0 control=64 value=94 time=8\n",
      "note_on channel=0 note=51 velocity=53 time=5\n",
      "note_on channel=0 note=44 velocity=0 time=8\n",
      "control_change channel=0 control=64 value=87 time=7\n",
      "note_on channel=0 note=63 velocity=0 time=13\n",
      "control_change channel=0 control=67 value=20 time=28\n",
      "control_change channel=0 control=64 value=68 time=11\n",
      "note_on channel=0 note=44 velocity=49 time=3\n",
      "control_change channel=0 control=67 value=18 time=4\n",
      "control_change channel=0 control=64 value=20 time=6\n",
      "note_on channel=0 note=51 velocity=0 time=0\n",
      "control_change channel=0 control=64 value=20 time=4\n",
      "note_on channel=0 note=61 velocity=56 time=4\n",
      "control_change channel=0 control=64 value=98 time=31\n",
      "control_change channel=0 control=64 value=81 time=8\n",
      "note_on channel=0 note=66 velocity=0 time=5\n",
      "note_on channel=0 note=44 velocity=0 time=8\n",
      "control_change channel=0 control=64 value=92 time=12\n",
      "control_change channel=0 control=67 value=23 time=0\n",
      "note_on channel=0 note=39 velocity=50 time=13\n",
      "control_change channel=0 control=64 value=101 time=5\n",
      "control_change channel=0 control=64 value=93 time=2\n",
      "control_change channel=0 control=64 value=104 time=11\n",
      "note_on channel=0 note=70 velocity=0 time=1\n",
      "note_on channel=0 note=61 velocity=0 time=1\n",
      "note_on channel=0 note=39 velocity=0 time=11\n",
      "control_change channel=0 control=64 value=110 time=8\n",
      "control_change channel=0 control=67 value=22 time=0\n",
      "note_on channel=0 note=44 velocity=51 time=14\n",
      "control_change channel=0 control=64 value=107 time=5\n",
      "control_change channel=0 control=67 value=20 time=0\n",
      "control_change channel=0 control=64 value=115 time=3\n",
      "control_change channel=0 control=67 value=22 time=0\n",
      "control_change channel=0 control=64 value=113 time=3\n",
      "control_change channel=0 control=67 value=21 time=0\n",
      "note_on channel=0 note=68 velocity=47 time=7\n",
      "note_on channel=0 note=77 velocity=57 time=3\n",
      "note_on channel=0 note=72 velocity=46 time=3\n",
      "control_change channel=0 control=64 value=106 time=12\n",
      "control_change channel=0 control=67 value=22 time=4\n",
      "note_on channel=0 note=44 velocity=0 time=9\n",
      "note_on channel=0 note=51 velocity=57 time=4\n",
      "control_change channel=0 control=64 value=106 time=27\n",
      "control_change channel=0 control=64 value=112 time=2\n",
      "control_change channel=0 control=64 value=110 time=4\n",
      "control_change channel=0 control=67 value=18 time=0\n",
      "control_change channel=0 control=67 value=16 time=3\n",
      "control_change channel=0 control=67 value=17 time=3\n",
      "note_on channel=0 note=68 velocity=0 time=1\n",
      "note_on channel=0 note=72 velocity=0 time=2\n",
      "control_change channel=0 control=64 value=113 time=1\n",
      "control_change channel=0 control=67 value=17 time=0\n",
      "control_change channel=0 control=64 value=108 time=3\n",
      "note_on channel=0 note=75 velocity=71 time=0\n",
      "note_on channel=0 note=66 velocity=54 time=3\n",
      "note_on channel=0 note=70 velocity=55 time=4\n",
      "note_on channel=0 note=44 velocity=54 time=3\n",
      "note_on channel=0 note=77 velocity=0 time=0\n",
      "note_on channel=0 note=51 velocity=0 time=3\n",
      "control_change channel=0 control=64 value=96 time=42\n",
      "control_change channel=0 control=67 value=17 time=2\n",
      "note_on channel=0 note=44 velocity=0 time=11\n",
      "note_on channel=0 note=51 velocity=58 time=2\n",
      "control_change channel=0 control=64 value=93 time=16\n",
      "control_change channel=0 control=64 value=97 time=2\n",
      "note_on channel=0 note=66 velocity=0 time=11\n",
      "note_on channel=0 note=70 velocity=0 time=2\n",
      "control_change channel=0 control=67 value=22 time=12\n",
      "control_change channel=0 control=67 value=16 time=6\n",
      "control_change channel=0 control=64 value=68 time=5\n",
      "control_change channel=0 control=64 value=97 time=0\n",
      "control_change channel=0 control=67 value=19 time=0\n",
      "note_on channel=0 note=61 velocity=47 time=2\n",
      "note_on channel=0 note=70 velocity=70 time=6\n",
      "control_change channel=0 control=67 value=26 time=1\n",
      "control_change channel=0 control=64 value=20 time=4\n",
      "control_change channel=0 control=64 value=20 time=0\n",
      "control_change channel=0 control=64 value=20 time=0\n",
      "note_on channel=0 note=51 velocity=0 time=0\n",
      "note_on channel=0 note=66 velocity=51 time=0\n",
      "note_on channel=0 note=75 velocity=0 time=0\n",
      "control_change channel=0 control=64 value=20 time=2\n",
      "note_on channel=0 note=56 velocity=51 time=8\n",
      "control_change channel=0 control=64 value=88 time=25\n",
      "note_on channel=0 note=56 velocity=0 time=13\n",
      "control_change channel=0 control=64 value=91 time=11\n",
      "control_change channel=0 control=67 value=29 time=0\n",
      "note_on channel=0 note=51 velocity=53 time=13\n",
      "control_change channel=0 control=64 value=104 time=26\n",
      "control_change channel=0 control=64 value=90 time=5\n",
      "note_on channel=0 note=51 velocity=0 time=8\n",
      "control_change channel=0 control=64 value=109 time=6\n",
      "control_change channel=0 control=64 value=113 time=0\n",
      "control_change channel=0 control=67 value=29 time=0\n",
      "control_change channel=0 control=67 value=32 time=0\n",
      "note_on channel=0 note=61 velocity=0 time=0\n",
      "note_on channel=0 note=56 velocity=52 time=13\n",
      "note_on channel=0 note=58 velocity=55 time=1\n",
      "control_change channel=0 control=64 value=112 time=29\n",
      "control_change channel=0 control=67 value=28 time=13\n",
      "note_on channel=0 note=56 velocity=0 time=0\n",
      "note_on channel=0 note=63 velocity=56 time=13\n",
      "control_change channel=0 control=64 value=109 time=32\n",
      "control_change channel=0 control=67 value=28 time=1\n",
      "control_change channel=0 control=64 value=111 time=5\n",
      "control_change channel=0 control=67 value=26 time=5\n",
      "control_change channel=0 control=64 value=103 time=1\n",
      "note_on channel=0 note=58 velocity=0 time=1\n",
      "note_on channel=0 note=61 velocity=61 time=1\n",
      "note_on channel=0 note=63 velocity=0 time=5\n",
      "note_on channel=0 note=56 velocity=53 time=5\n",
      "note_on channel=0 note=66 velocity=0 time=1\n",
      "control_change channel=0 control=67 value=24 time=39\n",
      "control_change channel=0 control=64 value=107 time=2\n",
      "note_on channel=0 note=51 velocity=56 time=11\n",
      "note_on channel=0 note=56 velocity=0 time=2\n",
      "control_change channel=0 control=64 value=92 time=41\n",
      "control_change channel=0 control=67 value=24 time=0\n",
      "control_change channel=0 control=64 value=99 time=9\n",
      "control_change channel=0 control=67 value=24 time=0\n",
      "control_change channel=0 control=64 value=96 time=3\n",
      "note_on channel=0 note=58 velocity=49 time=1\n",
      "control_change channel=0 control=64 value=103 time=1\n",
      "control_change channel=0 control=67 value=23 time=3\n",
      "control_change channel=0 control=67 value=30 time=2\n",
      "note_on channel=0 note=68 velocity=65 time=3\n",
      "control_change channel=0 control=64 value=68 time=3\n",
      "note_on channel=0 note=51 velocity=0 time=0\n",
      "note_on channel=0 note=61 velocity=0 time=2\n",
      "note_on channel=0 note=66 velocity=48 time=3\n",
      "note_on channel=0 note=56 velocity=51 time=3\n",
      "control_change channel=0 control=64 value=20 time=5\n",
      "control_change channel=0 control=64 value=20 time=0\n",
      "control_change channel=0 control=64 value=20 time=0\n",
      "note_on channel=0 note=70 velocity=0 time=0\n",
      "control_change channel=0 control=64 value=93 time=17\n",
      "note_on channel=0 note=56 velocity=0 time=14\n",
      "control_change channel=0 control=64 value=101 time=6\n",
      "control_change channel=0 control=67 value=33 time=0\n",
      "note_on channel=0 note=51 velocity=54 time=13\n",
      "control_change channel=0 control=64 value=89 time=8\n",
      "note_on channel=0 note=58 velocity=0 time=13\n",
      "control_change channel=0 control=64 value=104 time=10\n",
      "control_change channel=0 control=67 value=33 time=2\n",
      "control_change channel=0 control=67 value=33 time=5\n",
      "note_on channel=0 note=51 velocity=0 time=6\n",
      "note_on channel=0 note=60 velocity=59 time=3\n",
      "note_on channel=0 note=44 velocity=52 time=4\n",
      "control_change channel=0 control=67 value=32 time=39\n",
      "control_change channel=0 control=64 value=110 time=1\n",
      "note_on channel=0 note=51 velocity=57 time=12\n",
      "note_on channel=0 note=44 velocity=0 time=1\n",
      "control_change channel=0 control=64 value=104 time=24\n",
      "control_change channel=0 control=64 value=118 time=10\n",
      "control_change channel=0 control=67 value=28 time=0\n",
      "note_on channel=0 note=60 velocity=0 time=3\n",
      "control_change channel=0 control=64 value=105 time=4\n",
      "control_change channel=0 control=64 value=121 time=1\n",
      "control_change channel=0 control=67 value=28 time=0\n",
      "note_on channel=0 note=63 velocity=63 time=5\n",
      "note_on channel=0 note=66 velocity=0 time=7\n",
      "control_change channel=0 control=64 value=111 time=1\n",
      "note_on channel=0 note=44 velocity=52 time=0\n",
      "note_on channel=0 note=51 velocity=0 time=13\n",
      "control_change channel=0 control=64 value=125 time=26\n",
      "control_change channel=0 control=67 value=26 time=0\n",
      "note_on channel=0 note=39 velocity=54 time=14\n",
      "control_change channel=0 control=64 value=113 time=5\n",
      "note_on channel=0 note=44 velocity=0 time=13\n",
      "control_change channel=0 control=64 value=88 time=37\n",
      "control_change channel=0 control=64 value=106 time=0\n",
      "control_change channel=0 control=67 value=32 time=0\n",
      "control_change channel=0 control=64 value=100 time=4\n",
      "control_change channel=0 control=67 value=26 time=3\n",
      "control_change channel=0 control=67 value=29 time=5\n",
      "control_change channel=0 control=67 value=26 time=1\n",
      "note_on channel=0 note=44 velocity=46 time=0\n",
      "note_on channel=0 note=63 velocity=0 time=0\n",
      "control_change channel=0 control=64 value=68 time=4\n",
      "note_on channel=0 note=68 velocity=0 time=0\n",
      "note_on channel=0 note=70 velocity=63 time=3\n",
      "note_on channel=0 note=61 velocity=46 time=5\n",
      "note_on channel=0 note=66 velocity=46 time=1\n",
      "control_change channel=0 control=64 value=20 time=4\n",
      "note_on channel=0 note=39 velocity=0 time=0\n",
      "control_change channel=0 control=64 value=20 time=13\n",
      "control_change channel=0 control=64 value=20 time=0\n",
      "control_change channel=0 control=64 value=20 time=0\n",
      "control_change channel=0 control=64 value=85 time=39\n",
      "note_on channel=0 note=44 velocity=0 time=13\n",
      "control_change channel=0 control=64 value=94 time=1\n",
      "control_change channel=0 control=64 value=95 time=0\n",
      "control_change channel=0 control=67 value=37 time=0\n",
      "control_change channel=0 control=64 value=91 time=3\n",
      "note_on channel=0 note=61 velocity=0 time=10\n",
      "note_on channel=0 note=39 velocity=48 time=1\n",
      "note_on channel=0 note=66 velocity=0 time=2\n",
      "control_change channel=0 control=64 value=108 time=13\n",
      "control_change channel=0 control=64 value=95 time=8\n",
      "note_on channel=0 note=39 velocity=0 time=5\n",
      "control_change channel=0 control=64 value=112 time=8\n",
      "control_change channel=0 control=67 value=38 time=0\n",
      "note_on channel=0 note=70 velocity=0 time=0\n",
      "control_change channel=0 control=64 value=110 time=8\n",
      "control_change channel=0 control=67 value=38 time=0\n",
      "control_change channel=0 control=64 value=118 time=1\n",
      "control_change channel=0 control=67 value=38 time=0\n",
      "control_change channel=0 control=64 value=116 time=3\n",
      "control_change channel=0 control=67 value=38 time=0\n",
      "note_on channel=0 note=44 velocity=49 time=2\n",
      "note_on channel=0 note=68 velocity=51 time=8\n",
      "note_on channel=0 note=77 velocity=61 time=0\n",
      "note_on channel=0 note=72 velocity=50 time=4\n",
      "control_change channel=0 control=64 value=110 time=22\n",
      "control_change channel=0 control=67 value=36 time=5\n",
      "note_on channel=0 note=44 velocity=0 time=8\n",
      "note_on channel=0 note=51 velocity=55 time=5\n",
      "control_change channel=0 control=64 value=108 time=24\n",
      "control_change channel=0 control=64 value=113 time=1\n",
      "control_change channel=0 control=64 value=111 time=4\n",
      "control_change channel=0 control=67 value=34 time=0\n",
      "control_change channel=0 control=67 value=30 time=3\n",
      "control_change channel=0 control=64 value=113 time=1\n",
      "control_change channel=0 control=67 value=32 time=2\n",
      "note_on channel=0 note=68 velocity=0 time=2\n",
      "note_on channel=0 note=72 velocity=0 time=1\n",
      "note_on channel=0 note=75 velocity=70 time=4\n",
      "control_change channel=0 control=64 value=110 time=2\n",
      "control_change channel=0 control=67 value=30 time=1\n",
      "note_on channel=0 note=66 velocity=57 time=0\n",
      "note_on channel=0 note=77 velocity=0 time=2\n",
      "note_on channel=0 note=70 velocity=57 time=1\n",
      "note_on channel=0 note=44 velocity=52 time=10\n",
      "note_on channel=0 note=51 velocity=0 time=0\n",
      "control_change channel=0 control=64 value=102 time=43\n",
      "control_change channel=0 control=67 value=29 time=1\n",
      "note_on channel=0 note=44 velocity=0 time=12\n",
      "note_on channel=0 note=51 velocity=57 time=1\n",
      "control_change channel=0 control=64 value=92 time=13\n",
      "control_change channel=0 control=64 value=95 time=0\n",
      "note_on channel=0 note=66 velocity=0 time=13\n",
      "note_on channel=0 note=70 velocity=0 time=0\n",
      "control_change channel=0 control=67 value=32 time=14\n",
      "control_change channel=0 control=64 value=99 time=3\n",
      "control_change channel=0 control=67 value=27 time=3\n",
      "control_change channel=0 control=64 value=68 time=6\n",
      "note_on channel=0 note=61 velocity=47 time=2\n",
      "control_change channel=0 control=67 value=30 time=1\n",
      "note_on channel=0 note=75 velocity=0 time=1\n",
      "note_on channel=0 note=70 velocity=69 time=3\n",
      "control_change channel=0 control=67 value=39 time=3\n",
      "control_change channel=0 control=64 value=20 time=4\n",
      "control_change channel=0 control=64 value=20 time=0\n",
      "control_change channel=0 control=64 value=20 time=0\n",
      "note_on channel=0 note=51 velocity=0 time=0\n",
      "note_on channel=0 note=66 velocity=52 time=2\n",
      "control_change channel=0 control=64 value=20 time=3\n",
      "note_on channel=0 note=56 velocity=50 time=4\n",
      "control_change channel=0 control=64 value=89 time=24\n",
      "note_on channel=0 note=56 velocity=0 time=13\n",
      "control_change channel=0 control=64 value=92 time=11\n",
      "control_change channel=0 control=67 value=44 time=0\n",
      "note_on channel=0 note=51 velocity=52 time=13\n",
      "control_change channel=0 control=64 value=103 time=27\n",
      "control_change channel=0 control=64 value=89 time=10\n",
      "note_on channel=0 note=51 velocity=0 time=3\n",
      "control_change channel=0 control=67 value=46 time=5\n",
      "control_change channel=0 control=67 value=46 time=1\n",
      "note_on channel=0 note=61 velocity=0 time=4\n",
      "note_on channel=0 note=56 velocity=52 time=9\n",
      "note_on channel=0 note=58 velocity=54 time=0\n",
      "control_change channel=0 control=64 value=111 time=34\n",
      "control_change channel=0 control=67 value=47 time=9\n",
      "note_on channel=0 note=56 velocity=0 time=4\n",
      "control_change channel=0 control=64 value=101 time=5\n",
      "note_on channel=0 note=63 velocity=57 time=4\n",
      "note_on channel=0 note=66 velocity=0 time=9\n",
      "control_change channel=0 control=64 value=108 time=24\n",
      "control_change channel=0 control=67 value=44 time=3\n",
      "control_change channel=0 control=64 value=110 time=9\n",
      "control_change channel=0 control=67 value=46 time=0\n",
      "note_on channel=0 note=58 velocity=0 time=1\n",
      "note_on channel=0 note=61 velocity=59 time=4\n",
      "note_on channel=0 note=63 velocity=0 time=8\n",
      "note_on channel=0 note=56 velocity=54 time=1\n",
      "control_change channel=0 control=64 value=98 time=27\n",
      "note_on channel=0 note=70 velocity=0 time=13\n",
      "control_change channel=0 control=67 value=46 time=3\n",
      "control_change channel=0 control=64 value=109 time=8\n",
      "note_on channel=0 note=51 velocity=57 time=6\n",
      "note_on channel=0 note=56 velocity=0 time=7\n",
      "control_change channel=0 control=64 value=89 time=40\n",
      "control_change channel=0 control=67 value=40 time=0\n",
      "control_change channel=0 control=67 value=43 time=7\n",
      "control_change channel=0 control=64 value=68 time=7\n",
      "control_change channel=0 control=64 value=98 time=0\n",
      "note_on channel=0 note=58 velocity=47 time=0\n",
      "control_change channel=0 control=67 value=41 time=2\n",
      "note_on channel=0 note=68 velocity=66 time=4\n",
      "control_change channel=0 control=67 value=47 time=4\n",
      "control_change channel=0 control=64 value=20 time=3\n",
      "control_change channel=0 control=64 value=20 time=0\n",
      "control_change channel=0 control=64 value=20 time=0\n",
      "note_on channel=0 note=51 velocity=0 time=0\n",
      "note_on channel=0 note=61 velocity=0 time=0\n",
      "note_on channel=0 note=66 velocity=51 time=3\n",
      "note_on channel=0 note=56 velocity=49 time=8\n",
      "control_change channel=0 control=64 value=93 time=19\n",
      "note_on channel=0 note=56 velocity=0 time=13\n",
      "control_change channel=0 control=64 value=95 time=8\n",
      "control_change channel=0 control=67 value=52 time=0\n",
      "note_on channel=0 note=51 velocity=53 time=13\n",
      "control_change channel=0 control=64 value=103 time=30\n",
      "control_change channel=0 control=64 value=86 time=8\n",
      "control_change channel=0 control=67 value=53 time=3\n",
      "note_on channel=0 note=51 velocity=0 time=2\n",
      "control_change channel=0 control=67 value=50 time=2\n",
      "note_on channel=0 note=58 velocity=0 time=6\n",
      "note_on channel=0 note=56 velocity=54 time=4\n",
      "note_on channel=0 note=60 velocity=53 time=3\n",
      "control_change channel=0 control=67 value=54 time=37\n",
      "control_change channel=0 control=64 value=110 time=1\n",
      "note_on channel=0 note=51 velocity=57 time=13\n",
      "note_on channel=0 note=56 velocity=0 time=0\n",
      "control_change channel=0 control=64 value=103 time=18\n",
      "note_on channel=0 note=66 velocity=0 time=13\n",
      "control_change channel=0 control=64 value=106 time=7\n",
      "control_change channel=0 control=64 value=121 time=1\n",
      "control_change channel=0 control=67 value=50 time=0\n",
      "control_change channel=0 control=67 value=50 time=8\n",
      "note_on channel=0 note=60 velocity=0 time=4\n",
      "note_on channel=0 note=56 velocity=56 time=2\n",
      "control_change channel=0 control=64 value=112 time=3\n",
      "note_on channel=0 note=63 velocity=56 time=4\n",
      "note_on channel=0 note=51 velocity=0 time=10\n",
      "control_change channel=0 control=64 value=97 time=11\n",
      "control_change channel=0 control=64 value=125 time=12\n",
      "control_change channel=0 control=67 value=48 time=0\n",
      "note_on channel=0 note=68 velocity=0 time=1\n",
      "note_on channel=0 note=51 velocity=57 time=13\n",
      "control_change channel=0 control=64 value=118 time=12\n",
      "note_on channel=0 note=56 velocity=0 time=13\n",
      "control_change channel=0 control=64 value=106 time=42\n",
      "control_change channel=0 control=67 value=28 time=0\n",
      "control_change channel=0 control=64 value=111 time=3\n",
      "control_change channel=0 control=64 value=99 time=3\n",
      "control_change channel=0 control=64 value=106 time=0\n",
      "control_change channel=0 control=67 value=30 time=0\n",
      "control_change channel=0 control=67 value=39 time=0\n",
      "note_on channel=0 note=54 velocity=49 time=7\n",
      "note_on channel=0 note=63 velocity=0 time=3\n",
      "note_on channel=0 note=61 velocity=49 time=3\n",
      "note_on channel=0 note=75 velocity=65 time=0\n",
      "control_change channel=0 control=64 value=68 time=4\n",
      "control_change channel=0 control=64 value=20 time=13\n",
      "control_change channel=0 control=64 value=20 time=0\n",
      "control_change channel=0 control=64 value=20 time=0\n",
      "note_on channel=0 note=51 velocity=0 time=0\n",
      "control_change channel=0 control=64 value=77 time=48\n",
      "control_change channel=0 control=67 value=31 time=0\n",
      "note_on channel=0 note=63 velocity=49 time=13\n",
      "control_change channel=0 control=64 value=91 time=19\n",
      "note_on channel=0 note=63 velocity=0 time=13\n",
      "control_change channel=0 control=64 value=93 time=11\n",
      "control_change channel=0 control=67 value=35 time=0\n",
      "note_on channel=0 note=66 velocity=54 time=13\n",
      "control_change channel=0 control=64 value=99 time=21\n",
      "note_on channel=0 note=66 velocity=0 time=13\n",
      "control_change channel=0 control=64 value=101 time=7\n",
      "control_change channel=0 control=67 value=39 time=0\n",
      "note_on channel=0 note=70 velocity=56 time=13\n",
      "control_change channel=0 control=64 value=101 time=26\n",
      "note_on channel=0 note=70 velocity=0 time=13\n",
      "control_change channel=0 control=67 value=42 time=5\n",
      "control_change channel=0 control=67 value=44 time=1\n",
      "control_change channel=0 control=64 value=90 time=7\n",
      "note_on channel=0 note=66 velocity=57 time=6\n",
      "note_on channel=0 note=56 velocity=57 time=1\n",
      "note_on channel=0 note=54 velocity=0 time=6\n",
      "control_change channel=0 control=64 value=99 time=23\n",
      "note_on channel=0 note=66 velocity=0 time=13\n",
      "control_change channel=0 control=64 value=100 time=3\n",
      "control_change channel=0 control=67 value=41 time=0\n",
      "note_on channel=0 note=63 velocity=53 time=13\n",
      "control_change channel=0 control=64 value=92 time=36\n",
      "control_change channel=0 control=67 value=39 time=12\n",
      "note_on channel=0 note=63 velocity=0 time=2\n",
      "control_change channel=0 control=64 value=68 time=9\n",
      "note_on channel=0 note=58 velocity=58 time=2\n",
      "control_change channel=0 control=64 value=20 time=12\n",
      "note_on channel=0 note=56 velocity=0 time=0\n",
      "control_change channel=0 control=64 value=79 time=36\n",
      "control_change channel=0 control=67 value=40 time=0\n",
      "note_on channel=0 note=63 velocity=53 time=13\n",
      "control_change channel=0 control=64 value=88 time=31\n",
      "control_change channel=0 control=64 value=90 time=13\n",
      "control_change channel=0 control=67 value=41 time=0\n",
      "note_on channel=0 note=63 velocity=0 time=0\n",
      "note_on channel=0 note=66 velocity=57 time=14\n",
      "control_change channel=0 control=64 value=98 time=31\n",
      "control_change channel=0 control=67 value=41 time=12\n",
      "note_on channel=0 note=66 velocity=0 time=1\n",
      "note_on channel=0 note=70 velocity=58 time=12\n",
      "control_change channel=0 control=64 value=98 time=19\n",
      "control_change channel=0 control=64 value=89 time=10\n",
      "note_on channel=0 note=61 velocity=0 time=3\n",
      "control_change channel=0 control=67 value=38 time=2\n",
      "control_change channel=0 control=64 value=104 time=4\n",
      "control_change channel=0 control=67 value=40 time=5\n",
      "note_on channel=0 note=58 velocity=0 time=0\n",
      "note_on channel=0 note=61 velocity=63 time=4\n",
      "note_on channel=0 note=70 velocity=0 time=5\n",
      "note_on channel=0 note=66 velocity=60 time=4\n",
      "control_change channel=0 control=67 value=34 time=43\n",
      "control_change channel=0 control=64 value=103 time=3\n",
      "note_on channel=0 note=63 velocity=56 time=10\n",
      "note_on channel=0 note=66 velocity=0 time=4\n",
      "control_change channel=0 control=64 value=91 time=29\n",
      "control_change channel=0 control=67 value=24 time=0\n",
      "control_change channel=0 control=64 value=88 time=13\n",
      "control_change channel=0 control=67 value=33 time=0\n",
      "note_on channel=0 note=60 velocity=57 time=0\n",
      "control_change channel=0 control=64 value=83 time=13\n",
      "note_on channel=0 note=78 velocity=68 time=0\n",
      "note_on channel=0 note=63 velocity=0 time=14\n",
      "control_change channel=0 control=64 value=95 time=1\n",
      "control_change channel=0 control=64 value=68 time=11\n",
      "note_on channel=0 note=75 velocity=0 time=2\n",
      "control_change channel=0 control=64 value=20 time=11\n",
      "control_change channel=0 control=64 value=20 time=0\n",
      "note_on channel=0 note=61 velocity=0 time=0\n",
      "control_change channel=0 control=64 value=87 time=20\n",
      "control_change channel=0 control=67 value=25 time=0\n",
      "note_on channel=0 note=63 velocity=52 time=13\n",
      "control_change channel=0 control=64 value=105 time=40\n",
      "control_change channel=0 control=67 value=24 time=13\n",
      "note_on channel=0 note=63 velocity=0 time=1\n",
      "control_change channel=0 control=64 value=99 time=6\n",
      "note_on channel=0 note=66 velocity=55 time=6\n",
      "note_on channel=0 note=60 velocity=0 time=7\n",
      "control_change channel=0 control=64 value=116 time=31\n",
      "control_change channel=0 control=67 value=24 time=5\n",
      "note_on channel=0 note=66 velocity=0 time=8\n",
      "note_on channel=0 note=70 velocity=59 time=5\n",
      "control_change channel=0 control=64 value=94 time=1\n",
      "note_on channel=0 note=78 velocity=0 time=13\n",
      "control_change channel=0 control=64 value=124 time=19\n",
      "control_change channel=0 control=67 value=17 time=0\n",
      "control_change channel=0 control=64 value=124 time=1\n",
      "control_change channel=0 control=67 value=22 time=0\n",
      "note_on channel=0 note=72 velocity=58 time=12\n",
      "note_on channel=0 note=82 velocity=70 time=1\n",
      "control_change channel=0 control=64 value=122 time=2\n",
      "note_on channel=0 note=70 velocity=0 time=13\n",
      "control_change channel=0 control=64 value=127 time=28\n",
      "control_change channel=0 control=67 value=17 time=0\n",
      "note_on channel=0 note=75 velocity=61 time=13\n",
      "control_change channel=0 control=64 value=118 time=24\n",
      "note_on channel=0 note=72 velocity=0 time=13\n",
      "control_change channel=0 control=64 value=106 time=31\n",
      "control_change channel=0 control=67 value=13 time=0\n",
      "note_on channel=0 note=54 velocity=47 time=13\n",
      "control_change channel=0 control=64 value=112 time=3\n",
      "control_change channel=0 control=67 value=12 time=0\n",
      "control_change channel=0 control=64 value=108 time=4\n",
      "control_change channel=0 control=67 value=17 time=0\n",
      "note_on channel=0 note=61 velocity=50 time=9\n",
      "control_change channel=0 control=64 value=112 time=1\n",
      "note_on channel=0 note=75 velocity=66 time=3\n",
      "control_change channel=0 control=64 value=68 time=2\n",
      "note_on channel=0 note=82 velocity=0 time=8\n",
      "control_change channel=0 control=64 value=20 time=5\n",
      "control_change channel=0 control=64 value=20 time=0\n",
      "control_change channel=0 control=64 value=20 time=0\n",
      "note_on channel=0 note=75 velocity=0 time=0\n",
      "control_change channel=0 control=64 value=85 time=36\n",
      "control_change channel=0 control=67 value=21 time=0\n",
      "note_on channel=0 note=63 velocity=49 time=13\n",
      "control_change channel=0 control=64 value=100 time=20\n",
      "note_on channel=0 note=63 velocity=0 time=14\n",
      "control_change channel=0 control=64 value=97 time=6\n",
      "control_change channel=0 control=67 value=25 time=0\n",
      "note_on channel=0 note=66 velocity=55 time=13\n",
      "control_change channel=0 control=64 value=106 time=24\n",
      "note_on channel=0 note=66 velocity=0 time=13\n",
      "control_change channel=0 control=64 value=104 time=3\n",
      "control_change channel=0 control=67 value=29 time=0\n",
      "note_on channel=0 note=70 velocity=56 time=14\n",
      "control_change channel=0 control=64 value=107 time=30\n",
      "control_change channel=0 control=64 value=111 time=5\n",
      "control_change channel=0 control=67 value=32 time=0\n",
      "control_change channel=0 control=64 value=106 time=6\n",
      "control_change channel=0 control=67 value=32 time=0\n",
      "note_on channel=0 note=70 velocity=0 time=2\n",
      "note_on channel=0 note=56 velocity=57 time=5\n",
      "note_on channel=0 note=66 velocity=57 time=7\n",
      "control_change channel=0 control=64 value=98 time=18\n",
      "note_on channel=0 note=54 velocity=0 time=14\n",
      "control_change channel=0 control=64 value=105 time=4\n",
      "control_change channel=0 control=67 value=33 time=6\n",
      "note_on channel=0 note=66 velocity=0 time=7\n",
      "note_on channel=0 note=63 velocity=54 time=6\n",
      "control_change channel=0 control=64 value=95 time=43\n",
      "control_change channel=0 control=67 value=28 time=0\n",
      "control_change channel=0 control=64 value=94 time=2\n",
      "note_on channel=0 note=58 velocity=58 time=11\n",
      "note_on channel=0 note=63 velocity=0 time=2\n",
      "control_change channel=0 control=64 value=68 time=19\n",
      "control_change channel=0 control=64 value=20 time=13\n",
      "note_on channel=0 note=56 velocity=0 time=0\n",
      "control_change channel=0 control=64 value=82 time=22\n",
      "control_change channel=0 control=67 value=30 time=0\n",
      "note_on channel=0 note=63 velocity=54 time=13\n",
      "control_change channel=0 control=64 value=93 time=34\n",
      "control_change channel=0 control=67 value=32 time=13\n",
      "note_on channel=0 note=63 velocity=0 time=0\n",
      "note_on channel=0 note=66 velocity=57 time=13\n",
      "control_change channel=0 control=64 value=101 time=32\n",
      "control_change channel=0 control=67 value=33 time=11\n",
      "note_on channel=0 note=66 velocity=0 time=2\n",
      "note_on channel=0 note=70 velocity=58 time=11\n",
      "control_change channel=0 control=64 value=92 time=22\n",
      "control_change channel=0 control=64 value=107 time=0\n",
      "control_change channel=0 control=67 value=29 time=0\n",
      "note_on channel=0 note=58 velocity=0 time=13\n",
      "note_on channel=0 note=61 velocity=60 time=0\n",
      "control_change channel=0 control=64 value=106 time=3\n",
      "control_change channel=0 control=67 value=32 time=1\n",
      "note_on channel=0 note=66 velocity=59 time=13\n",
      "note_on channel=0 note=70 velocity=0 time=0\n",
      "control_change channel=0 control=64 value=115 time=10\n",
      "note_on channel=0 note=61 velocity=0 time=13\n",
      "control_change channel=0 control=64 value=96 time=8\n",
      "control_change channel=0 control=67 value=25 time=0\n",
      "note_on channel=0 note=63 velocity=56 time=14\n",
      "control_change channel=0 control=64 value=103 time=6\n",
      "note_on channel=0 note=66 velocity=0 time=13\n",
      "control_change channel=0 control=64 value=94 time=34\n",
      "control_change channel=0 control=67 value=17 time=0\n",
      "control_change channel=0 control=64 value=95 time=10\n",
      "control_change channel=0 control=67 value=25 time=0\n",
      "note_on channel=0 note=60 velocity=56 time=3\n",
      "note_on channel=0 note=78 velocity=67 time=10\n",
      "control_change channel=0 control=64 value=106 time=6\n",
      "control_change channel=0 control=64 value=79 time=2\n",
      "note_on channel=0 note=75 velocity=0 time=11\n",
      "note_on channel=0 note=63 velocity=0 time=3\n",
      "control_change channel=0 control=64 value=68 time=3\n",
      "control_change channel=0 control=64 value=20 time=14\n",
      "control_change channel=0 control=64 value=20 time=0\n",
      "note_on channel=0 note=61 velocity=0 time=0\n",
      "control_change channel=0 control=64 value=88 time=20\n",
      "control_change channel=0 control=67 value=20 time=0\n",
      "note_on channel=0 note=63 velocity=50 time=13\n",
      "control_change channel=0 control=64 value=111 time=41\n",
      "note_on channel=0 note=63 velocity=0 time=14\n",
      "control_change channel=0 control=64 value=103 time=6\n",
      "control_change channel=0 control=67 value=22 time=0\n",
      "note_on channel=0 note=66 velocity=52 time=14\n",
      "control_change channel=0 control=64 value=125 time=33\n",
      "control_change channel=0 control=64 value=102 time=3\n",
      "control_change channel=0 control=67 value=23 time=9\n",
      "note_on channel=0 note=66 velocity=0 time=1\n",
      "note_on channel=0 note=60 velocity=0 time=4\n",
      "note_on channel=0 note=70 velocity=56 time=8\n",
      "control_change channel=0 control=64 value=99 time=21\n",
      "note_on channel=0 note=78 velocity=0 time=13\n",
      "control_change channel=0 control=67 value=22 time=3\n",
      "control_change channel=0 control=67 value=18 time=6\n",
      "control_change channel=0 control=64 value=127 time=1\n",
      "note_on channel=0 note=82 velocity=69 time=6\n",
      "note_on channel=0 note=72 velocity=55 time=6\n",
      "note_on channel=0 note=70 velocity=0 time=1\n",
      "control_change channel=0 control=67 value=18 time=52\n",
      "control_change channel=0 control=64 value=125 time=9\n",
      "note_on channel=0 note=75 velocity=59 time=4\n",
      "note_on channel=0 note=72 velocity=0 time=9\n",
      "control_change channel=0 control=64 value=112 time=54\n",
      "control_change channel=0 control=67 value=16 time=6\n",
      "note_on channel=0 note=75 velocity=0 time=7\n",
      "control_change channel=0 control=64 value=68 time=2\n",
      "note_on channel=0 note=66 velocity=49 time=4\n",
      "control_change channel=0 control=67 value=19 time=4\n",
      "control_change channel=0 control=64 value=20 time=6\n",
      "control_change channel=0 control=64 value=20 time=0\n",
      "note_on channel=0 note=82 velocity=0 time=0\n",
      "note_on channel=0 note=87 velocity=64 time=8\n",
      "control_change channel=0 control=64 value=83 time=46\n",
      "control_change channel=0 control=67 value=17 time=0\n",
      "note_on channel=0 note=70 velocity=45 time=13\n",
      "control_change channel=0 control=64 value=103 time=21\n",
      "note_on channel=0 note=70 velocity=0 time=13\n",
      "control_change channel=0 control=64 value=98 time=19\n",
      "control_change channel=0 control=67 value=21 time=0\n",
      "note_on channel=0 note=73 velocity=49 time=13\n",
      "control_change channel=0 control=64 value=117 time=14\n",
      "note_on channel=0 note=73 velocity=0 time=13\n",
      "control_change channel=0 control=64 value=112 time=12\n",
      "control_change channel=0 control=67 value=24 time=0\n",
      "note_on channel=0 note=75 velocity=52 time=14\n",
      "control_change channel=0 control=64 value=119 time=21\n",
      "note_on channel=0 note=75 velocity=0 time=13\n",
      "control_change channel=0 control=64 value=116 time=7\n",
      "control_change channel=0 control=67 value=26 time=0\n",
      "note_on channel=0 note=78 velocity=53 time=14\n",
      "control_change channel=0 control=64 value=115 time=28\n",
      "note_on channel=0 note=78 velocity=0 time=13\n",
      "control_change channel=0 control=64 value=116 time=5\n",
      "control_change channel=0 control=67 value=27 time=0\n",
      "note_on channel=0 note=82 velocity=52 time=13\n",
      "control_change channel=0 control=64 value=111 time=31\n",
      "note_on channel=0 note=82 velocity=0 time=13\n",
      "control_change channel=0 control=64 value=108 time=2\n",
      "control_change channel=0 control=67 value=29 time=0\n",
      "note_on channel=0 note=66 velocity=51 time=13\n",
      "control_change channel=0 control=64 value=107 time=30\n",
      "note_on channel=0 note=66 velocity=0 time=13\n",
      "control_change channel=0 control=64 value=107 time=6\n",
      "control_change channel=0 control=67 value=28 time=0\n",
      "note_on channel=0 note=70 velocity=53 time=13\n",
      "control_change channel=0 control=64 value=111 time=22\n",
      "note_on channel=0 note=70 velocity=0 time=13\n",
      "control_change channel=0 control=64 value=110 time=7\n",
      "control_change channel=0 control=67 value=28 time=0\n",
      "note_on channel=0 note=73 velocity=55 time=14\n",
      "control_change channel=0 control=64 value=113 time=25\n",
      "note_on channel=0 note=73 velocity=0 time=13\n",
      "control_change channel=0 control=64 value=113 time=3\n",
      "control_change channel=0 control=67 value=28 time=0\n",
      "note_on channel=0 note=75 velocity=56 time=14\n",
      "control_change channel=0 control=64 value=114 time=29\n",
      "control_change channel=0 control=67 value=27 time=12\n",
      "note_on channel=0 note=75 velocity=0 time=1\n",
      "note_on channel=0 note=78 velocity=56 time=13\n",
      "control_change channel=0 control=64 value=112 time=33\n",
      "control_change channel=0 control=67 value=26 time=8\n",
      "note_on channel=0 note=78 velocity=0 time=5\n",
      "control_change channel=0 control=64 value=117 time=9\n",
      "note_on channel=0 note=84 velocity=56 time=0\n",
      "note_on channel=0 note=66 velocity=0 time=14\n",
      "control_change channel=0 control=64 value=68 time=21\n",
      "control_change channel=0 control=67 value=23 time=8\n",
      "control_change channel=0 control=64 value=20 time=5\n",
      "note_on channel=0 note=84 velocity=0 time=0\n",
      "note_on channel=0 note=66 velocity=61 time=8\n",
      "control_change channel=0 control=64 value=90 time=49\n",
      "control_change channel=0 control=67 value=18 time=0\n",
      "note_on channel=0 note=70 velocity=51 time=13\n",
      "control_change channel=0 control=64 value=103 time=28\n",
      "note_on channel=0 note=70 velocity=0 time=13\n",
      "control_change channel=0 control=64 value=98 time=3\n",
      "control_change channel=0 control=67 value=18 time=0\n",
      "note_on channel=0 note=73 velocity=55 time=13\n",
      "control_change channel=0 control=64 value=113 time=29\n",
      "control_change channel=0 control=67 value=18 time=11\n",
      "note_on channel=0 note=73 velocity=0 time=2\n",
      "note_on channel=0 note=75 velocity=57 time=11\n",
      "control_change channel=0 control=64 value=104 time=15\n",
      "note_on channel=0 note=66 velocity=0 time=13\n",
      "control_change channel=0 control=64 value=117 time=10\n",
      "control_change channel=0 control=67 value=17 time=1\n",
      "note_on channel=0 note=75 velocity=0 time=12\n",
      "note_on channel=0 note=78 velocity=59 time=1\n",
      "control_change channel=0 control=67 value=16 time=41\n",
      "control_change channel=0 control=64 value=111 time=5\n",
      "note_on channel=0 note=82 velocity=57 time=8\n",
      "note_on channel=0 note=78 velocity=0 time=5\n",
      "control_change channel=0 control=64 value=68 time=45\n",
      "control_change channel=0 control=67 value=15 time=12\n",
      "control_change channel=0 control=64 value=20 time=2\n",
      "note_on channel=0 note=82 velocity=0 time=0\n",
      "note_on channel=0 note=66 velocity=65 time=11\n",
      "control_change channel=0 control=64 value=84 time=41\n",
      "control_change channel=0 control=67 value=13 time=0\n",
      "note_on channel=0 note=69 velocity=50 time=13\n",
      "control_change channel=0 control=64 value=98 time=28\n",
      "note_on channel=0 note=69 velocity=0 time=13\n",
      "control_change channel=0 control=64 value=97 time=8\n",
      "control_change channel=0 control=67 value=14 time=0\n",
      "note_on channel=0 note=73 velocity=53 time=13\n",
      "control_change channel=0 control=64 value=117 time=23\n",
      "control_change channel=0 control=67 value=16 time=13\n",
      "note_on channel=0 note=73 velocity=0 time=0\n",
      "note_on channel=0 note=75 velocity=56 time=13\n",
      "control_change channel=0 control=64 value=114 time=34\n",
      "control_change channel=0 control=64 value=120 time=1\n",
      "control_change channel=0 control=67 value=17 time=2\n",
      "note_on channel=0 note=87 velocity=0 time=10\n",
      "note_on channel=0 note=75 velocity=0 time=1\n",
      "note_on channel=0 note=78 velocity=58 time=2\n",
      "control_change channel=0 control=67 value=17 time=40\n",
      "control_change channel=0 control=64 value=114 time=5\n",
      "note_on channel=0 note=81 velocity=56 time=8\n",
      "note_on channel=0 note=78 velocity=0 time=5\n",
      "control_change channel=0 control=67 value=17 time=43\n",
      "control_change channel=0 control=64 value=68 time=3\n",
      "control_change channel=0 control=67 value=21 time=5\n",
      "note_on channel=0 note=66 velocity=49 time=5\n",
      "control_change channel=0 control=64 value=20 time=3\n",
      "note_on channel=0 note=81 velocity=0 time=0\n",
      "note_on channel=0 note=85 velocity=68 time=5\n",
      "control_change channel=0 control=64 value=20 time=6\n",
      "control_change channel=0 control=64 value=96 time=24\n",
      "note_on channel=0 note=66 velocity=0 time=13\n",
      "control_change channel=0 control=64 value=107 time=7\n",
      "control_change channel=0 control=64 value=88 time=7\n",
      "control_change channel=0 control=67 value=20 time=0\n",
      "note_on channel=0 note=66 velocity=0 time=6\n",
      "note_on channel=0 note=69 velocity=50 time=7\n",
      "control_change channel=0 control=64 value=114 time=20\n",
      "note_on channel=0 note=69 velocity=0 time=13\n",
      "control_change channel=0 control=64 value=104 time=9\n",
      "control_change channel=0 control=67 value=22 time=0\n",
      "note_on channel=0 note=73 velocity=53 time=14\n",
      "control_change channel=0 control=64 value=122 time=30\n",
      "control_change channel=0 control=67 value=22 time=11\n",
      "note_on channel=0 note=73 velocity=0 time=2\n",
      "note_on channel=0 note=75 velocity=55 time=11\n",
      "control_change channel=0 control=64 value=122 time=41\n",
      "control_change channel=0 control=67 value=22 time=1\n",
      "note_on channel=0 note=75 velocity=0 time=12\n",
      "note_on channel=0 note=78 velocity=58 time=1\n",
      "control_change channel=0 control=64 value=106 time=40\n",
      "control_change channel=0 control=67 value=21 time=3\n",
      "control_change channel=0 control=64 value=118 time=9\n",
      "note_on channel=0 note=85 velocity=0 time=1\n",
      "note_on channel=0 note=83 velocity=57 time=3\n",
      "note_on channel=0 note=78 velocity=0 time=9\n",
      "control_change channel=0 control=67 value=16 time=39\n",
      "control_change channel=0 control=64 value=68 time=12\n",
      "note_on channel=0 note=66 velocity=56 time=2\n",
      "control_change channel=0 control=67 value=20 time=4\n",
      "control_change channel=0 control=64 value=20 time=7\n",
      "control_change channel=0 control=64 value=20 time=0\n",
      "note_on channel=0 note=83 velocity=0 time=0\n",
      "note_on channel=0 note=87 velocity=69 time=6\n",
      "control_change channel=0 control=64 value=82 time=65\n",
      "control_change channel=0 control=67 value=15 time=0\n",
      "note_on channel=0 note=69 velocity=49 time=13\n",
      "control_change channel=0 control=64 value=106 time=19\n",
      "note_on channel=0 note=69 velocity=0 time=14\n",
      "control_change channel=0 control=64 value=96 time=17\n",
      "control_change channel=0 control=67 value=18 time=0\n",
      "note_on channel=0 note=73 velocity=52 time=13\n",
      "control_change channel=0 control=64 value=122 time=25\n",
      "note_on channel=0 note=73 velocity=0 time=13\n",
      "control_change channel=0 control=64 value=112 time=2\n",
      "control_change channel=0 control=67 value=20 time=0\n",
      "control_change channel=0 control=64 value=103 time=6\n",
      "note_on channel=0 note=75 velocity=55 time=7\n",
      "note_on channel=0 note=66 velocity=0 time=7\n",
      "control_change channel=0 control=64 value=124 time=31\n",
      "control_change channel=0 control=67 value=22 time=5\n",
      "note_on channel=0 note=75 velocity=0 time=9\n",
      "note_on channel=0 note=78 velocity=55 time=4\n",
      "control_change channel=0 control=64 value=111 time=7\n",
      "note_on channel=0 note=87 velocity=0 time=13\n",
      "control_change channel=0 control=67 value=22 time=29\n",
      "control_change channel=0 control=64 value=119 time=1\n",
      "note_on channel=0 note=81 velocity=54 time=12\n",
      "note_on channel=0 note=78 velocity=0 time=1\n",
      "control_change channel=0 control=67 value=22 time=45\n",
      "control_change channel=0 control=64 value=68 time=7\n",
      "note_on channel=0 note=65 velocity=58 time=6\n",
      "control_change channel=0 control=64 value=20 time=7\n",
      "note_on channel=0 note=81 velocity=0 time=0\n",
      "control_change channel=0 control=64 value=89 time=67\n",
      "control_change channel=0 control=67 value=22 time=0\n",
      "note_on channel=0 note=68 velocity=47 time=14\n",
      "control_change channel=0 control=64 value=111 time=37\n",
      "note_on channel=0 note=68 velocity=0 time=13\n",
      "control_change channel=0 control=64 value=98 time=3\n",
      "control_change channel=0 control=67 value=25 time=0\n",
      "note_on channel=0 note=72 velocity=48 time=13\n",
      "control_change channel=0 control=64 value=124 time=32\n",
      "control_change channel=0 control=67 value=29 time=2\n",
      "note_on channel=0 note=72 velocity=0 time=11\n",
      "note_on channel=0 note=77 velocity=52 time=3\n",
      "control_change channel=0 control=67 value=29 time=40\n",
      "control_change channel=0 control=64 value=126 time=13\n",
      "note_on channel=0 note=80 velocity=54 time=0\n",
      "note_on channel=0 note=77 velocity=0 time=13\n",
      "control_change channel=0 control=64 value=127 time=38\n",
      "control_change channel=0 control=67 value=28 time=0\n",
      "note_on channel=0 note=84 velocity=53 time=13\n",
      "control_change channel=0 control=64 value=124 time=8\n",
      "note_on channel=0 note=80 velocity=0 time=13\n",
      "control_change channel=0 control=64 value=107 time=15\n",
      "note_on channel=0 note=65 velocity=0 time=13\n",
      "control_change channel=0 control=67 value=23 time=36\n",
      "control_change channel=0 control=64 value=68 time=3\n",
      "control_change channel=0 control=67 value=25 time=3\n",
      "note_on channel=0 note=92 velocity=67 time=7\n",
      "control_change channel=0 control=64 value=20 time=3\n",
      "control_change channel=0 control=64 value=20 time=0\n",
      "note_on channel=0 note=84 velocity=0 time=0\n",
      "note_on channel=0 note=89 velocity=53 time=3\n",
      "control_change channel=0 control=64 value=111 time=296\n",
      "note_on channel=0 note=89 velocity=0 time=13\n",
      "control_change channel=0 control=64 value=107 time=100\n",
      "note_on channel=0 note=92 velocity=0 time=14\n",
      "control_change channel=0 control=64 value=118 time=61\n",
      "control_change channel=0 control=67 value=36 time=0\n",
      "control_change channel=0 control=64 value=115 time=11\n",
      "control_change channel=0 control=67 value=33 time=0\n",
      "note_on channel=0 note=65 velocity=39 time=2\n",
      "note_on channel=0 note=89 velocity=47 time=12\n",
      "control_change channel=0 control=64 value=115 time=349\n",
      "note_on channel=0 note=89 velocity=0 time=14\n",
      "control_change channel=0 control=64 value=109 time=7\n",
      "note_on channel=0 note=65 velocity=0 time=13\n",
      "control_change channel=0 control=64 value=68 time=44\n",
      "control_change channel=0 control=67 value=35 time=0\n",
      "control_change channel=0 control=64 value=20 time=14\n",
      "note_on channel=0 note=65 velocity=39 time=0\n",
      "control_change channel=0 control=64 value=92 time=108\n",
      "control_change channel=0 control=67 value=39 time=0\n",
      "note_on channel=0 note=69 velocity=40 time=13\n",
      "control_change channel=0 control=67 value=48 time=45\n",
      "control_change channel=0 control=64 value=106 time=4\n",
      "note_on channel=0 note=72 velocity=41 time=9\n",
      "note_on channel=0 note=69 velocity=0 time=5\n",
      "control_change channel=0 control=64 value=111 time=13\n",
      "control_change channel=0 control=67 value=46 time=0\n",
      "control_change channel=0 control=64 value=114 time=6\n",
      "control_change channel=0 control=67 value=42 time=0\n",
      "note_on channel=0 note=84 velocity=44 time=7\n",
      "note_on channel=0 note=87 velocity=56 time=6\n",
      "control_change channel=0 control=67 value=52 time=16\n",
      "control_change channel=0 control=64 value=118 time=11\n",
      "note_on channel=0 note=75 velocity=46 time=2\n",
      "note_on channel=0 note=72 velocity=0 time=11\n",
      "control_change channel=0 control=64 value=113 time=30\n",
      "control_change channel=0 control=64 value=115 time=1\n",
      "control_change channel=0 control=64 value=118 time=5\n",
      "control_change channel=0 control=67 value=43 time=0\n",
      "note_on channel=0 note=87 velocity=0 time=7\n",
      "note_on channel=0 note=84 velocity=0 time=2\n",
      "note_on channel=0 note=77 velocity=47 time=4\n",
      "control_change channel=0 control=67 value=54 time=1\n",
      "control_change channel=0 control=67 value=49 time=8\n",
      "control_change channel=0 control=64 value=120 time=4\n",
      "note_on channel=0 note=89 velocity=66 time=1\n",
      "note_on channel=0 note=85 velocity=52 time=8\n",
      "note_on channel=0 note=75 velocity=0 time=4\n",
      "control_change channel=0 control=64 value=123 time=56\n",
      "control_change channel=0 control=67 value=40 time=0\n",
      "note_on channel=0 note=81 velocity=48 time=13\n",
      "control_change channel=0 control=64 value=121 time=26\n",
      "control_change channel=0 control=64 value=117 time=6\n",
      "note_on channel=0 note=85 velocity=0 time=8\n",
      "note_on channel=0 note=77 velocity=0 time=5\n",
      "control_change channel=0 control=64 value=116 time=13\n",
      "note_on channel=0 note=89 velocity=0 time=14\n",
      "control_change channel=0 control=67 value=29 time=26\n",
      "control_change channel=0 control=67 value=28 time=2\n",
      "control_change channel=0 control=64 value=108 time=1\n",
      "note_on channel=0 note=87 velocity=62 time=10\n",
      "note_on channel=0 note=84 velocity=41 time=2\n",
      "note_on channel=0 note=81 velocity=0 time=1\n",
      "control_change channel=0 control=64 value=122 time=465\n",
      "control_change channel=0 control=67 value=30 time=0\n",
      "note_on channel=0 note=65 velocity=38 time=14\n",
      "control_change channel=0 control=64 value=103 time=34\n",
      "note_on channel=0 note=65 velocity=0 time=14\n",
      "control_change channel=0 control=64 value=118 time=143\n",
      "note_on channel=0 note=84 velocity=0 time=13\n",
      "control_change channel=0 control=64 value=109 time=122\n",
      "note_on channel=0 note=65 velocity=0 time=13\n",
      "control_change channel=0 control=64 value=68 time=98\n",
      "control_change channel=0 control=67 value=34 time=0\n",
      "control_change channel=0 control=64 value=20 time=13\n",
      "note_on channel=0 note=65 velocity=38 time=0\n",
      "control_change channel=0 control=64 value=117 time=40\n",
      "note_on channel=0 note=87 velocity=0 time=13\n",
      "control_change channel=0 control=64 value=103 time=47\n",
      "control_change channel=0 control=67 value=42 time=0\n",
      "note_on channel=0 note=68 velocity=37 time=13\n",
      "control_change channel=0 control=64 value=113 time=20\n",
      "note_on channel=0 note=68 velocity=0 time=13\n",
      "control_change channel=0 control=64 value=114 time=15\n",
      "control_change channel=0 control=67 value=48 time=0\n",
      "note_on channel=0 note=70 velocity=41 time=13\n",
      "control_change channel=0 control=64 value=119 time=9\n",
      "control_change channel=0 control=67 value=41 time=0\n",
      "control_change channel=0 control=64 value=113 time=1\n",
      "control_change channel=0 control=67 value=42 time=0\n",
      "note_on channel=0 note=85 velocity=50 time=12\n",
      "note_on channel=0 note=82 velocity=39 time=2\n",
      "control_change channel=0 control=64 value=121 time=8\n",
      "note_on channel=0 note=70 velocity=0 time=13\n",
      "control_change channel=0 control=64 value=114 time=4\n",
      "control_change channel=0 control=67 value=54 time=0\n",
      "note_on channel=0 note=73 velocity=46 time=14\n",
      "control_change channel=0 control=64 value=114 time=11\n",
      "control_change channel=0 control=64 value=118 time=1\n",
      "note_on channel=0 note=85 velocity=0 time=12\n",
      "note_on channel=0 note=82 velocity=0 time=1\n",
      "control_change channel=0 control=67 value=60 time=8\n",
      "control_change channel=0 control=64 value=118 time=9\n",
      "note_on channel=0 note=77 velocity=44 time=4\n",
      "control_change channel=0 control=64 value=111 time=9\n",
      "control_change channel=0 control=67 value=58 time=0\n",
      "note_on channel=0 note=73 velocity=0 time=0\n",
      "control_change channel=0 control=64 value=119 time=3\n",
      "control_change channel=0 control=67 value=57 time=0\n",
      "note_on channel=0 note=84 velocity=46 time=10\n",
      "note_on channel=0 note=87 velocity=59 time=3\n",
      "control_change channel=0 control=67 value=63 time=57\n",
      "control_change channel=0 control=64 value=109 time=2\n",
      "control_change channel=0 control=64 value=113 time=0\n",
      "note_on channel=0 note=80 velocity=45 time=11\n",
      "note_on channel=0 note=77 velocity=0 time=2\n",
      "note_on channel=0 note=84 velocity=0 time=1\n",
      "control_change channel=0 control=64 value=113 time=8\n",
      "note_on channel=0 note=87 velocity=0 time=14\n",
      "control_change channel=0 control=64 value=112 time=13\n",
      "note_on channel=0 note=80 velocity=0 time=13\n",
      "control_change channel=0 control=64 value=108 time=11\n",
      "control_change channel=0 control=67 value=59 time=0\n",
      "control_change channel=0 control=64 value=97 time=5\n",
      "control_change channel=0 control=67 value=57 time=0\n",
      "note_on channel=0 note=85 velocity=59 time=9\n",
      "note_on channel=0 note=82 velocity=43 time=4\n",
      "control_change channel=0 control=64 value=106 time=90\n",
      "note_on channel=0 note=82 velocity=0 time=13\n",
      "control_change channel=0 control=64 value=108 time=5\n",
      "note_on channel=0 note=85 velocity=0 time=13\n",
      "control_change channel=0 control=64 value=95 time=58\n",
      "control_change channel=0 control=67 value=51 time=0\n",
      "control_change channel=0 control=64 value=68 time=4\n",
      "control_change channel=0 control=67 value=49 time=0\n",
      "note_on channel=0 note=89 velocity=50 time=9\n",
      "note_on channel=0 note=85 velocity=41 time=4\n",
      "control_change channel=0 control=64 value=20 time=13\n",
      "control_change channel=0 control=64 value=20 time=0\n",
      "control_change channel=0 control=64 value=104 time=86\n",
      "note_on channel=0 note=65 velocity=0 time=13\n",
      "control_change channel=0 control=64 value=68 time=75\n",
      "control_change channel=0 control=67 value=53 time=0\n",
      "control_change channel=0 control=64 value=20 time=14\n",
      "note_on channel=0 note=65 velocity=38 time=0\n",
      "control_change channel=0 control=64 value=104 time=13\n",
      "note_on channel=0 note=85 velocity=0 time=13\n",
      "control_change channel=0 control=64 value=103 time=11\n",
      "note_on channel=0 note=89 velocity=0 time=13\n",
      "control_change channel=0 control=64 value=102 time=123\n",
      "control_change channel=0 control=67 value=47 time=0\n",
      "control_change channel=0 control=64 value=68 time=8\n",
      "control_change channel=0 control=67 value=47 time=0\n",
      "note_on channel=0 note=85 velocity=49 time=5\n",
      "control_change channel=0 control=64 value=20 time=9\n",
      "control_change channel=0 control=64 value=20 time=0\n",
      "note_on channel=0 note=82 velocity=37 time=0\n",
      "control_change channel=0 control=64 value=100 time=81\n",
      "note_on channel=0 note=65 velocity=0 time=13\n",
      "control_change channel=0 control=64 value=108 time=77\n",
      "control_change channel=0 control=64 value=68 time=2\n",
      "control_change channel=0 control=67 value=46 time=0\n",
      "note_on channel=0 note=82 velocity=0 time=12\n",
      "control_change channel=0 control=64 value=20 time=1\n",
      "note_on channel=0 note=63 velocity=38 time=0\n",
      "control_change channel=0 control=64 value=102 time=28\n",
      "note_on channel=0 note=85 velocity=0 time=13\n",
      "control_change channel=0 control=64 value=96 time=45\n",
      "control_change channel=0 control=67 value=51 time=0\n",
      "note_on channel=0 note=66 velocity=40 time=13\n",
      "control_change channel=0 control=64 value=103 time=31\n",
      "control_change channel=0 control=67 value=59 time=0\n",
      "note_on channel=0 note=68 velocity=42 time=13\n",
      "control_change channel=0 control=64 value=106 time=5\n",
      "control_change channel=0 control=67 value=53 time=0\n",
      "control_change channel=0 control=67 value=51 time=12\n",
      "note_on channel=0 note=80 velocity=44 time=1\n",
      "control_change channel=0 control=64 value=100 time=6\n",
      "note_on channel=0 note=84 velocity=54 time=6\n",
      "note_on channel=0 note=66 velocity=0 time=7\n",
      "control_change channel=0 control=64 value=101 time=15\n",
      "control_change channel=0 control=67 value=66 time=0\n",
      "note_on channel=0 note=72 velocity=47 time=13\n",
      "control_change channel=0 control=64 value=108 time=25\n",
      "control_change channel=0 control=64 value=108 time=5\n",
      "note_on channel=0 note=68 velocity=0 time=8\n",
      "control_change channel=0 control=64 value=107 time=2\n",
      "note_on channel=0 note=80 velocity=0 time=3\n",
      "note_on channel=0 note=84 velocity=0 time=10\n",
      "control_change channel=0 control=64 value=109 time=1\n",
      "control_change channel=0 control=67 value=64 time=0\n",
      "control_change channel=0 control=64 value=107 time=8\n",
      "control_change channel=0 control=67 value=67 time=0\n",
      "control_change channel=0 control=64 value=105 time=2\n",
      "control_change channel=0 control=67 value=65 time=0\n",
      "note_on channel=0 note=75 velocity=46 time=3\n",
      "note_on channel=0 note=85 velocity=62 time=8\n",
      "note_on channel=0 note=82 velocity=48 time=2\n",
      "control_change channel=0 control=64 value=108 time=29\n",
      "note_on channel=0 note=72 velocity=0 time=13\n",
      "control_change channel=0 control=64 value=113 time=31\n",
      "control_change channel=0 control=67 value=65 time=0\n",
      "note_on channel=0 note=78 velocity=44 time=13\n",
      "control_change channel=0 control=64 value=118 time=16\n",
      "note_on channel=0 note=82 velocity=0 time=13\n",
      "control_change channel=0 control=64 value=112 time=17\n",
      "control_change channel=0 control=64 value=109 time=1\n",
      "note_on channel=0 note=85 velocity=0 time=12\n",
      "note_on channel=0 note=75 velocity=0 time=1\n",
      "control_change channel=0 control=67 value=49 time=46\n",
      "control_change channel=0 control=67 value=55 time=7\n",
      "control_change channel=0 control=64 value=103 time=2\n",
      "note_on channel=0 note=80 velocity=41 time=4\n",
      "note_on channel=0 note=84 velocity=57 time=7\n",
      "note_on channel=0 note=78 velocity=0 time=3\n",
      "control_change channel=0 control=64 value=100 time=261\n",
      "note_on channel=0 note=63 velocity=0 time=13\n",
      "control_change channel=0 control=64 value=68 time=262\n",
      "control_change channel=0 control=67 value=49 time=0\n",
      "control_change channel=0 control=64 value=20 time=13\n",
      "note_on channel=0 note=63 velocity=37 time=0\n",
      "control_change channel=0 control=64 value=117 time=113\n",
      "note_on channel=0 note=80 velocity=0 time=13\n",
      "control_change channel=0 control=64 value=108 time=224\n",
      "note_on channel=0 note=63 velocity=0 time=13\n",
      "control_change channel=0 control=64 value=114 time=73\n",
      "note_on channel=0 note=84 velocity=0 time=13\n",
      "control_change channel=0 control=64 value=68 time=36\n",
      "control_change channel=0 control=67 value=45 time=0\n",
      "control_change channel=0 control=64 value=20 time=14\n",
      "note_on channel=0 note=61 velocity=37 time=0\n",
      "control_change channel=0 control=64 value=104 time=119\n",
      "control_change channel=0 control=67 value=54 time=0\n",
      "note_on channel=0 note=63 velocity=37 time=13\n",
      "control_change channel=0 control=64 value=110 time=28\n",
      "note_on channel=0 note=63 velocity=0 time=13\n",
      "control_change channel=0 control=64 value=123 time=34\n",
      "control_change channel=0 control=67 value=52 time=0\n",
      "control_change channel=0 control=64 value=114 time=3\n",
      "control_change channel=0 control=67 value=62 time=0\n",
      "control_change channel=0 control=64 value=120 time=7\n",
      "control_change channel=0 control=67 value=55 time=0\n",
      "note_on channel=0 note=82 velocity=47 time=3\n",
      "note_on channel=0 note=66 velocity=37 time=3\n",
      "note_on channel=0 note=78 velocity=37 time=8\n",
      "control_change channel=0 control=64 value=122 time=11\n",
      "note_on channel=0 note=66 velocity=0 time=13\n",
      "control_change channel=0 control=64 value=115 time=39\n",
      "control_change channel=0 control=67 value=67 time=0\n",
      "control_change channel=0 control=64 value=116 time=1\n",
      "control_change channel=0 control=64 value=114 time=3\n",
      "note_on channel=0 note=70 velocity=43 time=9\n",
      "note_on channel=0 note=82 velocity=0 time=1\n",
      "note_on channel=0 note=78 velocity=0 time=3\n",
      "control_change channel=0 control=64 value=122 time=16\n",
      "note_on channel=0 note=70 velocity=0 time=13\n",
      "control_change channel=0 control=64 value=116 time=10\n",
      "control_change channel=0 control=67 value=72 time=0\n",
      "note_on channel=0 note=73 velocity=41 time=13\n",
      "control_change channel=0 control=64 value=121 time=2\n",
      "control_change channel=0 control=67 value=69 time=0\n",
      "control_change channel=0 control=64 value=126 time=1\n",
      "control_change channel=0 control=67 value=67 time=0\n",
      "note_on channel=0 note=80 velocity=46 time=12\n",
      "note_on channel=0 note=84 velocity=60 time=1\n",
      "control_change channel=0 control=64 value=115 time=36\n",
      "note_on channel=0 note=73 velocity=0 time=13\n",
      "control_change channel=0 control=64 value=112 time=5\n",
      "control_change channel=0 control=67 value=72 time=0\n",
      "note_on channel=0 note=75 velocity=42 time=13\n",
      "control_change channel=0 control=64 value=115 time=24\n",
      "control_change channel=0 control=64 value=113 time=10\n",
      "note_on channel=0 note=80 velocity=0 time=3\n",
      "control_change channel=0 control=64 value=115 time=3\n",
      "note_on channel=0 note=75 velocity=0 time=7\n",
      "note_on channel=0 note=84 velocity=0 time=6\n",
      "control_change channel=0 control=64 value=95 time=11\n",
      "control_change channel=0 control=67 value=66 time=0\n",
      "control_change channel=0 control=64 value=106 time=5\n",
      "control_change channel=0 control=67 value=72 time=0\n",
      "note_on channel=0 note=78 velocity=45 time=8\n",
      "note_on channel=0 note=82 velocity=57 time=5\n",
      "control_change channel=0 control=64 value=102 time=100\n",
      "control_change channel=0 control=67 value=63 time=10\n",
      "note_on channel=0 note=82 velocity=0 time=3\n",
      "note_on channel=0 note=87 velocity=56 time=10\n",
      "control_change channel=0 control=64 value=105 time=38\n",
      "note_on channel=0 note=61 velocity=0 time=14\n",
      "control_change channel=0 control=64 value=106 time=42\n",
      "note_on channel=0 note=78 velocity=0 time=13\n",
      "control_change channel=0 control=64 value=97 time=5\n",
      "control_change channel=0 control=67 value=62 time=7\n",
      "note_on channel=0 note=87 velocity=0 time=6\n",
      "note_on channel=0 note=82 velocity=53 time=8\n",
      "control_change channel=0 control=64 value=94 time=119\n",
      "control_change channel=0 control=67 value=60 time=2\n",
      "control_change channel=0 control=67 value=62 time=3\n",
      "control_change channel=0 control=67 value=61 time=1\n",
      "control_change channel=0 control=67 value=60 time=2\n",
      "control_change channel=0 control=67 value=64 time=0\n",
      "control_change channel=0 control=67 value=59 time=1\n",
      "note_on channel=0 note=82 velocity=0 time=4\n",
      "note_on channel=0 note=77 velocity=45 time=2\n",
      "note_on channel=0 note=80 velocity=51 time=4\n",
      "control_change channel=0 control=64 value=68 time=3\n",
      "control_change channel=0 control=67 value=68 time=0\n",
      "control_change channel=0 control=64 value=20 time=27\n",
      "control_change channel=0 control=64 value=20 time=0\n",
      "control_change channel=0 control=64 value=20 time=0\n",
      "control_change channel=0 control=64 value=20 time=0\n",
      "control_change channel=0 control=64 value=89 time=83\n",
      "control_change channel=0 control=67 value=70 time=9\n",
      "note_on channel=0 note=80 velocity=0 time=4\n",
      "note_on channel=0 note=82 velocity=53 time=9\n",
      "control_change channel=0 control=64 value=112 time=40\n",
      "control_change channel=0 control=64 value=112 time=8\n",
      "control_change channel=0 control=64 value=110 time=13\n",
      "control_change channel=0 control=64 value=108 time=3\n",
      "control_change channel=0 control=64 value=106 time=74\n",
      "control_change channel=0 control=64 value=102 time=5\n",
      "control_change channel=0 control=67 value=69 time=0\n",
      "note_on channel=0 note=80 velocity=44 time=13\n",
      "control_change channel=0 control=64 value=68 time=1\n",
      "control_change channel=0 control=64 value=20 time=13\n",
      "note_on channel=0 note=82 velocity=0 time=0\n",
      "control_change channel=0 control=64 value=101 time=31\n",
      "note_on channel=0 note=77 velocity=0 time=14\n",
      "control_change channel=0 control=64 value=68 time=73\n",
      "control_change channel=0 control=67 value=69 time=0\n",
      "control_change channel=0 control=64 value=20 time=13\n",
      "note_on channel=0 note=48 velocity=38 time=0\n",
      "control_change channel=0 control=64 value=103 time=69\n",
      "control_change channel=0 control=64 value=105 time=9\n",
      "control_change channel=0 control=67 value=73 time=0\n",
      "note_on channel=0 note=80 velocity=0 time=4\n",
      "note_on channel=0 note=54 velocity=37 time=10\n",
      "control_change channel=0 control=64 value=105 time=57\n",
      "control_change channel=0 control=67 value=63 time=4\n",
      "control_change channel=0 control=67 value=66 time=4\n",
      "control_change channel=0 control=67 value=69 time=1\n",
      "note_on channel=0 note=54 velocity=0 time=4\n",
      "note_on channel=0 note=75 velocity=42 time=4\n",
      "note_on channel=0 note=78 velocity=53 time=5\n",
      "note_on channel=0 note=58 velocity=38 time=1\n",
      "control_change channel=0 control=64 value=109 time=42\n",
      "note_on channel=0 note=58 velocity=0 time=13\n",
      "control_change channel=0 control=64 value=103 time=2\n",
      "control_change channel=0 control=67 value=71 time=0\n",
      "note_on channel=0 note=60 velocity=43 time=13\n",
      "control_change channel=0 control=64 value=111 time=11\n",
      "control_change channel=0 control=64 value=108 time=7\n",
      "note_on channel=0 note=75 velocity=0 time=6\n",
      "note_on channel=0 note=78 velocity=0 time=7\n",
      "control_change channel=0 control=64 value=101 time=2\n",
      "control_change channel=0 control=64 value=101 time=0\n",
      "control_change channel=0 control=67 value=64 time=0\n",
      "control_change channel=0 control=67 value=66 time=0\n",
      "control_change channel=0 control=67 value=67 time=6\n",
      "control_change channel=0 control=64 value=105 time=7\n",
      "note_on channel=0 note=63 velocity=44 time=0\n",
      "note_on channel=0 note=77 velocity=47 time=0\n",
      "note_on channel=0 note=80 velocity=60 time=6\n",
      "note_on channel=0 note=60 velocity=0 time=8\n",
      "control_change channel=0 control=64 value=101 time=29\n",
      "control_change channel=0 control=67 value=65 time=0\n",
      "note_on channel=0 note=66 velocity=48 time=13\n",
      "control_change channel=0 control=64 value=99 time=27\n",
      "control_change channel=0 control=64 value=109 time=13\n",
      "note_on channel=0 note=63 velocity=0 time=0\n",
      "note_on channel=0 note=77 velocity=0 time=13\n",
      "control_change channel=0 control=64 value=106 time=9\n",
      "note_on channel=0 note=80 velocity=0 time=13\n",
      "control_change channel=0 control=64 value=86 time=13\n",
      "control_change channel=0 control=67 value=62 time=0\n",
      "control_change channel=0 control=67 value=58 time=5\n",
      "control_change channel=0 control=67 value=59 time=2\n",
      "note_on channel=0 note=78 velocity=58 time=6\n",
      "control_change channel=0 control=64 value=93 time=4\n",
      "note_on channel=0 note=75 velocity=43 time=2\n",
      "note_on channel=0 note=70 velocity=40 time=1\n",
      "note_on channel=0 note=66 velocity=0 time=10\n",
      "control_change channel=0 control=64 value=102 time=171\n",
      "note_on channel=0 note=48 velocity=0 time=13\n",
      "control_change channel=0 control=64 value=110 time=20\n",
      "note_on channel=0 note=75 velocity=0 time=13\n",
      "control_change channel=0 control=64 value=108 time=19\n",
      "note_on channel=0 note=70 velocity=0 time=13\n",
      "control_change channel=0 control=64 value=105 time=62\n",
      "note_on channel=0 note=78 velocity=0 time=13\n",
      "control_change channel=0 control=64 value=96 time=114\n",
      "control_change channel=0 control=67 value=54 time=0\n",
      "control_change channel=0 control=64 value=93 time=2\n",
      "control_change channel=0 control=67 value=53 time=0\n",
      "control_change channel=0 control=64 value=102 time=10\n",
      "control_change channel=0 control=67 value=55 time=0\n",
      "control_change channel=0 control=64 value=68 time=1\n",
      "control_change channel=0 control=64 value=105 time=0\n",
      "control_change channel=0 control=67 value=59 time=0\n",
      "control_change channel=0 control=67 value=63 time=0\n",
      "note_on channel=0 note=77 velocity=47 time=1\n",
      "note_on channel=0 note=69 velocity=40 time=2\n",
      "note_on channel=0 note=63 velocity=36 time=9\n",
      "note_on channel=0 note=53 velocity=40 time=1\n",
      "note_on channel=0 note=60 velocity=36 time=0\n",
      "control_change channel=0 control=64 value=20 time=13\n",
      "control_change channel=0 control=64 value=107 time=180\n",
      "note_on channel=0 note=69 velocity=0 time=13\n",
      "control_change channel=0 control=64 value=115 time=25\n",
      "note_on channel=0 note=63 velocity=0 time=13\n",
      "control_change channel=0 control=64 value=111 time=11\n",
      "note_on channel=0 note=60 velocity=0 time=13\n",
      "control_change channel=0 control=64 value=105 time=58\n",
      "note_on channel=0 note=53 velocity=0 time=13\n",
      "control_change channel=0 control=64 value=108 time=23\n",
      "note_on channel=0 note=77 velocity=0 time=13\n",
      "control_change channel=0 control=64 value=68 time=59\n",
      "control_change channel=0 control=67 value=61 time=0\n",
      "control_change channel=0 control=64 value=20 time=13\n",
      "note_on channel=0 note=56 velocity=42 time=0\n",
      "control_change channel=0 control=64 value=105 time=115\n",
      "control_change channel=0 control=67 value=71 time=0\n",
      "note_on channel=0 note=58 velocity=37 time=13\n",
      "control_change channel=0 control=64 value=105 time=41\n",
      "note_on channel=0 note=58 velocity=0 time=14\n",
      "control_change channel=0 control=64 value=117 time=15\n",
      "control_change channel=0 control=67 value=63 time=0\n",
      "control_change channel=0 control=64 value=112 time=12\n",
      "control_change channel=0 control=67 value=60 time=0\n",
      "note_on channel=0 note=77 velocity=49 time=2\n",
      "control_change channel=0 control=64 value=108 time=4\n",
      "control_change channel=0 control=67 value=67 time=0\n",
      "note_on channel=0 note=73 velocity=39 time=7\n",
      "note_on channel=0 note=61 velocity=36 time=6\n",
      "control_change channel=0 control=64 value=115 time=12\n",
      "note_on channel=0 note=61 velocity=0 time=13\n",
      "control_change channel=0 control=64 value=111 time=30\n",
      "control_change channel=0 control=67 value=70 time=0\n",
      "note_on channel=0 note=65 velocity=43 time=13\n",
      "control_change channel=0 control=64 value=108 time=7\n",
      "control_change channel=0 control=64 value=106 time=9\n",
      "note_on channel=0 note=73 velocity=0 time=4\n",
      "control_change channel=0 control=64 value=113 time=8\n",
      "note_on channel=0 note=77 velocity=0 time=1\n",
      "control_change channel=0 control=67 value=64 time=4\n",
      "note_on channel=0 note=65 velocity=0 time=9\n",
      "note_on channel=0 note=68 velocity=41 time=4\n",
      "control_change channel=0 control=64 value=115 time=2\n",
      "control_change channel=0 control=64 value=118 time=0\n",
      "control_change channel=0 control=67 value=61 time=0\n",
      "control_change channel=0 control=67 value=64 time=0\n",
      "note_on channel=0 note=75 velocity=42 time=14\n",
      "note_on channel=0 note=78 velocity=57 time=0\n",
      "control_change channel=0 control=64 value=112 time=32\n",
      "control_change channel=0 control=67 value=64 time=0\n",
      "note_on channel=0 note=70 velocity=43 time=13\n",
      "control_change channel=0 control=64 value=103 time=10\n",
      "note_on channel=0 note=68 velocity=0 time=13\n",
      "control_change channel=0 control=64 value=110 time=29\n",
      "control_change channel=0 control=64 value=109 time=11\n",
      "note_on channel=0 note=75 velocity=0 time=3\n",
      "note_on channel=0 note=78 velocity=0 time=11\n",
      "control_change channel=0 control=67 value=57 time=2\n",
      "control_change channel=0 control=64 value=68 time=1\n",
      "control_change channel=0 control=67 value=63 time=5\n",
      "note_on channel=0 note=73 velocity=49 time=7\n",
      "note_on channel=0 note=70 velocity=0 time=1\n",
      "note_on channel=0 note=77 velocity=55 time=6\n",
      "control_change channel=0 control=64 value=20 time=7\n",
      "control_change channel=0 control=67 value=52 time=119\n",
      "control_change channel=0 control=64 value=96 time=4\n",
      "note_on channel=0 note=82 velocity=49 time=9\n",
      "note_on channel=0 note=77 velocity=0 time=5\n",
      "control_change channel=0 control=64 value=97 time=77\n",
      "note_on channel=0 note=73 velocity=0 time=13\n",
      "control_change channel=0 control=64 value=95 time=38\n",
      "control_change channel=0 control=67 value=50 time=0\n",
      "note_on channel=0 note=77 velocity=48 time=13\n",
      "control_change channel=0 control=64 value=87 time=1\n",
      "note_on channel=0 note=82 velocity=0 time=13\n",
      "control_change channel=0 control=64 value=100 time=104\n",
      "note_on channel=0 note=56 velocity=0 time=13\n",
      "control_change channel=0 control=64 value=82 time=1\n",
      "control_change channel=0 control=67 value=53 time=0\n",
      "control_change channel=0 control=67 value=54 time=8\n",
      "control_change channel=0 control=67 value=55 time=1\n",
      "control_change channel=0 control=67 value=63 time=3\n",
      "control_change channel=0 control=64 value=68 time=1\n",
      "control_change channel=0 control=67 value=59 time=0\n",
      "control_change channel=0 control=67 value=67 time=0\n",
      "note_on channel=0 note=75 velocity=46 time=0\n",
      "note_on channel=0 note=73 velocity=45 time=8\n",
      "note_on channel=0 note=63 velocity=35 time=1\n",
      "note_on channel=0 note=58 velocity=33 time=3\n",
      "note_on channel=0 note=61 velocity=33 time=1\n",
      "note_on channel=0 note=77 velocity=0 time=0\n",
      "note_on channel=0 note=54 velocity=35 time=1\n",
      "control_change channel=0 control=64 value=20 time=13\n",
      "control_change channel=0 control=64 value=20 time=0\n",
      "control_change channel=0 control=64 value=20 time=0\n",
      "control_change channel=0 control=64 value=20 time=0\n",
      "control_change channel=0 control=64 value=20 time=0\n",
      "control_change channel=0 control=64 value=85 time=108\n",
      "control_change channel=0 control=67 value=68 time=12\n",
      "note_on channel=0 note=75 velocity=0 time=1\n",
      "note_on channel=0 note=77 velocity=48 time=12\n",
      "control_change channel=0 control=64 value=109 time=66\n",
      "control_change channel=0 control=64 value=114 time=5\n",
      "control_change channel=0 control=64 value=114 time=5\n",
      "note_on channel=0 note=63 velocity=0 time=3\n",
      "control_change channel=0 control=64 value=97 time=2\n",
      "control_change channel=0 control=64 value=111 time=0\n",
      "note_on channel=0 note=61 velocity=0 time=3\n",
      "note_on channel=0 note=58 velocity=0 time=5\n",
      "note_on channel=0 note=54 velocity=0 time=5\n",
      "note_on channel=0 note=73 velocity=0 time=0\n",
      "control_change channel=0 control=64 value=98 time=47\n",
      "control_change channel=0 control=67 value=69 time=5\n",
      "note_on channel=0 note=77 velocity=0 time=8\n",
      "note_on channel=0 note=75 velocity=42 time=5\n",
      "control_change channel=0 control=64 value=68 time=139\n",
      "control_change channel=0 control=67 value=73 time=0\n",
      "control_change channel=0 control=64 value=20 time=13\n",
      "note_on channel=0 note=53 velocity=38 time=0\n",
      "control_change channel=0 control=64 value=105 time=66\n",
      "note_on channel=0 note=75 velocity=0 time=13\n",
      "control_change channel=0 control=64 value=99 time=11\n",
      "control_change channel=0 control=67 value=78 time=0\n",
      "note_on channel=0 note=56 velocity=35 time=13\n",
      "control_change channel=0 control=64 value=93 time=63\n",
      "control_change channel=0 control=67 value=76 time=0\n",
      "control_change channel=0 control=67 value=77 time=2\n",
      "note_on channel=0 note=56 velocity=0 time=11\n",
      "note_on channel=0 note=73 velocity=48 time=1\n",
      "note_on channel=0 note=70 velocity=38 time=2\n",
      "control_change channel=0 control=64 value=80 time=2\n",
      "control_change channel=0 control=67 value=82 time=0\n",
      "note_on channel=0 note=58 velocity=36 time=13\n",
      "control_change channel=0 control=64 value=91 time=44\n",
      "control_change channel=0 control=67 value=84 time=8\n",
      "note_on channel=0 note=58 velocity=0 time=5\n",
      "note_on channel=0 note=61 velocity=43 time=8\n",
      "control_change channel=0 control=64 value=92 time=11\n",
      "control_change channel=0 control=64 value=90 time=13\n",
      "note_on channel=0 note=70 velocity=0 time=0\n",
      "control_change channel=0 control=64 value=75 time=1\n",
      "control_change channel=0 control=67 value=86 time=0\n",
      "control_change channel=0 control=64 value=73 time=8\n",
      "control_change channel=0 control=67 value=85 time=0\n",
      "note_on channel=0 note=65 velocity=41 time=5\n",
      "note_on channel=0 note=73 velocity=0 time=0\n",
      "control_change channel=0 control=64 value=73 time=5\n",
      "control_change channel=0 control=67 value=85 time=0\n",
      "note_on channel=0 note=72 velocity=41 time=3\n",
      "note_on channel=0 note=75 velocity=51 time=10\n",
      "control_change channel=0 control=64 value=68 time=12\n",
      "control_change channel=0 control=64 value=20 time=5\n",
      "control_change channel=0 control=64 value=20 time=8\n",
      "note_on channel=0 note=61 velocity=0 time=0\n",
      "control_change channel=0 control=64 value=79 time=7\n",
      "control_change channel=0 control=67 value=84 time=0\n",
      "note_on channel=0 note=68 velocity=43 time=13\n",
      "control_change channel=0 control=64 value=86 time=33\n",
      "control_change channel=0 control=64 value=96 time=8\n",
      "note_on channel=0 note=65 velocity=0 time=5\n",
      "note_on channel=0 note=72 velocity=0 time=8\n",
      "control_change channel=0 control=64 value=89 time=15\n",
      "note_on channel=0 note=75 velocity=0 time=13\n",
      "control_change channel=0 control=64 value=86 time=19\n",
      "control_change channel=0 control=67 value=84 time=2\n",
      "note_on channel=0 note=68 velocity=0 time=11\n",
      "note_on channel=0 note=73 velocity=48 time=2\n",
      "control_change channel=0 control=64 value=93 time=2\n",
      "control_change channel=0 control=67 value=79 time=0\n",
      "note_on channel=0 note=70 velocity=38 time=13\n",
      "control_change channel=0 control=64 value=105 time=263\n",
      "note_on channel=0 note=53 velocity=0 time=13\n",
      "control_change channel=0 control=64 value=110 time=41\n",
      "note_on channel=0 note=70 velocity=0 time=14\n",
      "control_change channel=0 control=64 value=105 time=54\n",
      "note_on channel=0 note=73 velocity=0 time=14\n",
      "control_change channel=0 control=64 value=105 time=126\n",
      "control_change channel=0 control=67 value=71 time=0\n",
      "control_change channel=0 control=64 value=102 time=4\n",
      "control_change channel=0 control=67 value=74 time=0\n",
      "control_change channel=0 control=64 value=103 time=5\n",
      "control_change channel=0 control=67 value=74 time=0\n",
      "note_on channel=0 note=68 velocity=38 time=4\n",
      "control_change channel=0 control=64 value=100 time=4\n",
      "control_change channel=0 control=67 value=78 time=0\n",
      "note_on channel=0 note=72 velocity=39 time=0\n",
      "note_on channel=0 note=60 velocity=36 time=6\n",
      "control_change channel=0 control=64 value=68 time=4\n",
      "control_change channel=0 control=67 value=89 time=0\n",
      "note_on channel=0 note=54 velocity=36 time=4\n",
      "note_on channel=0 note=51 velocity=40 time=9\n",
      "control_change channel=0 control=64 value=20 time=13\n",
      "control_change channel=0 control=64 value=20 time=0\n",
      "control_change channel=0 control=64 value=95 time=144\n",
      "note_on channel=0 note=51 velocity=0 time=13\n",
      "control_change channel=0 control=64 value=68 time=86\n",
      "control_change channel=0 control=67 value=94 time=0\n",
      "control_change channel=0 control=64 value=20 time=13\n",
      "note_on channel=0 note=44 velocity=40 time=0\n",
      "control_change channel=0 control=64 value=111 time=3\n",
      "control_change channel=0 control=64 value=108 time=7\n",
      "note_on channel=0 note=60 velocity=0 time=7\n",
      "note_on channel=0 note=54 velocity=0 time=6\n",
      "control_change channel=0 control=64 value=112 time=12\n",
      "note_on channel=0 note=68 velocity=0 time=14\n",
      "control_change channel=0 control=64 value=113 time=14\n",
      "note_on channel=0 note=72 velocity=0 time=13\n",
      "control_change channel=0 control=64 value=91 time=89\n",
      "note_on channel=0 note=44 velocity=0 time=13\n",
      "control_change channel=0 control=64 value=91 time=98\n",
      "control_change channel=0 control=67 value=92 time=0\n",
      "control_change channel=0 control=64 value=68 time=5\n",
      "control_change channel=0 control=67 value=87 time=0\n",
      "note_on channel=0 note=44 velocity=38 time=8\n",
      "control_change channel=0 control=64 value=20 time=5\n",
      "control_change channel=0 control=64 value=20 time=0\n",
      "note_on channel=0 note=37 velocity=40 time=0\n",
      "control_change channel=0 control=64 value=83 time=149\n",
      "control_change channel=0 control=67 value=75 time=0\n",
      "note_on channel=0 note=53 velocity=44 time=13\n",
      "control_change channel=0 control=64 value=68 time=4\n",
      "control_change channel=0 control=67 value=79 time=0\n",
      "note_on channel=0 note=56 velocity=43 time=13\n",
      "control_change channel=0 control=64 value=20 time=13\n",
      "control_change channel=0 control=64 value=89 time=118\n",
      "control_change channel=0 control=64 value=89 time=1\n",
      "note_on channel=0 note=53 velocity=0 time=12\n",
      "note_on channel=0 note=56 velocity=0 time=2\n",
      "control_change channel=0 control=64 value=115 time=22\n",
      "control_change channel=0 control=67 value=61 time=0\n",
      "control_change channel=0 control=64 value=68 time=1\n",
      "control_change channel=0 control=67 value=69 time=0\n",
      "control_change channel=0 control=64 value=20 time=13\n",
      "control_change channel=0 control=64 value=20 time=0\n",
      "note_on channel=0 note=65 velocity=44 time=0\n",
      "note_on channel=0 note=68 velocity=44 time=0\n",
      "control_change channel=0 control=64 value=91 time=112\n",
      "note_on channel=0 note=37 velocity=0 time=13\n",
      "control_change channel=0 control=64 value=100 time=12\n",
      "note_on channel=0 note=44 velocity=0 time=13\n",
      "control_change channel=0 control=64 value=96 time=18\n",
      "control_change channel=0 control=67 value=47 time=0\n",
      "control_change channel=0 control=64 value=99 time=6\n",
      "control_change channel=0 control=67 value=47 time=0\n",
      "control_change channel=0 control=64 value=68 time=1\n",
      "control_change channel=0 control=67 value=61 time=0\n",
      "note_on channel=0 note=80 velocity=56 time=6\n",
      "note_on channel=0 note=77 velocity=46 time=6\n",
      "control_change channel=0 control=64 value=20 time=1\n",
      "control_change channel=0 control=64 value=20 time=0\n",
      "control_change channel=0 control=64 value=20 time=0\n",
      "note_on channel=0 note=59 velocity=41 time=0\n",
      "control_change channel=0 control=64 value=106 time=388\n",
      "note_on channel=0 note=77 velocity=0 time=13\n",
      "control_change channel=0 control=64 value=98 time=50\n",
      "note_on channel=0 note=80 velocity=0 time=13\n",
      "control_change channel=0 control=64 value=107 time=90\n",
      "control_change channel=0 control=67 value=61 time=0\n",
      "control_change channel=0 control=64 value=104 time=1\n",
      "control_change channel=0 control=67 value=56 time=0\n",
      "note_on channel=0 note=73 velocity=40 time=12\n",
      "note_on channel=0 note=77 velocity=50 time=1\n",
      "control_change channel=0 control=64 value=106 time=400\n",
      "note_on channel=0 note=59 velocity=0 time=13\n",
      "control_change channel=0 control=64 value=105 time=108\n",
      "control_change channel=0 control=67 value=67 time=0\n",
      "control_change channel=0 control=64 value=103 time=6\n",
      "control_change channel=0 control=67 value=68 time=0\n",
      "note_on channel=0 note=49 velocity=36 time=8\n",
      "control_change channel=0 control=64 value=111 time=4\n",
      "note_on channel=0 note=42 velocity=38 time=1\n",
      "note_on channel=0 note=73 velocity=0 time=12\n",
      "control_change channel=0 control=64 value=105 time=3\n",
      "note_on channel=0 note=77 velocity=0 time=14\n",
      "control_change channel=0 control=64 value=101 time=109\n",
      "control_change channel=0 control=67 value=71 time=0\n",
      "note_on channel=0 note=75 velocity=53 time=13\n",
      "control_change channel=0 control=64 value=119 time=14\n",
      "control_change channel=0 control=67 value=50 time=0\n",
      "control_change channel=0 control=64 value=109 time=2\n",
      "control_change channel=0 control=64 value=120 time=0\n",
      "control_change channel=0 control=67 value=52 time=0\n",
      "control_change channel=0 control=67 value=52 time=0\n",
      "control_change channel=0 control=64 value=118 time=2\n",
      "control_change channel=0 control=67 value=52 time=0\n",
      "control_change channel=0 control=64 value=116 time=2\n",
      "control_change channel=0 control=67 value=48 time=0\n",
      "control_change channel=0 control=64 value=68 time=1\n",
      "control_change channel=0 control=67 value=59 time=0\n",
      "note_on channel=0 note=54 velocity=40 time=7\n",
      "note_on channel=0 note=58 velocity=40 time=1\n",
      "note_on channel=0 note=66 velocity=42 time=0\n",
      "note_on channel=0 note=61 velocity=40 time=2\n",
      "note_on channel=0 note=49 velocity=40 time=2\n",
      "control_change channel=0 control=64 value=20 time=1\n",
      "control_change channel=0 control=64 value=20 time=0\n",
      "control_change channel=0 control=64 value=20 time=0\n",
      "control_change channel=0 control=64 value=20 time=0\n",
      "control_change channel=0 control=64 value=20 time=0\n",
      "control_change channel=0 control=64 value=20 time=0\n",
      "note_on channel=0 note=70 velocity=41 time=0\n",
      "control_change channel=0 control=64 value=98 time=134\n",
      "control_change channel=0 control=67 value=51 time=0\n",
      "note_on channel=0 note=77 velocity=57 time=13\n",
      "control_change channel=0 control=64 value=88 time=34\n",
      "note_on channel=0 note=75 velocity=0 time=13\n",
      "control_change channel=0 control=64 value=111 time=117\n",
      "note_on channel=0 note=49 velocity=0 time=14\n",
      "control_change channel=0 control=64 value=108 time=7\n",
      "control_change channel=0 control=64 value=98 time=12\n",
      "control_change channel=0 control=67 value=52 time=0\n",
      "note_on channel=0 note=42 velocity=0 time=2\n",
      "note_on channel=0 note=75 velocity=41 time=12\n",
      "control_change channel=0 control=64 value=103 time=20\n",
      "control_change channel=0 control=64 value=68 time=12\n",
      "note_on channel=0 note=65 velocity=0 time=1\n",
      "control_change channel=0 control=64 value=20 time=12\n",
      "note_on channel=0 note=77 velocity=0 time=0\n",
      "control_change channel=0 control=64 value=68 time=78\n",
      "control_change channel=0 control=64 value=20 time=13\n",
      "control_change channel=0 control=64 value=20 time=0\n",
      "note_on channel=0 note=68 velocity=0 time=0\n",
      "control_change channel=0 control=64 value=105 time=726\n",
      "note_on channel=0 note=70 velocity=0 time=14\n",
      "control_change channel=0 control=64 value=105 time=12\n",
      "note_on channel=0 note=66 velocity=0 time=13\n",
      "control_change channel=0 control=64 value=97 time=10\n",
      "control_change channel=0 control=67 value=53 time=0\n",
      "note_on channel=0 note=44 velocity=39 time=14\n",
      "control_change channel=0 control=64 value=108 time=120\n",
      "control_change channel=0 control=64 value=110 time=3\n",
      "note_on channel=0 note=49 velocity=0 time=10\n",
      "note_on channel=0 note=75 velocity=0 time=3\n",
      "control_change channel=0 control=64 value=98 time=21\n",
      "control_change channel=0 control=67 value=59 time=0\n",
      "note_on channel=0 note=73 velocity=52 time=14\n",
      "control_change channel=0 control=64 value=89 time=2\n",
      "control_change channel=0 control=67 value=54 time=0\n",
      "control_change channel=0 control=64 value=86 time=13\n",
      "control_change channel=0 control=67 value=53 time=0\n",
      "note_on channel=0 note=61 velocity=45 time=0\n",
      "control_change channel=0 control=64 value=90 time=4\n",
      "control_change channel=0 control=67 value=52 time=0\n",
      "control_change channel=0 control=64 value=68 time=2\n",
      "control_change channel=0 control=67 value=53 time=0\n",
      "note_on channel=0 note=53 velocity=38 time=7\n",
      "note_on channel=0 note=68 velocity=41 time=4\n",
      "note_on channel=0 note=56 velocity=36 time=2\n",
      "control_change channel=0 control=64 value=117 time=10\n",
      "control_change channel=0 control=64 value=20 time=3\n",
      "control_change channel=0 control=64 value=20 time=0\n",
      "control_change channel=0 control=64 value=20 time=0\n",
      "note_on channel=0 note=61 velocity=0 time=10\n",
      "control_change channel=0 control=64 value=115 time=14\n",
      "note_on channel=0 note=58 velocity=0 time=14\n",
      "control_change channel=0 control=64 value=68 time=5\n",
      "control_change channel=0 control=64 value=20 time=13\n",
      "note_on channel=0 note=54 velocity=0 time=0\n",
      "control_change channel=0 control=64 value=86 time=46\n",
      "control_change channel=0 control=67 value=50 time=0\n",
      "control_change channel=0 control=64 value=81 time=2\n",
      "control_change channel=0 control=67 value=48 time=0\n",
      "note_on channel=0 note=75 velocity=64 time=11\n",
      "note_on channel=0 note=63 velocity=52 time=2\n",
      "control_change channel=0 control=64 value=83 time=1\n",
      "control_change channel=0 control=64 value=68 time=12\n",
      "note_on channel=0 note=61 velocity=0 time=1\n",
      "control_change channel=0 control=64 value=20 time=12\n",
      "note_on channel=0 note=73 velocity=0 time=0\n",
      "control_change channel=0 control=64 value=91 time=35\n",
      "control_change channel=0 control=64 value=94 time=6\n",
      "control_change channel=0 control=64 value=89 time=1\n",
      "note_on channel=0 note=56 velocity=0 time=6\n",
      "note_on channel=0 note=68 velocity=0 time=6\n",
      "note_on channel=0 note=53 velocity=0 time=1\n",
      "control_change channel=0 control=64 value=76 time=59\n",
      "control_change channel=0 control=64 value=98 time=10\n",
      "control_change channel=0 control=67 value=41 time=0\n",
      "control_change channel=0 control=64 value=94 time=2\n",
      "control_change channel=0 control=67 value=40 time=0\n",
      "note_on channel=0 note=63 velocity=0 time=1\n",
      "control_change channel=0 control=64 value=99 time=3\n",
      "control_change channel=0 control=67 value=47 time=0\n",
      "control_change channel=0 control=64 value=89 time=2\n",
      "control_change channel=0 control=64 value=93 time=0\n",
      "control_change channel=0 control=64 value=98 time=0\n",
      "control_change channel=0 control=67 value=42 time=0\n",
      "control_change channel=0 control=67 value=48 time=0\n",
      "control_change channel=0 control=67 value=49 time=0\n",
      "note_on channel=0 note=68 velocity=43 time=6\n",
      "note_on channel=0 note=77 velocity=44 time=1\n",
      "note_on channel=0 note=65 velocity=38 time=4\n",
      "note_on channel=0 note=59 velocity=40 time=2\n",
      "note_on channel=0 note=80 velocity=56 time=0\n",
      "control_change channel=0 control=64 value=68 time=1\n",
      "note_on channel=0 note=61 velocity=38 time=0\n",
      "note_on channel=0 note=75 velocity=0 time=13\n",
      "control_change channel=0 control=64 value=20 time=13\n",
      "control_change channel=0 control=64 value=20 time=0\n",
      "control_change channel=0 control=64 value=20 time=0\n",
      "control_change channel=0 control=64 value=101 time=144\n",
      "note_on channel=0 note=44 velocity=0 time=14\n",
      "control_change channel=0 control=64 value=99 time=71\n",
      "note_on channel=0 note=65 velocity=0 time=13\n",
      "control_change channel=0 control=64 value=100 time=14\n",
      "control_change channel=0 control=64 value=95 time=12\n",
      "note_on channel=0 note=68 velocity=0 time=2\n",
      "note_on channel=0 note=61 velocity=0 time=11\n",
      "control_change channel=0 control=64 value=88 time=9\n",
      "control_change channel=0 control=64 value=99 time=12\n",
      "note_on channel=0 note=59 velocity=0 time=1\n",
      "note_on channel=0 note=77 velocity=0 time=12\n",
      "control_change channel=0 control=64 value=94 time=96\n",
      "control_change channel=0 control=67 value=37 time=7\n",
      "note_on channel=0 note=80 velocity=0 time=6\n",
      "control_change channel=0 control=64 value=95 time=2\n",
      "control_change channel=0 control=67 value=39 time=0\n",
      "control_change channel=0 control=64 value=97 time=4\n",
      "control_change channel=0 control=67 value=44 time=0\n",
      "note_on channel=0 note=77 velocity=55 time=1\n",
      "control_change channel=0 control=64 value=97 time=3\n",
      "control_change channel=0 control=67 value=48 time=0\n",
      "note_on channel=0 note=73 velocity=42 time=5\n",
      "note_on channel=0 note=65 velocity=40 time=5\n",
      "note_on channel=0 note=61 velocity=39 time=3\n",
      "control_change channel=0 control=64 value=102 time=306\n",
      "control_change channel=0 control=64 value=99 time=8\n",
      "note_on channel=0 note=61 velocity=0 time=5\n",
      "note_on channel=0 note=65 velocity=0 time=9\n",
      "control_change channel=0 control=64 value=96 time=23\n",
      "note_on channel=0 note=73 velocity=0 time=13\n",
      "control_change channel=0 control=64 value=68 time=100\n",
      "control_change channel=0 control=67 value=51 time=0\n",
      "note_on channel=0 note=46 velocity=38 time=13\n",
      "control_change channel=0 control=64 value=20 time=13\n",
      "control_change channel=0 control=64 value=96 time=136\n",
      "control_change channel=0 control=67 value=51 time=0\n",
      "control_change channel=0 control=64 value=104 time=12\n",
      "control_change channel=0 control=64 value=104 time=0\n",
      "control_change channel=0 control=67 value=45 time=0\n",
      "control_change channel=0 control=67 value=48 time=0\n",
      "note_on channel=0 note=75 velocity=53 time=1\n",
      "control_change channel=0 control=67 value=46 time=2\n",
      "control_change channel=0 control=67 value=43 time=5\n",
      "control_change channel=0 control=64 value=68 time=5\n",
      "control_change channel=0 control=67 value=44 time=0\n",
      "note_on channel=0 note=58 velocity=39 time=0\n",
      "note_on channel=0 note=70 velocity=41 time=0\n",
      "note_on channel=0 note=65 velocity=38 time=3\n",
      "note_on channel=0 note=63 velocity=44 time=5\n",
      "note_on channel=0 note=53 velocity=41 time=5\n",
      "control_change channel=0 control=64 value=20 time=1\n",
      "control_change channel=0 control=64 value=20 time=0\n",
      "control_change channel=0 control=64 value=20 time=0\n",
      "control_change channel=0 control=64 value=20 time=0\n",
      "control_change channel=0 control=64 value=20 time=0\n",
      "note_on channel=0 note=77 velocity=0 time=0\n",
      "control_change channel=0 control=64 value=85 time=139\n",
      "control_change channel=0 control=67 value=50 time=0\n",
      "note_on channel=0 note=77 velocity=57 time=13\n",
      "control_change channel=0 control=64 value=80 time=13\n",
      "note_on channel=0 note=75 velocity=0 time=14\n",
      "control_change channel=0 control=64 value=101 time=121\n",
      "note_on channel=0 note=46 velocity=0 time=13\n",
      "control_change channel=0 control=64 value=78 time=31\n",
      "control_change channel=0 control=67 value=58 time=0\n",
      "note_on channel=0 note=75 velocity=44 time=13\n",
      "control_change channel=0 control=64 value=68 time=3\n",
      "control_change channel=0 control=64 value=20 time=13\n",
      "note_on channel=0 note=77 velocity=0 time=0\n",
      "control_change channel=0 control=64 value=94 time=383\n",
      "note_on channel=0 note=75 velocity=0 time=14\n",
      "control_change channel=0 control=64 value=96 time=69\n",
      "note_on channel=0 note=63 velocity=0 time=13\n",
      "control_change channel=0 control=64 value=83 time=13\n",
      "control_change channel=0 control=67 value=68 time=0\n",
      "control_change channel=0 control=64 value=81 time=5\n",
      "control_change channel=0 control=67 value=74 time=0\n",
      "note_on channel=0 note=73 velocity=37 time=8\n",
      "note_on channel=0 note=61 velocity=36 time=6\n",
      "control_change channel=0 control=64 value=100 time=389\n",
      "note_on channel=0 note=73 velocity=0 time=13\n",
      "control_change channel=0 control=64 value=96 time=4\n",
      "note_on channel=0 note=70 velocity=0 time=14\n",
      "control_change channel=0 control=64 value=100 time=4\n",
      "note_on channel=0 note=58 velocity=0 time=13\n",
      "control_change channel=0 control=64 value=101 time=9\n",
      "control_change channel=0 control=64 value=96 time=3\n",
      "note_on channel=0 note=65 velocity=0 time=10\n",
      "note_on channel=0 note=61 velocity=0 time=4\n",
      "control_change channel=0 control=64 value=68 time=10\n",
      "control_change channel=0 control=67 value=72 time=0\n",
      "control_change channel=0 control=64 value=20 time=13\n",
      "note_on channel=0 note=41 velocity=36 time=0\n",
      "note_on channel=0 note=53 velocity=0 time=0\n",
      "control_change channel=0 control=64 value=78 time=159\n",
      "control_change channel=0 control=67 value=78 time=0\n",
      "note_on channel=0 note=61 velocity=50 time=13\n",
      "control_change channel=0 control=64 value=68 time=20\n",
      "control_change channel=0 control=67 value=73 time=0\n",
      "note_on channel=0 note=56 velocity=40 time=13\n",
      "control_change channel=0 control=64 value=20 time=13\n",
      "control_change channel=0 control=64 value=73 time=129\n",
      "control_change channel=0 control=67 value=73 time=0\n",
      "note_on channel=0 note=63 velocity=48 time=13\n",
      "control_change channel=0 control=64 value=68 time=38\n",
      "note_on channel=0 note=61 velocity=0 time=13\n",
      "control_change channel=0 control=64 value=20 time=14\n",
      "control_change channel=0 control=64 value=87 time=66\n",
      "note_on channel=0 note=56 velocity=0 time=13\n",
      "control_change channel=0 control=67 value=78 time=29\n",
      "control_change channel=0 control=67 value=76 time=2\n",
      "control_change channel=0 control=67 value=75 time=4\n",
      "control_change channel=0 control=64 value=76 time=2\n",
      "note_on channel=0 note=61 velocity=31 time=5\n",
      "note_on channel=0 note=65 velocity=34 time=3\n",
      "note_on channel=0 note=70 velocity=43 time=3\n",
      "note_on channel=0 note=63 velocity=0 time=2\n",
      "control_change channel=0 control=64 value=105 time=313\n",
      "note_on channel=0 note=61 velocity=0 time=14\n",
      "control_change channel=0 control=64 value=102 time=46\n",
      "note_on channel=0 note=65 velocity=0 time=13\n",
      "control_change channel=0 control=67 value=82 time=136\n",
      "control_change channel=0 control=64 value=95 time=5\n",
      "control_change channel=0 control=67 value=83 time=2\n",
      "note_on channel=0 note=65 velocity=31 time=6\n",
      "note_on channel=0 note=70 velocity=0 time=5\n",
      "note_on channel=0 note=61 velocity=27 time=2\n",
      "control_change channel=0 control=64 value=105 time=5\n",
      "control_change channel=0 control=67 value=81 time=0\n",
      "note_on channel=0 note=56 velocity=28 time=13\n",
      "control_change channel=0 control=64 value=109 time=287\n",
      "control_change channel=0 control=64 value=110 time=11\n",
      "note_on channel=0 note=65 velocity=0 time=2\n",
      "note_on channel=0 note=61 velocity=0 time=11\n",
      "control_change channel=0 control=64 value=108 time=56\n",
      "note_on channel=0 note=56 velocity=0 time=13\n",
      "control_change channel=0 control=64 value=101 time=134\n",
      "control_change channel=0 control=67 value=71 time=0\n",
      "note_on channel=0 note=39 velocity=39 time=13\n",
      "control_change channel=0 control=64 value=68 time=157\n",
      "control_change channel=0 control=67 value=67 time=7\n",
      "control_change channel=0 control=64 value=20 time=6\n",
      "note_on channel=0 note=41 velocity=0 time=0\n",
      "note_on channel=0 note=66 velocity=44 time=7\n",
      "control_change channel=0 control=64 value=84 time=2\n",
      "control_change channel=0 control=67 value=63 time=0\n",
      "control_change channel=0 control=64 value=68 time=7\n",
      "control_change channel=0 control=67 value=64 time=0\n",
      "note_on channel=0 note=58 velocity=37 time=6\n",
      "note_on channel=0 note=61 velocity=40 time=8\n",
      "control_change channel=0 control=64 value=20 time=13\n",
      "control_change channel=0 control=64 value=20 time=0\n",
      "control_change channel=0 control=64 value=20 time=0\n",
      "control_change channel=0 control=64 value=85 time=119\n",
      "control_change channel=0 control=67 value=60 time=0\n",
      "note_on channel=0 note=68 velocity=49 time=13\n",
      "control_change channel=0 control=64 value=86 time=46\n",
      "note_on channel=0 note=66 velocity=0 time=13\n",
      "control_change channel=0 control=64 value=91 time=97\n",
      "note_on channel=0 note=61 velocity=0 time=13\n",
      "control_change channel=0 control=64 value=92 time=4\n",
      "note_on channel=0 note=58 velocity=0 time=13\n",
      "control_change channel=0 control=64 value=98 time=5\n",
      "control_change channel=0 control=67 value=64 time=0\n",
      "control_change channel=0 control=64 value=101 time=7\n",
      "control_change channel=0 control=67 value=64 time=0\n",
      "control_change channel=0 control=64 value=98 time=3\n",
      "control_change channel=0 control=67 value=62 time=0\n",
      "note_on channel=0 note=51 velocity=31 time=3\n",
      "control_change channel=0 control=64 value=93 time=4\n",
      "control_change channel=0 control=67 value=58 time=0\n",
      "note_on channel=0 note=66 velocity=30 time=3\n",
      "note_on channel=0 note=70 velocity=33 time=3\n",
      "note_on channel=0 note=73 velocity=44 time=7\n",
      "control_change channel=0 control=64 value=81 time=12\n",
      "note_on channel=0 note=68 velocity=0 time=13\n",
      "control_change channel=0 control=64 value=111 time=296\n",
      "note_on channel=0 note=66 velocity=0 time=14\n",
      "control_change channel=0 control=64 value=107 time=20\n",
      "note_on channel=0 note=70 velocity=0 time=14\n",
      "control_change channel=0 control=64 value=104 time=1\n",
      "note_on channel=0 note=51 velocity=0 time=13\n",
      "control_change channel=0 control=64 value=104 time=133\n",
      "control_change channel=0 control=64 value=96 time=3\n",
      "control_change channel=0 control=67 value=67 time=0\n",
      "control_change channel=0 control=64 value=100 time=2\n",
      "control_change channel=0 control=67 value=65 time=0\n",
      "control_change channel=0 control=64 value=101 time=3\n",
      "control_change channel=0 control=67 value=61 time=0\n",
      "note_on channel=0 note=39 velocity=0 time=5\n",
      "note_on channel=0 note=63 velocity=29 time=3\n",
      "note_on channel=0 note=66 velocity=29 time=2\n",
      "control_change channel=0 control=64 value=102 time=1\n",
      "control_change channel=0 control=67 value=68 time=0\n",
      "note_on channel=0 note=70 velocity=37 time=2\n",
      "note_on channel=0 note=61 velocity=27 time=11\n",
      "control_change channel=0 control=64 value=96 time=36\n",
      "note_on channel=0 note=73 velocity=0 time=13\n",
      "control_change channel=0 control=64 value=111 time=338\n",
      "note_on channel=0 note=66 velocity=0 time=13\n",
      "control_change channel=0 control=64 value=115 time=21\n",
      "control_change channel=0 control=64 value=106 time=5\n",
      "note_on channel=0 note=61 velocity=0 time=8\n",
      "note_on channel=0 note=63 velocity=0 time=6\n",
      "control_change channel=0 control=64 value=104 time=11\n",
      "note_on channel=0 note=70 velocity=0 time=13\n",
      "control_change channel=0 control=64 value=102 time=97\n",
      "control_change channel=0 control=67 value=61 time=0\n",
      "note_on channel=0 note=44 velocity=35 time=13\n",
      "control_change channel=0 control=64 value=88 time=246\n",
      "control_change channel=0 control=67 value=56 time=0\n",
      "note_on channel=0 note=70 velocity=51 time=13\n",
      "control_change channel=0 control=64 value=87 time=10\n",
      "control_change channel=0 control=67 value=55 time=0\n",
      "note_on channel=0 note=60 velocity=31 time=14\n",
      "control_change channel=0 control=64 value=68 time=1\n",
      "control_change channel=0 control=67 value=56 time=0\n",
      "control_change channel=0 control=64 value=20 time=14\n",
      "note_on channel=0 note=66 velocity=34 time=0\n",
      "control_change channel=0 control=64 value=20 time=13\n",
      "control_change channel=0 control=64 value=20 time=0\n",
      "control_change channel=0 control=64 value=68 time=62\n",
      "control_change channel=0 control=67 value=56 time=0\n",
      "control_change channel=0 control=64 value=20 time=13\n",
      "note_on channel=0 note=51 velocity=40 time=0\n",
      "control_change channel=0 control=64 value=98 time=68\n",
      "control_change channel=0 control=67 value=52 time=0\n",
      "note_on channel=0 note=72 velocity=58 time=13\n",
      "control_change channel=0 control=64 value=86 time=56\n",
      "note_on channel=0 note=70 velocity=0 time=13\n",
      "control_change channel=0 control=64 value=106 time=44\n",
      "note_on channel=0 note=60 velocity=0 time=13\n",
      "control_change channel=0 control=64 value=107 time=13\n",
      "note_on channel=0 note=66 velocity=0 time=13\n",
      "control_change channel=0 control=64 value=98 time=51\n",
      "note_on channel=0 note=51 velocity=0 time=13\n",
      "control_change channel=0 control=67 value=48 time=53\n",
      "control_change channel=0 control=64 value=92 time=5\n",
      "control_change channel=0 control=67 value=55 time=7\n",
      "note_on channel=0 note=77 velocity=51 time=1\n",
      "control_change channel=0 control=64 value=103 time=5\n",
      "control_change channel=0 control=67 value=51 time=0\n",
      "note_on channel=0 note=72 velocity=0 time=0\n",
      "control_change channel=0 control=64 value=102 time=1\n",
      "control_change channel=0 control=67 value=50 time=0\n",
      "note_on channel=0 note=68 velocity=30 time=7\n",
      "note_on channel=0 note=72 velocity=34 time=5\n",
      "note_on channel=0 note=80 velocity=42 time=1\n",
      "control_change channel=0 control=64 value=107 time=352\n",
      "note_on channel=0 note=44 velocity=0 time=13\n",
      "control_change channel=0 control=64 value=112 time=20\n",
      "control_change channel=0 control=64 value=114 time=3\n",
      "note_on channel=0 note=68 velocity=0 time=10\n",
      "note_on channel=0 note=72 velocity=0 time=4\n",
      "control_change channel=0 control=64 value=108 time=57\n",
      "note_on channel=0 note=77 velocity=0 time=13\n",
      "control_change channel=0 control=64 value=112 time=31\n",
      "note_on channel=0 note=80 velocity=0 time=13\n",
      "control_change channel=0 control=64 value=97 time=154\n",
      "control_change channel=0 control=67 value=59 time=0\n",
      "control_change channel=0 control=64 value=96 time=6\n",
      "control_change channel=0 control=67 value=61 time=0\n",
      "note_on channel=0 note=68 velocity=41 time=7\n",
      "control_change channel=0 control=64 value=97 time=5\n",
      "control_change channel=0 control=67 value=62 time=0\n",
      "note_on channel=0 note=66 velocity=32 time=1\n",
      "control_change channel=0 control=64 value=107 time=2\n",
      "control_change channel=0 control=67 value=61 time=0\n",
      "note_on channel=0 note=60 velocity=30 time=10\n",
      "note_on channel=0 note=56 velocity=28 time=4\n",
      "control_change channel=0 control=64 value=113 time=400\n",
      "control_change channel=0 control=64 value=115 time=0\n",
      "note_on channel=0 note=66 velocity=0 time=13\n",
      "note_on channel=0 note=60 velocity=0 time=1\n",
      "control_change channel=0 control=64 value=107 time=62\n",
      "note_on channel=0 note=68 velocity=0 time=13\n",
      "control_change channel=0 control=64 value=113 time=126\n",
      "note_on channel=0 note=56 velocity=0 time=13\n",
      "control_change channel=0 control=64 value=68 time=75\n",
      "control_change channel=0 control=67 value=50 time=0\n",
      "note_on channel=0 note=37 velocity=32 time=13\n",
      "control_change channel=0 control=64 value=20 time=13\n",
      "control_change channel=0 control=64 value=95 time=110\n",
      "control_change channel=0 control=67 value=47 time=0\n",
      "note_on channel=0 note=44 velocity=41 time=13\n",
      "control_change channel=0 control=64 value=110 time=43\n",
      "note_on channel=0 note=44 velocity=0 time=13\n",
      "control_change channel=0 control=64 value=111 time=39\n",
      "control_change channel=0 control=67 value=44 time=0\n",
      "note_on channel=0 note=49 velocity=41 time=13\n",
      "control_change channel=0 control=64 value=117 time=24\n",
      "note_on channel=0 note=49 velocity=0 time=13\n",
      "control_change channel=0 control=64 value=119 time=28\n",
      "control_change channel=0 control=67 value=42 time=0\n",
      "note_on channel=0 note=53 velocity=48 time=14\n",
      "control_change channel=0 control=64 value=108 time=38\n",
      "control_change channel=0 control=64 value=115 time=5\n",
      "note_on channel=0 note=37 velocity=0 time=8\n",
      "note_on channel=0 note=53 velocity=0 time=5\n",
      "control_change channel=0 control=64 value=122 time=11\n",
      "control_change channel=0 control=67 value=42 time=0\n",
      "note_on channel=0 note=56 velocity=50 time=14\n",
      "control_change channel=0 control=64 value=109 time=58\n",
      "note_on channel=0 note=56 velocity=0 time=14\n",
      "control_change channel=0 control=64 value=121 time=3\n",
      "control_change channel=0 control=67 value=42 time=0\n",
      "note_on channel=0 note=61 velocity=49 time=13\n",
      "control_change channel=0 control=64 value=102 time=63\n",
      "note_on channel=0 note=61 velocity=0 time=13\n",
      "control_change channel=0 control=64 value=68 time=1\n",
      "control_change channel=0 control=67 value=37 time=0\n",
      "control_change channel=0 control=64 value=20 time=13\n",
      "note_on channel=0 note=41 velocity=47 time=0\n",
      "control_change channel=0 control=64 value=96 time=59\n",
      "control_change channel=0 control=67 value=34 time=0\n",
      "note_on channel=0 note=48 velocity=49 time=13\n",
      "control_change channel=0 control=64 value=100 time=42\n",
      "note_on channel=0 note=48 velocity=0 time=13\n",
      "control_change channel=0 control=64 value=106 time=2\n",
      "control_change channel=0 control=67 value=35 time=0\n",
      "note_on channel=0 note=53 velocity=51 time=13\n",
      "control_change channel=0 control=64 value=104 time=41\n",
      "control_change channel=0 control=67 value=35 time=9\n",
      "note_on channel=0 note=53 velocity=0 time=4\n",
      "note_on channel=0 note=56 velocity=52 time=9\n",
      "control_change channel=0 control=67 value=34 time=48\n",
      "control_change channel=0 control=64 value=103 time=1\n",
      "control_change channel=0 control=64 value=99 time=11\n",
      "note_on channel=0 note=56 velocity=0 time=2\n",
      "note_on channel=0 note=60 velocity=52 time=0\n",
      "note_on channel=0 note=41 velocity=0 time=12\n",
      "control_change channel=0 control=67 value=33 time=43\n",
      "control_change channel=0 control=64 value=98 time=4\n",
      "note_on channel=0 note=65 velocity=50 time=9\n",
      "note_on channel=0 note=60 velocity=0 time=4\n",
      "control_change channel=0 control=64 value=68 time=59\n",
      "control_change channel=0 control=67 value=29 time=4\n",
      "control_change channel=0 control=64 value=20 time=9\n",
      "note_on channel=0 note=65 velocity=0 time=0\n",
      "note_on channel=0 note=37 velocity=51 time=4\n",
      "control_change channel=0 control=64 value=92 time=47\n",
      "control_change channel=0 control=67 value=24 time=0\n",
      "note_on channel=0 note=44 velocity=49 time=14\n",
      "control_change channel=0 control=67 value=26 time=49\n",
      "control_change channel=0 control=64 value=94 time=1\n",
      "note_on channel=0 note=44 velocity=0 time=13\n",
      "note_on channel=0 note=49 velocity=53 time=0\n",
      "control_change channel=0 control=67 value=26 time=47\n",
      "control_change channel=0 control=64 value=99 time=8\n",
      "note_on channel=0 note=53 velocity=53 time=5\n",
      "note_on channel=0 note=49 velocity=0 time=8\n",
      "control_change channel=0 control=64 value=102 time=35\n",
      "control_change channel=0 control=64 value=113 time=5\n",
      "control_change channel=0 control=67 value=27 time=0\n",
      "note_on channel=0 note=37 velocity=0 time=8\n",
      "note_on channel=0 note=56 velocity=53 time=5\n",
      "control_change channel=0 control=64 value=99 time=3\n",
      "note_on channel=0 note=53 velocity=0 time=14\n",
      "control_change channel=0 control=64 value=114 time=37\n",
      "control_change channel=0 control=67 value=27 time=0\n",
      "note_on channel=0 note=61 velocity=51 time=13\n",
      "control_change channel=0 control=64 value=95 time=6\n",
      "note_on channel=0 note=56 velocity=0 time=13\n",
      "control_change channel=0 control=64 value=95 time=41\n",
      "control_change channel=0 control=67 value=22 time=0\n",
      "note_on channel=0 note=41 velocity=55 time=14\n",
      "control_change channel=0 control=64 value=68 time=2\n",
      "control_change channel=0 control=64 value=20 time=13\n",
      "note_on channel=0 note=61 velocity=0 time=0\n",
      "control_change channel=0 control=64 value=89 time=41\n",
      "control_change channel=0 control=67 value=17 time=0\n",
      "note_on channel=0 note=48 velocity=53 time=13\n",
      "control_change channel=0 control=67 value=19 time=54\n",
      "control_change channel=0 control=64 value=101 time=9\n",
      "note_on channel=0 note=53 velocity=56 time=4\n",
      "note_on channel=0 note=48 velocity=0 time=9\n",
      "control_change channel=0 control=64 value=113 time=34\n",
      "control_change channel=0 control=67 value=21 time=0\n",
      "note_on channel=0 note=56 velocity=58 time=13\n",
      "control_change channel=0 control=64 value=111 time=10\n",
      "note_on channel=0 note=53 velocity=0 time=13\n",
      "control_change channel=0 control=64 value=104 time=17\n",
      "control_change channel=0 control=64 value=119 time=8\n",
      "control_change channel=0 control=67 value=21 time=0\n",
      "note_on channel=0 note=41 velocity=0 time=5\n",
      "note_on channel=0 note=60 velocity=59 time=8\n",
      "control_change channel=0 control=64 value=112 time=29\n",
      "note_on channel=0 note=56 velocity=0 time=13\n",
      "control_change channel=0 control=64 value=123 time=20\n",
      "control_change channel=0 control=67 value=23 time=0\n",
      "note_on channel=0 note=65 velocity=56 time=13\n",
      "control_change channel=0 control=64 value=107 time=29\n",
      "note_on channel=0 note=60 velocity=0 time=13\n",
      "control_change channel=0 control=64 value=91 time=41\n",
      "control_change channel=0 control=67 value=11 time=0\n",
      "note_on channel=0 note=44 velocity=45 time=14\n",
      "control_change channel=0 control=67 value=17 time=12\n",
      "control_change channel=0 control=67 value=15 time=1\n",
      "control_change channel=0 control=64 value=68 time=1\n",
      "note_on channel=0 note=71 velocity=66 time=11\n",
      "note_on channel=0 note=68 velocity=47 time=1\n",
      "control_change channel=0 control=64 value=20 time=1\n",
      "control_change channel=0 control=64 value=20 time=0\n",
      "control_change channel=0 control=64 value=20 time=0\n",
      "note_on channel=0 note=65 velocity=0 time=0\n",
      "control_change channel=0 control=64 value=68 time=60\n",
      "control_change channel=0 control=67 value=11 time=0\n",
      "note_on channel=0 note=52 velocity=55 time=13\n",
      "control_change channel=0 control=64 value=20 time=9\n",
      "control_change channel=0 control=64 value=98 time=50\n",
      "control_change channel=0 control=67 value=16 time=4\n",
      "note_on channel=0 note=52 velocity=0 time=9\n",
      "note_on channel=0 note=56 velocity=55 time=4\n",
      "control_change channel=0 control=64 value=111 time=43\n",
      "control_change channel=0 control=67 value=18 time=0\n",
      "note_on channel=0 note=59 velocity=57 time=13\n",
      "control_change channel=0 control=64 value=110 time=5\n",
      "note_on channel=0 note=56 velocity=0 time=13\n",
      "control_change channel=0 control=64 value=119 time=32\n",
      "control_change channel=0 control=67 value=20 time=0\n",
      "note_on channel=0 note=64 velocity=58 time=13\n",
      "control_change channel=0 control=64 value=113 time=38\n",
      "note_on channel=0 note=59 velocity=0 time=13\n",
      "control_change channel=0 control=64 value=124 time=21\n",
      "control_change channel=0 control=67 value=21 time=0\n",
      "note_on channel=0 note=66 velocity=56 time=13\n",
      "control_change channel=0 control=64 value=102 time=16\n",
      "note_on channel=0 note=68 velocity=0 time=14\n",
      "control_change channel=0 control=64 value=109 time=29\n",
      "note_on channel=0 note=64 velocity=0 time=13\n",
      "control_change channel=0 control=64 value=100 time=19\n",
      "note_on channel=0 note=71 velocity=0 time=13\n",
      "control_change channel=0 control=64 value=97 time=20\n",
      "control_change channel=0 control=64 value=107 time=4\n",
      "control_change channel=0 control=67 value=14 time=0\n",
      "control_change channel=0 control=64 value=98 time=1\n",
      "control_change channel=0 control=67 value=17 time=0\n",
      "note_on channel=0 note=44 velocity=0 time=9\n",
      "note_on channel=0 note=68 velocity=46 time=3\n",
      "control_change channel=0 control=64 value=96 time=2\n",
      "control_change channel=0 control=67 value=15 time=0\n",
      "note_on channel=0 note=73 velocity=65 time=0\n",
      "note_on channel=0 note=64 velocity=51 time=13\n",
      "control_change channel=0 control=64 value=68 time=10\n",
      "control_change channel=0 control=64 value=20 time=13\n",
      "control_change channel=0 control=64 value=20 time=0\n",
      "control_change channel=0 control=64 value=20 time=0\n",
      "note_on channel=0 note=66 velocity=0 time=0\n",
      "control_change channel=0 control=64 value=102 time=312\n",
      "note_on channel=0 note=64 velocity=0 time=13\n",
      "control_change channel=0 control=64 value=97 time=52\n",
      "note_on channel=0 note=73 velocity=0 time=13\n",
      "control_change channel=0 control=64 value=93 time=78\n",
      "control_change channel=0 control=67 value=14 time=0\n",
      "note_on channel=0 note=49 velocity=43 time=13\n",
      "control_change channel=0 control=64 value=68 time=87\n",
      "control_change channel=0 control=67 value=15 time=0\n",
      "note_on channel=0 note=56 velocity=52 time=13\n",
      "control_change channel=0 control=64 value=20 time=13\n",
      "control_change channel=0 control=64 value=68 time=7\n",
      "control_change channel=0 control=64 value=20 time=13\n",
      "note_on channel=0 note=68 velocity=0 time=0\n",
      "control_change channel=0 control=64 value=101 time=29\n",
      "control_change channel=0 control=67 value=17 time=12\n",
      "note_on channel=0 note=56 velocity=0 time=2\n",
      "note_on channel=0 note=61 velocity=53 time=11\n",
      "control_change channel=0 control=64 value=110 time=51\n",
      "control_change channel=0 control=67 value=18 time=10\n",
      "note_on channel=0 note=61 velocity=0 time=3\n",
      "note_on channel=0 note=65 velocity=56 time=10\n",
      "control_change channel=0 control=67 value=19 time=64\n",
      "control_change channel=0 control=64 value=111 time=2\n",
      "note_on channel=0 note=68 velocity=57 time=11\n",
      "note_on channel=0 note=65 velocity=0 time=2\n",
      "control_change channel=0 control=64 value=95 time=5\n",
      "note_on channel=0 note=49 velocity=0 time=13\n",
      "control_change channel=0 control=67 value=20 time=53\n",
      "control_change channel=0 control=64 value=107 time=5\n",
      "note_on channel=0 note=73 velocity=56 time=8\n",
      "note_on channel=0 note=68 velocity=0 time=5\n",
      "control_change channel=0 control=64 value=103 time=74\n",
      "note_on channel=0 note=73 velocity=0 time=14\n",
      "control_change channel=0 control=64 value=68 time=3\n",
      "control_change channel=0 control=67 value=20 time=0\n",
      "control_change channel=0 control=64 value=20 time=14\n",
      "note_on channel=0 note=53 velocity=54 time=0\n",
      "control_change channel=0 control=64 value=90 time=46\n",
      "control_change channel=0 control=67 value=17 time=0\n",
      "note_on channel=0 note=60 velocity=54 time=13\n",
      "control_change channel=0 control=64 value=103 time=59\n",
      "control_change channel=0 control=67 value=18 time=1\n",
      "note_on channel=0 note=60 velocity=0 time=13\n",
      "note_on channel=0 note=65 velocity=57 time=0\n",
      "control_change channel=0 control=67 value=18 time=54\n",
      "control_change channel=0 control=64 value=107 time=3\n",
      "note_on channel=0 note=68 velocity=58 time=11\n",
      "note_on channel=0 note=65 velocity=0 time=3\n",
      "control_change channel=0 control=67 value=18 time=52\n",
      "control_change channel=0 control=64 value=106 time=13\n",
      "note_on channel=0 note=72 velocity=58 time=1\n",
      "note_on channel=0 note=68 velocity=0 time=12\n",
      "control_change channel=0 control=64 value=104 time=4\n",
      "note_on channel=0 note=53 velocity=0 time=13\n",
      "control_change channel=0 control=64 value=112 time=31\n",
      "control_change channel=0 control=67 value=19 time=0\n",
      "note_on channel=0 note=77 velocity=56 time=14\n",
      "control_change channel=0 control=64 value=101 time=3\n",
      "note_on channel=0 note=72 velocity=0 time=13\n",
      "control_change channel=0 control=64 value=96 time=64\n",
      "note_on channel=0 note=77 velocity=0 time=13\n",
      "control_change channel=0 control=64 value=68 time=9\n",
      "control_change channel=0 control=67 value=19 time=0\n",
      "control_change channel=0 control=64 value=20 time=14\n",
      "note_on channel=0 note=49 velocity=53 time=0\n",
      "control_change channel=0 control=64 value=68 time=33\n",
      "control_change channel=0 control=67 value=14 time=0\n",
      "note_on channel=0 note=56 velocity=54 time=13\n",
      "control_change channel=0 control=64 value=20 time=14\n",
      "control_change channel=0 control=67 value=16 time=53\n",
      "control_change channel=0 control=64 value=94 time=10\n",
      "note_on channel=0 note=61 velocity=56 time=3\n",
      "note_on channel=0 note=56 velocity=0 time=10\n",
      "control_change channel=0 control=67 value=17 time=50\n",
      "control_change channel=0 control=64 value=103 time=12\n",
      "note_on channel=0 note=65 velocity=56 time=1\n",
      "note_on channel=0 note=61 velocity=0 time=12\n",
      "control_change channel=0 control=64 value=116 time=49\n",
      "control_change channel=0 control=67 value=18 time=0\n",
      "note_on channel=0 note=68 velocity=56 time=13\n",
      "control_change channel=0 control=64 value=105 time=9\n",
      "note_on channel=0 note=65 velocity=0 time=13\n",
      "control_change channel=0 control=64 value=105 time=8\n",
      "note_on channel=0 note=49 velocity=0 time=14\n",
      "control_change channel=0 control=64 value=116 time=25\n",
      "control_change channel=0 control=67 value=18 time=0\n",
      "note_on channel=0 note=73 velocity=54 time=14\n",
      "control_change channel=0 control=64 value=102 time=10\n",
      "note_on channel=0 note=68 velocity=0 time=13\n",
      "control_change channel=0 control=64 value=99 time=72\n",
      "note_on channel=0 note=73 velocity=0 time=13\n",
      "control_change channel=0 control=64 value=68 time=14\n",
      "control_change channel=0 control=67 value=21 time=0\n",
      "control_change channel=0 control=64 value=20 time=13\n",
      "note_on channel=0 note=53 velocity=54 time=0\n",
      "control_change channel=0 control=64 value=84 time=46\n",
      "control_change channel=0 control=67 value=16 time=0\n",
      "note_on channel=0 note=60 velocity=51 time=14\n",
      "control_change channel=0 control=67 value=18 time=87\n",
      "control_change channel=0 control=64 value=98 time=12\n",
      "note_on channel=0 note=65 velocity=53 time=1\n",
      "note_on channel=0 note=60 velocity=0 time=12\n",
      "control_change channel=0 control=64 value=109 time=59\n",
      "control_change channel=0 control=67 value=19 time=0\n",
      "note_on channel=0 note=68 velocity=55 time=13\n",
      "control_change channel=0 control=64 value=109 time=1\n",
      "note_on channel=0 note=65 velocity=0 time=13\n",
      "control_change channel=0 control=64 value=119 time=60\n",
      "control_change channel=0 control=67 value=19 time=0\n",
      "note_on channel=0 note=72 velocity=57 time=13\n",
      "control_change channel=0 control=64 value=115 time=19\n",
      "note_on channel=0 note=68 velocity=0 time=13\n",
      "control_change channel=0 control=64 value=109 time=47\n",
      "control_change channel=0 control=64 value=126 time=4\n",
      "control_change channel=0 control=67 value=19 time=0\n",
      "note_on channel=0 note=53 velocity=0 time=9\n",
      "note_on channel=0 note=77 velocity=55 time=4\n",
      "control_change channel=0 control=64 value=113 time=25\n",
      "note_on channel=0 note=72 velocity=0 time=13\n",
      "control_change channel=0 control=67 value=12 time=89\n",
      "control_change channel=0 control=67 value=11 time=5\n",
      "control_change channel=0 control=64 value=105 time=4\n",
      "note_on channel=0 note=56 velocity=46 time=4\n",
      "note_on channel=0 note=80 velocity=51 time=5\n",
      "note_on channel=0 note=77 velocity=0 time=5\n",
      "control_change channel=0 control=64 value=68 time=15\n",
      "control_change channel=0 control=67 value=8 time=0\n",
      "control_change channel=0 control=64 value=20 time=13\n",
      "control_change channel=0 control=64 value=20 time=0\n",
      "control_change channel=0 control=64 value=20 time=0\n",
      "note_on channel=0 note=83 velocity=70 time=0\n",
      "control_change channel=0 control=64 value=68 time=66\n",
      "control_change channel=0 control=67 value=12 time=0\n",
      "note_on channel=0 note=59 velocity=51 time=14\n",
      "control_change channel=0 control=64 value=20 time=13\n",
      "control_change channel=0 control=64 value=95 time=50\n",
      "note_on channel=0 note=59 velocity=0 time=13\n",
      "control_change channel=0 control=64 value=85 time=15\n",
      "control_change channel=0 control=67 value=16 time=0\n",
      "note_on channel=0 note=64 velocity=51 time=13\n",
      "control_change channel=0 control=64 value=108 time=58\n",
      "control_change channel=0 control=67 value=19 time=4\n",
      "note_on channel=0 note=64 velocity=0 time=9\n",
      "note_on channel=0 note=68 velocity=54 time=4\n",
      "control_change channel=0 control=64 value=115 time=67\n",
      "control_change channel=0 control=67 value=20 time=0\n",
      "note_on channel=0 note=71 velocity=55 time=13\n",
      "control_change channel=0 control=64 value=111 time=11\n",
      "note_on channel=0 note=68 velocity=0 time=14\n",
      "control_change channel=0 control=67 value=16 time=98\n",
      "control_change channel=0 control=64 value=68 time=5\n",
      "note_on channel=0 note=76 velocity=52 time=8\n",
      "control_change channel=0 control=64 value=20 time=6\n",
      "note_on channel=0 note=71 velocity=0 time=0\n",
      "control_change channel=0 control=67 value=10 time=88\n",
      "control_change channel=0 control=64 value=96 time=10\n",
      "note_on channel=0 note=85 velocity=64 time=4\n",
      "note_on channel=0 note=83 velocity=0 time=9\n",
      "control_change channel=0 control=64 value=96 time=365\n",
      "note_on channel=0 note=56 velocity=0 time=13\n",
      "control_change channel=0 control=64 value=96 time=73\n",
      "note_on channel=0 note=80 velocity=0 time=14\n",
      "control_change channel=0 control=64 value=90 time=71\n",
      "note_on channel=0 note=85 velocity=0 time=13\n",
      "control_change channel=0 control=64 value=97 time=4\n",
      "note_on channel=0 note=76 velocity=0 time=14\n",
      "control_change channel=0 control=64 value=109 time=79\n",
      "control_change channel=0 control=67 value=18 time=0\n",
      "note_on channel=0 note=56 velocity=43 time=13\n",
      "control_change channel=0 control=64 value=110 time=7\n",
      "control_change channel=0 control=67 value=12 time=0\n",
      "note_on channel=0 note=80 velocity=49 time=13\n",
      "control_change channel=0 control=64 value=68 time=3\n",
      "control_change channel=0 control=67 value=8 time=0\n",
      "control_change channel=0 control=64 value=20 time=14\n",
      "control_change channel=0 control=64 value=20 time=0\n",
      "control_change channel=0 control=64 value=20 time=0\n",
      "note_on channel=0 note=83 velocity=63 time=0\n",
      "control_change channel=0 control=64 value=68 time=85\n",
      "control_change channel=0 control=67 value=22 time=0\n",
      "note_on channel=0 note=59 velocity=47 time=13\n",
      "control_change channel=0 control=64 value=20 time=13\n",
      "control_change channel=0 control=64 value=101 time=80\n",
      "control_change channel=0 control=67 value=27 time=0\n",
      "note_on channel=0 note=59 velocity=0 time=13\n",
      "note_on channel=0 note=64 velocity=46 time=0\n",
      "control_change channel=0 control=64 value=104 time=64\n",
      "control_change channel=0 control=67 value=31 time=0\n",
      "note_on channel=0 note=68 velocity=49 time=13\n",
      "control_change channel=0 control=64 value=110 time=22\n",
      "note_on channel=0 note=64 velocity=0 time=13\n",
      "control_change channel=0 control=64 value=109 time=36\n",
      "control_change channel=0 control=67 value=33 time=0\n",
      "note_on channel=0 note=71 velocity=50 time=13\n",
      "control_change channel=0 control=64 value=110 time=63\n",
      "note_on channel=0 note=68 velocity=0 time=13\n",
      "control_change channel=0 control=64 value=103 time=78\n",
      "control_change channel=0 control=67 value=30 time=0\n",
      "note_on channel=0 note=76 velocity=53 time=13\n",
      "control_change channel=0 control=64 value=68 time=20\n",
      "control_change channel=0 control=64 value=20 time=13\n",
      "note_on channel=0 note=71 velocity=0 time=0\n",
      "control_change channel=0 control=64 value=105 time=88\n",
      "control_change channel=0 control=67 value=33 time=0\n",
      "note_on channel=0 note=85 velocity=62 time=13\n",
      "control_change channel=0 control=64 value=96 time=11\n",
      "note_on channel=0 note=83 velocity=0 time=13\n",
      "control_change channel=0 control=64 value=111 time=503\n",
      "control_change channel=0 control=64 value=103 time=8\n",
      "note_on channel=0 note=76 velocity=0 time=6\n",
      "control_change channel=0 control=64 value=100 time=5\n",
      "note_on channel=0 note=85 velocity=0 time=2\n",
      "note_on channel=0 note=56 velocity=0 time=11\n",
      "control_change channel=0 control=64 value=101 time=59\n",
      "note_on channel=0 note=80 velocity=0 time=13\n",
      "control_change channel=0 control=64 value=114 time=79\n",
      "control_change channel=0 control=67 value=49 time=0\n",
      "note_on channel=0 note=44 velocity=34 time=13\n",
      "control_change channel=0 control=64 value=110 time=30\n",
      "control_change channel=0 control=67 value=47 time=0\n",
      "note_on channel=0 note=88 velocity=48 time=13\n",
      "control_change channel=0 control=64 value=107 time=480\n",
      "note_on channel=0 note=44 velocity=0 time=14\n",
      "control_change channel=0 control=64 value=104 time=71\n",
      "note_on channel=0 note=88 velocity=0 time=13\n",
      "control_change channel=0 control=64 value=127 time=265\n",
      "control_change channel=0 control=67 value=68 time=0\n",
      "note_on channel=0 note=37 velocity=31 time=13\n",
      "control_change channel=0 control=64 value=122 time=26\n",
      "control_change channel=0 control=67 value=65 time=0\n",
      "note_on channel=0 note=89 velocity=36 time=13\n",
      "control_change channel=0 control=64 value=68 time=15\n",
      "control_change channel=0 control=67 value=59 time=0\n",
      "control_change channel=0 control=64 value=20 time=13\n",
      "control_change channel=0 control=64 value=20 time=0\n",
      "control_change channel=0 control=64 value=20 time=0\n",
      "note_on channel=0 note=92 velocity=51 time=0\n",
      "control_change channel=0 control=64 value=110 time=29\n",
      "control_change channel=0 control=67 value=83 time=0\n",
      "note_on channel=0 note=44 velocity=44 time=13\n",
      "control_change channel=0 control=64 value=101 time=124\n",
      "control_change channel=0 control=67 value=89 time=0\n",
      "note_on channel=0 note=49 velocity=39 time=13\n",
      "control_change channel=0 control=64 value=89 time=50\n",
      "note_on channel=0 note=44 velocity=0 time=13\n",
      "control_change channel=0 control=64 value=99 time=28\n",
      "control_change channel=0 control=67 value=91 time=0\n",
      "note_on channel=0 note=53 velocity=39 time=13\n",
      "control_change channel=0 control=64 value=93 time=91\n",
      "control_change channel=0 control=64 value=100 time=11\n",
      "control_change channel=0 control=67 value=92 time=0\n",
      "note_on channel=0 note=49 velocity=0 time=2\n",
      "note_on channel=0 note=56 velocity=40 time=11\n",
      "control_change channel=0 control=64 value=102 time=103\n",
      "control_change channel=0 control=67 value=92 time=0\n",
      "note_on channel=0 note=61 velocity=41 time=13\n",
      "control_change channel=0 control=64 value=98 time=19\n",
      "note_on channel=0 note=53 velocity=0 time=13\n",
      "control_change channel=0 control=64 value=94 time=65\n",
      "control_change channel=0 control=67 value=92 time=0\n",
      "note_on channel=0 note=65 velocity=37 time=14\n",
      "control_change channel=0 control=64 value=103 time=48\n",
      "note_on channel=0 note=56 velocity=0 time=13\n",
      "control_change channel=0 control=64 value=107 time=123\n",
      "note_on channel=0 note=61 velocity=0 time=14\n",
      "control_change channel=0 control=64 value=100 time=47\n",
      "control_change channel=0 control=67 value=89 time=0\n",
      "note_on channel=0 note=68 velocity=38 time=14\n",
      "control_change channel=0 control=64 value=110 time=212\n",
      "note_on channel=0 note=65 velocity=0 time=13\n",
      "control_change channel=0 control=64 value=109 time=38\n",
      "control_change channel=0 control=67 value=87 time=0\n",
      "note_on channel=0 note=73 velocity=38 time=13\n",
      "control_change channel=0 control=64 value=114 time=162\n",
      "note_on channel=0 note=68 velocity=0 time=14\n",
      "control_change channel=0 control=64 value=111 time=14\n",
      "control_change channel=0 control=67 value=87 time=0\n",
      "note_on channel=0 note=77 velocity=34 time=13\n",
      "control_change channel=0 control=64 value=121 time=201\n",
      "note_on channel=0 note=73 velocity=0 time=13\n",
      "control_change channel=0 control=64 value=119 time=113\n",
      "control_change channel=0 control=67 value=88 time=0\n",
      "note_on channel=0 note=80 velocity=31 time=13\n",
      "control_change channel=0 control=64 value=102 time=131\n",
      "control_change channel=0 control=64 value=126 time=0\n",
      "note_on channel=0 note=37 velocity=0 time=13\n",
      "note_on channel=0 note=77 velocity=0 time=0\n",
      "control_change channel=0 control=64 value=127 time=275\n",
      "control_change channel=0 control=67 value=94 time=0\n",
      "note_on channel=0 note=85 velocity=29 time=13\n",
      "control_change channel=0 control=64 value=127 time=2\n",
      "note_on channel=0 note=80 velocity=0 time=13\n",
      "control_change channel=0 control=64 value=127 time=334\n",
      "note_on channel=0 note=85 velocity=0 time=14\n",
      "control_change channel=0 control=64 value=126 time=397\n",
      "control_change channel=0 control=67 value=97 time=0\n",
      "control_change channel=0 control=64 value=100 time=48\n",
      "control_change channel=0 control=67 value=53 time=0\n",
      "control_change channel=0 control=64 value=107 time=3\n",
      "control_change channel=0 control=67 value=55 time=0\n",
      "control_change channel=0 control=64 value=113 time=18\n",
      "control_change channel=0 control=67 value=67 time=0\n",
      "control_change channel=0 control=64 value=111 time=7\n",
      "control_change channel=0 control=64 value=124 time=0\n",
      "control_change channel=0 control=67 value=58 time=0\n",
      "control_change channel=0 control=67 value=82 time=0\n",
      "control_change channel=0 control=64 value=117 time=14\n",
      "control_change channel=0 control=67 value=74 time=0\n",
      "control_change channel=0 control=64 value=111 time=4\n",
      "control_change channel=0 control=67 value=61 time=0\n",
      "control_change channel=0 control=64 value=102 time=463\n",
      "note_on channel=0 note=89 velocity=0 time=13\n",
      "control_change channel=0 control=64 value=0 time=353\n",
      "control_change channel=0 control=64 value=107 time=132\n",
      "note_on channel=0 note=92 velocity=0 time=13\n",
      "control_change channel=0 control=64 value=108 time=829\n",
      "control_change channel=0 control=64 value=112 time=7\n",
      "control_change channel=0 control=64 value=119 time=416\n",
      "control_change channel=0 control=64 value=117 time=81\n",
      "control_change channel=0 control=64 value=118 time=69\n",
      "control_change channel=0 control=64 value=127 time=32\n",
      "control_change channel=0 control=64 value=119 time=41\n",
      "control_change channel=0 control=64 value=123 time=40\n",
      "MetaMessage('end_of_track', time=1)\n"
     ]
    }
   ],
   "source": [
    "for event in midi.tracks[1]:\n",
    "  print(event)"
   ]
  },
  {
   "cell_type": "code",
   "execution_count": 9,
   "metadata": {},
   "outputs": [
    {
     "data": {
      "text/plain": [
       "1"
      ]
     },
     "execution_count": 9,
     "metadata": {},
     "output_type": "execute_result"
    }
   ],
   "source": [
    "event.time"
   ]
  },
  {
   "cell_type": "code",
   "execution_count": 5,
   "metadata": {},
   "outputs": [],
   "source": [
    "outport = mido.open_output()"
   ]
  },
  {
   "cell_type": "code",
   "execution_count": 6,
   "metadata": {},
   "outputs": [
    {
     "data": {
      "text/plain": [
       "<open output 'LogicPro  ' (RtMidi/MACOSX_CORE)>"
      ]
     },
     "execution_count": 6,
     "metadata": {},
     "output_type": "execute_result"
    }
   ],
   "source": [
    "outport"
   ]
  },
  {
   "cell_type": "code",
   "execution_count": 10,
   "metadata": {},
   "outputs": [],
   "source": [
    "outport.send(event)"
   ]
  },
  {
   "cell_type": "code",
   "execution_count": 10,
   "metadata": {},
   "outputs": [],
   "source": [
    "import rtmidi\n",
    "\n",
    "midiout = rtmidi.MidiOut()\n",
    "available_ports = midiout.get_ports()\n",
    "if available_ports:\n",
    "    midiout.open_port(0)\n",
    "else:\n",
    "    midiout.open_virtual_port(\"My virtual output\")\n",
    "\n"
   ]
  },
  {
   "cell_type": "code",
   "execution_count": 14,
   "metadata": {},
   "outputs": [],
   "source": [
    "midiout.send_message([0x90, 60, 0])"
   ]
  },
  {
   "cell_type": "code",
   "execution_count": null,
   "metadata": {},
   "outputs": [],
   "source": [
    "e"
   ]
  }
 ],
 "metadata": {
  "kernelspec": {
   "display_name": "PythonMidiPlayer-FXhhfSMO",
   "language": "python",
   "name": "python3"
  },
  "language_info": {
   "codemirror_mode": {
    "name": "ipython",
    "version": 3
   },
   "file_extension": ".py",
   "mimetype": "text/x-python",
   "name": "python",
   "nbconvert_exporter": "python",
   "pygments_lexer": "ipython3",
   "version": "3.9.12"
  },
  "orig_nbformat": 4
 },
 "nbformat": 4,
 "nbformat_minor": 2
}
